<?xml version="1.0" standalone="no"?>
<!DOCTYPE svg PUBLIC "-//W3C//DTD SVG 1.1//EN" "http://www.w3.org/Graphics/SVG/1.1/DTD/svg11.dtd" >
<svg>
<metadata>
Created by FontForge 20090622 at Mon Mar  2 12:15:38 2020
 By deploy user
&#194;&#169; 2017 IBM Corp. All rights reserved.
</metadata>
<defs>
<font id="IBMPlexSans-SemiBold" horiz-adv-x="600" >
  <font-face 
    font-family="IBM Plex Sans SemiBold"
    font-weight="650"
    font-stretch="normal"
    units-per-em="1000"
    panose-1="2 11 7 3 5 0 0 0 0 0"
    ascent="780"
    descent="-220"
    x-height="522"
    cap-height="698"
    bbox="-293 -266 1757 1141"
    underline-thickness="88"
    underline-position="-31"
    unicode-range="U+0020-U+FB02"
  />
<missing-glyph horiz-adv-x="225" 
d="M52 -220v920h121v-920h-121z" />
    <glyph glyph-name="fi" unicode="fi" horiz-adv-x="624" 
d="M100 0v421h-77v101h77v75q0 69 37 106t107 37h91v-102h-107v-116h322v-522h-128v421h-194v-421h-128zM486 598q-75 0 -75 64v20q0 64 75 64q37 0 56 -17.5t19 -46.5v-20q0 -29 -19 -46.5t-56 -17.5z" />
    <glyph glyph-name=".notdef" horiz-adv-x="225" 
d="M52 -220v920h121v-920h-121z" />
    <glyph glyph-name=".null" horiz-adv-x="0" 
 />
    <glyph glyph-name="nonmarkingreturn" horiz-adv-x="333" 
 />
    <glyph glyph-name="space" unicode=" " horiz-adv-x="236" 
 />
    <glyph glyph-name="exclam" unicode="!" horiz-adv-x="309" 
d="M184 210h-56l-41 291v197h136v-197zM155 -12q-41 0 -61 19.5t-20 51.5v20q0 32 20 51.5t61 19.5q40 0 60 -19.5t20 -51.5v-20q0 -32 -20 -51.5t-60 -19.5z" />
    <glyph glyph-name="quotedbl" unicode="&#x22;" horiz-adv-x="471" 
d="M398 428h-114v312h114v-312zM187 428h-114v312h114v-312z" />
    <glyph glyph-name="numbersign" unicode="#" horiz-adv-x="656" 
d="M347 0l32 182h-158l-32 -182h-85l31 182h-109v82h124l28 170h-108v82h123l31 182h85l-32 -182h159l31 182h85l-31 -182h109v-82h-124l-29 -170h109v-82h-123l-32 -182h-84zM234 264h158l30 170h-158z" />
    <glyph glyph-name="dollar" unicode="$" 
d="M355 -82h-99v89q-133 11 -218 109l81 74q62 -72 146 -83v203q-108 23 -157.5 70t-49.5 122q0 79 52 128t146 60v90h99v-90q119 -13 188 -97l-82 -71q-43 53 -115 68v-186q108 -25 157.5 -70.5t49.5 -121.5q0 -79 -51 -133.5t-147 -68.5v-92zM179 507q0 -34 20 -53.5
t66 -31.5v169q-86 -15 -86 -84zM433 203q0 66 -87 89v-184q42 9 64.5 34t22.5 61z" />
    <glyph glyph-name="percent" unicode="%" horiz-adv-x="960" 
d="M296 0h-116l484 698h116zM228 314q-84 0 -129 51t-45 147t45 147t129 51t128.5 -50.5t44.5 -147.5t-44.5 -147.5t-128.5 -50.5zM228 390q62 0 62 95v54q0 95 -62 95t-62 -95v-54q0 -95 62 -95zM732 -12q-84 0 -128.5 51t-44.5 147t44.5 147t128.5 51t129 -51t45 -147
t-45 -147t-129 -51zM732 64q62 0 62 95v54q0 95 -62 95t-62 -95v-54q0 -95 62 -95z" />
    <glyph glyph-name="ampersand" unicode="&#x26;" horiz-adv-x="713" 
d="M546 0l-58 64q-87 -76 -201 -76q-109 0 -170 54.5t-61 139.5q0 68 36.5 112.5t104.5 82.5q-78 88 -78 166q0 71 55.5 119t145.5 48q84 0 137.5 -42.5t53.5 -114.5q0 -61 -38 -105t-107 -84l122 -132q26 65 31 148h157v-107h-65q-15 -68 -46 -124l138 -149h-157zM316 611
q-32 0 -53 -19t-21 -49v-7q0 -36 60 -103q87 51 87 106v6q0 30 -21 48t-52 18zM304 95q68 0 116 41l-159 172q-38 -23 -56 -46.5t-18 -57.5v-11q0 -44 31 -71t86 -27z" />
    <glyph glyph-name="quotesingle" unicode="'" horiz-adv-x="260" 
d="M187 428h-114v312h114v-312z" />
    <glyph glyph-name="parenleft" unicode="(" horiz-adv-x="337" 
d="M51 312q0 140 49 260t127 188h121q-82 -76 -129.5 -184t-47.5 -228v-74q0 -122 47.5 -230t129.5 -182h-121q-77 66 -126.5 187.5t-49.5 262.5z" />
    <glyph glyph-name="parenright" unicode=")" horiz-adv-x="337" 
d="M287 312q0 -141 -50 -262t-127 -188h-121q82 75 129.5 183.5t47.5 228.5v74q0 122 -47 229.5t-130 182.5h121q77 -66 127 -186.5t50 -261.5z" />
    <glyph glyph-name="asterisk" unicode="*" horiz-adv-x="556" 
d="M278 433l-100 -151l-90 62l116 142l-171 50l34 100l164 -66l-9 177h112l-8 -177l163 66l34 -100l-171 -50l116 -142l-90 -61z" />
    <glyph glyph-name="plus" unicode="+" 
d="M356 63h-112v191h-177v103h177v192h112v-192h177v-103h-177v-191z" />
    <glyph glyph-name="comma" unicode="," horiz-adv-x="299" 
d="M151 154q39 0 59.5 -20t20.5 -54v-18q0 -55 -28 -111.5t-74 -93.5h-91q72 70 92 134q-59 10 -59 71v18q0 34 20 54t60 20z" />
    <glyph glyph-name="hyphen" unicode="-" horiz-adv-x="402" 
d="M344 241h-286v127h286v-127z" />
    <glyph glyph-name="period" unicode="." horiz-adv-x="299" 
d="M149 -11q-39 0 -59.5 20t-20.5 53v18q0 34 20.5 54t59.5 20q40 0 60 -20t20 -54v-18q0 -33 -20 -53t-60 -20z" />
    <glyph glyph-name="slash" unicode="/" horiz-adv-x="437" 
d="M112 -151h-107l287 891h107z" />
    <glyph glyph-name="zero" unicode="0" 
d="M300 -12q-131 0 -195.5 93t-64.5 268t64.5 268t195.5 93t195.5 -93t64.5 -268t-64.5 -268t-195.5 -93zM300 99q120 0 120 187v126q0 187 -120 187t-120 -187v-126q0 -187 120 -187z" />
    <glyph glyph-name="one" unicode="1" 
d="M554 0h-472v107h181v472l-169 -95l-50 96l211 118h137v-591h162v-107z" />
    <glyph glyph-name="two" unicode="2" 
d="M546 111v-111h-484v122l219 192q57 50 82.5 90t25.5 84v13q0 44 -29.5 69.5t-73.5 25.5q-93 0 -122 -104l-114 44q25 77 86 125.5t161 48.5q108 0 169.5 -58t61.5 -150q0 -55 -26 -105.5t-59 -83.5t-91 -81l-147 -121h341z" />
    <glyph glyph-name="three" unicode="3" 
d="M193 416h69q58 0 87.5 24t29.5 63v7q0 43 -28 67.5t-75 24.5q-89 0 -143 -84l-84 76q84 116 231 116q107 0 172 -49.5t65 -132.5q0 -64 -38 -105.5t-96 -53.5v-6q65 -12 105.5 -55.5t40.5 -114.5q0 -92 -70.5 -148.5t-186.5 -56.5q-164 0 -248 130l97 74q53 -96 151 -96
q57 0 88.5 28t31.5 77v7q0 48 -33.5 73t-96.5 25h-69v110z" />
    <glyph glyph-name="four" unicode="4" 
d="M473 0h-125v135h-316v112l278 451h163v-461h91v-102h-91v-135zM340 570l-200 -333h208v333h-8z" />
    <glyph glyph-name="five" unicode="5" 
d="M515 698v-114h-314l-16 -234h7q25 51 57.5 76t90.5 25q93 0 153 -59.5t60 -161.5q0 -108 -68.5 -175t-189.5 -67q-160 0 -240 130l96 74q27 -46 59.5 -71t85.5 -25q58 0 89 32.5t31 90.5v8q0 54 -31 85t-86 31q-69 0 -113 -52l-108 15l26 392h411z" />
    <glyph glyph-name="six" unicode="6" 
d="M303 -12q-119 0 -186.5 74t-67.5 200q0 138 74 252.5t176 183.5h178q-133 -96 -201 -174.5t-90 -179.5l8 -2q50 103 158 103q89 0 146.5 -59.5t57.5 -156.5q0 -107 -69.5 -174t-183.5 -67zM303 92q55 0 86.5 31t31.5 87v15q0 56 -31.5 87t-86.5 31q-56 0 -87 -30.5
t-31 -87.5v-15q0 -57 31 -87.5t87 -30.5z" />
    <glyph glyph-name="seven" unicode="7" 
d="M307 0h-138l243 591h-241v-128h-112v235h484v-113z" />
    <glyph glyph-name="eight" unicode="8" 
d="M300 -12q-119 0 -187 56.5t-68 146.5q0 66 37 109t101 61v8q-54 20 -85.5 60.5t-31.5 99.5q0 81 62 131t172 50t172 -50t62 -131q0 -59 -31.5 -99.5t-85.5 -60.5v-8q64 -18 101 -61t37 -109q0 -90 -68 -146.5t-187 -56.5zM300 91q56 0 87 26t31 73v21q0 47 -31 73t-87 26
t-87 -26t-31 -73v-21q0 -47 31 -73t87 -26zM300 408q52 0 80.5 24t28.5 68v16q0 43 -28.5 67t-80.5 24t-80.5 -24t-28.5 -67v-16q0 -44 28.5 -68t80.5 -24z" />
    <glyph glyph-name="nine" unicode="9" 
d="M551 436q0 -138 -74 -252.5t-176 -183.5h-178q133 96 201 174.5t90 179.5l-8 2q-50 -103 -158 -103q-89 0 -146.5 59.5t-57.5 156.5q0 107 69.5 174t183.5 67q119 0 186.5 -74t67.5 -200zM297 355q56 0 87 30.5t31 87.5v15q0 57 -31 87.5t-87 30.5q-55 0 -86.5 -31
t-31.5 -87v-15q0 -56 31.5 -87t86.5 -31z" />
    <glyph glyph-name="colon" unicode=":" horiz-adv-x="319" 
d="M159 367q-39 0 -59.5 20t-20.5 53v18q0 34 20.5 54t59.5 20q40 0 60 -20t20 -54v-18q0 -33 -20 -53t-60 -20zM159 -11q-39 0 -59.5 20t-20.5 53v18q0 34 20.5 54t59.5 20q40 0 60 -20t20 -54v-18q0 -33 -20 -53t-60 -20z" />
    <glyph glyph-name="semicolon" unicode=";" horiz-adv-x="319" 
d="M158 367q-39 0 -59.5 20t-20.5 53v18q0 34 20.5 54t59.5 20q40 0 60 -20t20 -54v-18q0 -33 -20 -53t-60 -20zM160 154q39 0 59.5 -20t20.5 -54v-18q0 -55 -28 -111.5t-74 -93.5h-91q72 70 92 134q-59 10 -59 71v18q0 34 20 54t60 20z" />
    <glyph glyph-name="less" unicode="&#x3c;" 
d="M501 -4l-402 256v85l402 256v-130l-270 -165v-7l270 -165v-130z" />
    <glyph glyph-name="equal" unicode="=" 
d="M533 365h-466v103h466v-103zM533 142h-466v104h466v-104z" />
    <glyph glyph-name="greater" unicode="&#x3e;" 
d="M99 -5v131l270 165v7l-270 165v130l402 -256v-84z" />
    <glyph glyph-name="question" unicode="?" horiz-adv-x="493" 
d="M286 226h-122v156q163 6 163 116v14q0 41 -25 64.5t-67 23.5q-43 0 -71.5 -26t-39.5 -69l-107 44q19 69 74.5 115t148.5 46q101 0 162 -55.5t61 -145.5q0 -83 -51 -135.5t-126 -65.5v-82zM226 -12q-40 0 -60 19.5t-20 51.5v20q0 32 20 51.5t60 19.5q41 0 61 -19.5
t20 -51.5v-20q0 -32 -20 -51.5t-61 -19.5z" />
    <glyph glyph-name="at" unicode="@" horiz-adv-x="899" 
d="M674 -41v-80h-216q-183 0 -289.5 112.5t-106.5 298.5t108.5 302.5t289.5 116.5q168 0 274 -100t106 -278q0 -116 -48.5 -184.5t-134.5 -68.5q-51 0 -82.5 25t-35.5 67h-5q-28 -90 -117 -90q-70 0 -115 54.5t-45 155.5t44.5 156t115.5 55q40 0 67.5 -21.5t38.5 -55.5h5v68
h98v-279q0 -55 47 -55q38 0 60 41t22 118v33q0 128 -82.5 204t-212.5 76q-140 0 -226 -89t-86 -228v-44q0 -139 85 -224.5t225 -85.5h216zM450 163q33 0 55.5 21t22.5 51v118q0 28 -22 46.5t-56 18.5q-41 0 -64 -25.5t-23 -66.5v-71q0 -42 23 -67t64 -25z" />
    <glyph glyph-name="A" unicode="A" horiz-adv-x="672" 
d="M651 0h-137l-56 178h-248l-55 -178h-134l234 699h164zM426 291l-90 287h-5l-89 -287h184z" />
    <glyph glyph-name="B" unicode="B" horiz-adv-x="663" 
d="M82 0v698h323q86 0 135.5 -48.5t49.5 -130.5q0 -74 -35.5 -110.5t-89.5 -39.5v-6q56 -1 103.5 -41.5t47.5 -121.5q0 -84 -51.5 -142t-128.5 -58h-354zM214 299v-187h184q38 0 59 20t21 56v34q0 37 -21 57t-59 20h-184zM214 586v-179h163q36 0 56 19.5t20 54.5v31
q0 35 -20 54.5t-56 19.5h-163z" />
    <glyph glyph-name="C" unicode="C" horiz-adv-x="642" 
d="M353 -12q-141 0 -221 91.5t-80 264.5q0 174 80.5 270t220.5 96q182 0 255 -161l-113 -60q-34 104 -142 104q-74 0 -117.5 -50.5t-43.5 -139.5v-110q0 -89 43.5 -138.5t117.5 -49.5q110 0 151 111l107 -63q-79 -165 -258 -165z" />
    <glyph glyph-name="D" unicode="D" horiz-adv-x="689" 
d="M82 0v698h254q140 0 220.5 -89.5t80.5 -259.5t-80.5 -259.5t-220.5 -89.5h-254zM214 117h122q75 0 118 45t43 132v110q0 87 -43 132t-118 45h-122v-464z" />
    <glyph glyph-name="E" unicode="E" 
d="M542 0h-460v698h460v-117h-328v-169h290v-117h-290v-178h328v-117z" />
    <glyph glyph-name="F" unicode="F" horiz-adv-x="577" 
d="M214 0h-132v698h449v-117h-317v-169h276v-117h-276v-295z" />
    <glyph glyph-name="G" unicode="G" horiz-adv-x="712" 
d="M527 0v108h-4q-9 -53 -58 -86.5t-125 -33.5q-127 0 -207.5 94.5t-80.5 264.5q0 172 84.5 267.5t226.5 95.5q186 0 264 -159l-107 -63q-44 105 -157 105q-79 0 -125 -48.5t-46 -139.5v-112q0 -90 46.5 -139t126.5 -49q65 0 107 31t42 88v45h-137v111h264v-380h-114z" />
    <glyph glyph-name="H" unicode="H" horiz-adv-x="719" 
d="M505 0v295h-291v-295h-132v698h132v-286h291v286h132v-698h-132z" />
    <glyph glyph-name="I" unicode="I" horiz-adv-x="423" 
d="M370 0h-317v106h92v486h-92v106h317v-106h-93v-486h93v-106z" />
    <glyph glyph-name="J" unicode="J" horiz-adv-x="545" 
d="M115 698h352v-502q0 -94 -59.5 -150.5t-161.5 -56.5q-94 0 -149 49.5t-71 135.5l122 25q19 -94 97 -94q41 0 65.5 25.5t24.5 74.5v385h-220v108z" />
    <glyph glyph-name="K" unicode="K" horiz-adv-x="678" 
d="M506 0l-199 316l-93 -110v-206h-132v698h132v-344h5l99 131l173 213h152l-243 -291l263 -407h-157z" />
    <glyph glyph-name="L" unicode="L" horiz-adv-x="521" 
d="M489 0h-407v698h132v-581h275v-117z" />
    <glyph glyph-name="M" unicode="M" horiz-adv-x="817" 
d="M610 0v496h-4l-53 -106l-145 -264l-143 263l-55 112h-3v-501h-125v698h146l179 -341h3l178 341h147v-698h-125z" />
    <glyph glyph-name="N" unicode="N" horiz-adv-x="719" 
d="M492 0l-210 358l-72 145h-3v-503h-125v698h145l210 -358l72 -145h3v503h125v-698h-145z" />
    <glyph glyph-name="O" unicode="O" horiz-adv-x="712" 
d="M356 -12q-140 0 -222 93.5t-82 267.5t82 267.5t222 93.5q141 0 222.5 -93.5t81.5 -267.5t-81.5 -267.5t-222.5 -93.5zM356 105q75 0 119.5 50.5t44.5 139.5v108q0 89 -44.5 139.5t-119.5 50.5t-119.5 -50.5t-44.5 -139.5v-108q0 -89 44.5 -139.5t119.5 -50.5z" />
    <glyph glyph-name="P" unicode="P" horiz-adv-x="641" 
d="M214 0h-132v698h314q96 0 151.5 -59t55.5 -157t-55.5 -157t-151.5 -59h-182v-266zM214 583v-203h170q39 0 60.5 20.5t21.5 58.5v46q0 38 -21.5 58t-60.5 20h-170z" />
    <glyph glyph-name="Q" unicode="Q" horiz-adv-x="712" 
d="M532 -70v-108h-97q-134 0 -134 128v42q-116 18 -182.5 110t-66.5 247q0 174 82 267.5t222 93.5q141 0 222.5 -93.5t81.5 -267.5q0 -151 -62 -242t-173 -112v-65h107zM356 105q75 0 119.5 50.5t44.5 139.5v108q0 89 -44.5 139.5t-119.5 50.5t-119.5 -50.5t-44.5 -139.5
v-108q0 -89 44.5 -139.5t119.5 -50.5z" />
    <glyph glyph-name="R" unicode="R" horiz-adv-x="664" 
d="M214 269v-269h-132v698h315q95 0 150.5 -58.5t55.5 -157.5q0 -73 -33 -125t-97 -73l143 -284h-147l-130 269h-125zM214 380h170q39 0 60.5 20.5t21.5 58.5v46q0 38 -21.5 58t-60.5 20h-170v-203z" />
    <glyph glyph-name="S" unicode="S" horiz-adv-x="611" 
d="M299 -12q-161 0 -260 116l89 86q74 -86 179 -86q60 0 91.5 26.5t31.5 71.5q0 37 -21 58.5t-74 30.5l-66 10q-209 33 -209 203q0 94 68 150t185 56q153 0 239 -103l-90 -85q-57 72 -156 72q-56 0 -85 -21.5t-29 -60.5t22.5 -58.5t74.5 -28.5l65 -12q106 -19 156.5 -68
t50.5 -135q0 -101 -69.5 -161.5t-192.5 -60.5z" />
    <glyph glyph-name="T" unicode="T" horiz-adv-x="580" 
d="M554 581h-198v-581h-132v581h-198v117h528v-117z" />
    <glyph glyph-name="U" unicode="U" horiz-adv-x="690" 
d="M77 698h130v-429q0 -84 32.5 -124t105.5 -40t105.5 40t32.5 124v429h130v-412q0 -156 -62 -227t-207 -71t-206 71t-61 227v412z" />
    <glyph glyph-name="V" unicode="V" horiz-adv-x="638" 
d="M394 0h-150l-228 698h135l107 -340l62 -232h3l61 232l107 340h131z" />
    <glyph glyph-name="W" unicode="W" horiz-adv-x="949" 
d="M338 0h-150l-162 698h132l69 -335l43 -214h3l50 214l80 335h146l80 -335l49 -214h3l44 214l71 335h126l-167 -698h-149l-89 369l-43 184h-2l-45 -184z" />
    <glyph glyph-name="X" unicode="X" horiz-adv-x="655" 
d="M409 358l228 -358h-154l-160 268h-3l-159 -268h-143l227 357l-217 341h154l148 -248h3l150 248h144z" />
    <glyph glyph-name="Y" unicode="Y" horiz-adv-x="632" 
d="M382 0h-133v274l-239 424h148l161 -295h2l157 295h144l-240 -423v-275z" />
    <glyph glyph-name="Z" unicode="Z" horiz-adv-x="599" 
d="M561 116v-116h-523v118l362 464h-344v116h495v-118l-363 -464h373z" />
    <glyph glyph-name="bracketleft" unicode="[" horiz-adv-x="329" 
d="M276 -138h-194v898h194v-92h-77v-714h77v-92z" />
    <glyph glyph-name="backslash" unicode="\" horiz-adv-x="437" 
d="M431 -151h-107l-287 891h107z" />
    <glyph glyph-name="bracketright" unicode="]" horiz-adv-x="329" 
d="M53 760h194v-898h-194v92h77v714h-77v92z" />
    <glyph glyph-name="asciicircum" unicode="^" 
d="M556 332l-102 -49l-153 280h-6l-154 -280l-97 49l202 366h110z" />
    <glyph glyph-name="underscore" unicode="_" horiz-adv-x="559" 
d="M529 -183h-499v108h499v-108z" />
    <glyph glyph-name="grave" unicode="`" 
d="M287 581l-126 171l108 53l95 -187z" />
    <glyph glyph-name="a" unicode="a" horiz-adv-x="559" 
d="M203 -12q-78 0 -122 41.5t-44 112.5q0 79 57.5 119.5t165.5 40.5h89v38q0 92 -97 92q-73 0 -119 -66l-76 68q63 100 204 100q105 0 160.5 -48t55.5 -138v-246h52v-102h-71q-40 0 -65.5 24.5t-31.5 65.5h-6q-13 -50 -53 -76t-99 -26zM246 81q45 0 74 20t29 55v69h-82
q-100 0 -100 -64v-17q0 -63 79 -63z" />
    <glyph glyph-name="b" unicode="b" 
d="M74 0v740h128v-304h4q14 45 53 71.5t91 26.5q99 0 152 -70.5t53 -201.5q0 -132 -53 -203t-152 -71q-51 0 -90 27t-54 72h-4v-87h-128zM309 94q50 0 81 33.5t31 88.5v90q0 55 -31 89t-81 34q-46 0 -76.5 -23t-30.5 -61v-166q0 -40 30 -62.5t77 -22.5z" />
    <glyph glyph-name="c" unicode="c" horiz-adv-x="513" 
d="M280 -12q-114 0 -177.5 73.5t-63.5 200.5t63.5 199.5t177.5 72.5q155 0 205 -132l-105 -47q-21 76 -100 76q-52 0 -79.5 -33.5t-27.5 -89.5v-95q0 -56 27.5 -89t79.5 -33q77 0 110 82l98 -47q-51 -138 -208 -138z" />
    <glyph glyph-name="d" unicode="d" 
d="M398 0v87h-5q-14 -45 -53.5 -72t-90.5 -27q-98 0 -151 71.5t-53 202.5t53 201.5t151 70.5q52 0 91.5 -26.5t52.5 -71.5h5v304h128v-740h-128zM290 94q47 0 77.5 23t30.5 62v166q0 38 -30.5 61t-77.5 23q-50 0 -80.5 -34t-30.5 -89v-90q0 -55 30.5 -88.5t80.5 -33.5z" />
    <glyph glyph-name="e" unicode="e" horiz-adv-x="558" 
d="M285 -12q-115 0 -180.5 74t-65.5 200q0 125 64 198.5t178 73.5q116 0 177 -74.5t61 -188.5v-42h-347v-13q0 -58 32.5 -92t94.5 -34q78 0 133 71l69 -77q-70 -96 -216 -96zM283 438q-50 0 -80.5 -34t-30.5 -88v-8h214v9q0 55 -27 88t-76 33z" />
    <glyph glyph-name="f" unicode="f" horiz-adv-x="350" 
d="M100 0v421h-77v101h77v75q0 69 37 106t107 37h91v-102h-107v-116h107v-101h-107v-421h-128z" />
    <glyph glyph-name="g" unicode="g" horiz-adv-x="545" 
d="M545 -44q0 -84 -64 -126t-210 -42q-243 0 -243 123q0 86 93 100v11q-32 8 -49.5 31.5t-17.5 55.5q0 71 96 92v4q-95 44 -95 152q0 81 56 129t160 48q53 0 91 -13v17q0 76 74 76h81v-98h-111v-14q81 -45 81 -145q0 -81 -56 -128t-160 -47q-45 0 -80 9q-37 -17 -37 -47
q0 -39 68 -39h140q183 0 183 -149zM425 -59q0 53 -89 53h-178q-27 -20 -27 -54q0 -64 110 -64h64q120 0 120 65zM271 269q94 0 94 80v17q0 80 -94 80t-94 -80v-17q0 -80 94 -80z" />
    <glyph glyph-name="h" unicode="h" horiz-adv-x="588" 
d="M74 0v740h128v-305h5q37 99 146 99q80 0 123.5 -53t43.5 -151v-330h-128v317q0 112 -86 112q-43 0 -73.5 -22t-30.5 -62v-345h-128z" />
    <glyph glyph-name="i" unicode="i" horiz-adv-x="276" 
d="M138 598q-75 0 -75 64v20q0 64 75 64q37 0 56 -17.5t19 -46.5v-20q0 -29 -19 -46.5t-56 -17.5zM74 0v522h128v-522h-128z" />
    <glyph glyph-name="j" unicode="j" horiz-adv-x="276" 
d="M74 -98v620h128v-585q0 -137 -138 -137h-70v102h80zM138 598q-75 0 -75 64v20q0 64 75 64q37 0 56 -17.5t19 -46.5v-20q0 -29 -19 -46.5t-56 -17.5z" />
    <glyph glyph-name="k" unicode="k" horiz-adv-x="562" 
d="M74 0v740h128v-446h5l69 94l117 134h145l-180 -202l199 -320h-152l-134 234l-69 -75v-159h-128z" />
    <glyph glyph-name="l" unicode="l" horiz-adv-x="294" 
d="M271 0h-69q-128 0 -128 126v614h128v-638h69v-102z" />
    <glyph glyph-name="m" unicode="m" horiz-adv-x="888" 
d="M202 0h-128v522h128v-87h5q36 99 140 99q114 0 151 -105h2q15 46 57.5 75.5t102.5 29.5q76 0 118 -53t42 -151v-330h-128v317q0 112 -84 112q-40 0 -68.5 -22t-28.5 -62v-345h-128v317q0 112 -84 112q-40 0 -68.5 -22t-28.5 -62v-345z" />
    <glyph glyph-name="n" unicode="n" horiz-adv-x="588" 
d="M202 0h-128v522h128v-87h5q37 99 146 99q80 0 123.5 -53t43.5 -151v-330h-128v317q0 112 -86 112q-43 0 -73.5 -22t-30.5 -62v-345z" />
    <glyph glyph-name="o" unicode="o" horiz-adv-x="563" 
d="M281 -12q-112 0 -177 74t-65 200q0 125 65 198.5t177 73.5t177.5 -73.5t65.5 -198.5q0 -126 -65.5 -200t-177.5 -74zM281 91q51 0 80 31.5t29 90.5v97q0 58 -29 89.5t-80 31.5q-50 0 -79 -31.5t-29 -89.5v-97q0 -58 29 -90t79 -32z" />
    <glyph glyph-name="p" unicode="p" 
d="M74 -200v722h128v-86h4q14 45 53 71.5t91 26.5q99 0 152 -70.5t53 -201.5q0 -132 -53 -203t-152 -71q-51 0 -90 27t-54 72h-4v-287h-128zM309 94q50 0 81 33.5t31 88.5v90q0 55 -31 89t-81 34q-46 0 -76.5 -23t-30.5 -61v-166q0 -40 30 -62.5t77 -22.5z" />
    <glyph glyph-name="q" unicode="q" 
d="M398 -200v287h-5q-14 -45 -53.5 -72t-90.5 -27q-98 0 -151 71.5t-53 202.5t53 201.5t151 70.5q52 0 91.5 -26.5t52.5 -71.5h5v86h128v-722h-128zM290 94q47 0 77.5 23t30.5 62v166q0 38 -30.5 61t-77.5 23q-50 0 -80.5 -34t-30.5 -89v-90q0 -55 30.5 -88.5t80.5 -33.5z
" />
    <glyph glyph-name="r" unicode="r" horiz-adv-x="393" 
d="M202 0h-128v522h128v-108h5q11 46 45.5 77t92.5 31h28v-121h-40q-131 0 -131 -81v-320z" />
    <glyph glyph-name="s" unicode="s" horiz-adv-x="499" 
d="M245 -12q-133 0 -216 96l78 76q61 -71 143 -71q87 0 87 60q0 47 -64 55l-52 7q-174 22 -174 158q0 75 54 120t144 45q72 0 117.5 -20t86.5 -62l-75 -75q-52 56 -125 56q-79 0 -79 -54q0 -26 15.5 -39.5t52.5 -19.5l53 -7q169 -24 169 -154q0 -76 -59 -123.5t-156 -47.5z
" />
    <glyph glyph-name="t" unicode="t" horiz-adv-x="374" 
d="M329 0h-92q-66 0 -100.5 34.5t-34.5 98.5v288h-77v101h40q28 0 39 13t11 41v89h115v-143h107v-101h-107v-319h99v-102z" />
    <glyph glyph-name="u" unicode="u" horiz-adv-x="588" 
d="M386 0v87h-5q-34 -99 -146 -99q-80 0 -123.5 53t-43.5 151v330h128v-317q0 -111 88 -111q42 0 72 21.5t30 61.5v345h128v-522h-128z" />
    <glyph glyph-name="v" unicode="v" horiz-adv-x="524" 
d="M338 0h-152l-174 522h126l73 -225l51 -186h7l51 186l71 225h122z" />
    <glyph glyph-name="w" unicode="w" horiz-adv-x="819" 
d="M167 0l-144 522h123l53 -215l41 -179h4l48 179l61 215h116l63 -215l49 -179h4l41 179l52 215h119l-143 -522h-138l-67 230l-39 142h-3l-38 -142l-66 -230h-136z" />
    <glyph glyph-name="x" unicode="x" horiz-adv-x="544" 
d="M153 0h-134l178 265l-174 257h146l108 -173h3l107 173h137l-177 -259l178 -263h-145l-111 182h-4z" />
    <glyph glyph-name="y" unicode="y" horiz-adv-x="524" 
d="M303 246l91 276h120l-210 -615q-20 -58 -53 -82.5t-96 -24.5h-77v102h94l24 73l-187 547h127l91 -276l34 -132h6z" />
    <glyph glyph-name="z" unicode="z" horiz-adv-x="502" 
d="M465 0h-428v102l271 319h-262v101h412v-99l-273 -321h280v-102z" />
    <glyph glyph-name="braceleft" unicode="{" horiz-adv-x="363" 
d="M310 -138h-101q-41 0 -66.5 25.5t-25.5 69.5v214q0 42 -27 65.5t-70 23.5v103q43 0 70 23t27 65v214q0 44 25.5 69.5t66.5 25.5h101v-92h-76v-225q0 -48 -29.5 -84t-72.5 -44v-8q43 -8 72.5 -44t29.5 -84v-225h76v-92z" />
    <glyph glyph-name="bar" unicode="|" horiz-adv-x="376" 
d="M242 -138h-108v898h108v-898z" />
    <glyph glyph-name="braceright" unicode="}" horiz-adv-x="363" 
d="M53 760h102q41 0 66.5 -26t25.5 -69v-214q0 -42 26.5 -65t69.5 -23v-103q-43 0 -69.5 -23.5t-26.5 -65.5v-214q0 -43 -25.5 -69t-66.5 -26h-102v92h77v226q0 47 29 83.5t72 44.5v7q-43 8 -72 44.5t-29 83.5v225h-77v92z" />
    <glyph glyph-name="asciitilde" unicode="~" 
d="M417 219q-53 0 -127 36q-68 34 -111 34q-37 0 -79 -29l-45 72q44 60 128 60q53 0 127 -36q66 -33 111 -33q38 0 79 28l45 -72q-44 -60 -128 -60z" />
    <glyph glyph-name="uni00A0" unicode="&#xa0;" horiz-adv-x="236" 
 />
    <glyph glyph-name="exclamdown" unicode="&#xa1;" horiz-adv-x="309" 
d="M222 -176h-136v197l40 292h56l40 -292v-197zM155 372q-41 0 -61 19.5t-20 51.5v21q0 32 20 51t61 19q40 0 60 -19t20 -51v-21q0 -32 -20 -51.5t-60 -19.5z" />
    <glyph glyph-name="cent" unicode="&#xa2;" horiz-adv-x="541" 
d="M335 -114h-99v106q-91 16 -142 86t-51 180q0 109 51 179t142 87v106h99v-105q114 -15 161 -121l-93 -51q-25 57 -75 71v-333q55 14 85 75l91 -53q-49 -106 -169 -122v-105zM168 215q0 -97 76 -122v330q-37 -12 -56.5 -44t-19.5 -78v-86z" />
    <glyph glyph-name="sterling" unicode="&#xa3;" horiz-adv-x="586" 
d="M545 0h-474v125q79 36 79 127q0 21 -4 38h-104v105h67q-22 66 -22 108q0 94 66 150.5t178 56.5q151 0 230 -119l-96 -68q-53 73 -132 73q-53 0 -82.5 -29t-29.5 -83q0 -39 18 -89h202v-105h-164q2 -22 2 -32q0 -49 -22.5 -84.5t-53.5 -53.5v-8h342v-112z" />
    <glyph glyph-name="yen" unicode="&#xa5;" horiz-adv-x="615" 
d="M531 137h-170v-137h-133v137h-170v83h170v76h-170v83h118l-175 319h149l149 -287h3l147 287h142l-178 -319h118v-83h-170v-76h170v-83z" />
    <glyph glyph-name="brokenbar" unicode="&#xa6;" horiz-adv-x="376" 
d="M242 402h-108v358h108v-358zM242 -138h-108v358h108v-358z" />
    <glyph glyph-name="section" unicode="&#xa7;" horiz-adv-x="574" 
d="M484 10q0 -78 -58 -123.5t-153 -45.5q-116 0 -190 67l65 79q54 -52 126 -52q46 0 72.5 19t26.5 52q0 29 -22 47t-70 31l-72 21q-151 42 -151 149q0 94 107 140v14q-76 50 -76 136q0 77 58 121.5t153 44.5q117 0 191 -67l-66 -79q-55 52 -128 52q-45 0 -71 -17t-26 -51
q0 -28 22 -45.5t70 -30.5l72 -21q152 -42 152 -151q0 -95 -108 -139v-13q76 -50 76 -138zM406 262q0 67 -91 92l-71 20q-22 6 -32 10q-45 -43 -45 -92q0 -65 91 -90l71 -20q11 -3 33 -11q44 44 44 91z" />
    <glyph glyph-name="dieresis" unicode="&#xa8;" 
d="M195 605q-71 0 -71 58v21q0 58 71 58t71 -58v-21q0 -58 -71 -58zM405 605q-71 0 -71 58v21q0 58 71 58t71 -58v-21q0 -58 -71 -58z" />
    <glyph glyph-name="copyright" unicode="&#xa9;" horiz-adv-x="788" 
d="M394 -12q-152 0 -248 98t-96 263t96 263t248 98q151 0 247.5 -98t96.5 -263t-96.5 -263t-247.5 -98zM394 51q118 0 194.5 76t76.5 189v66q0 113 -76.5 189t-194.5 76t-195 -76t-77 -189v-66q0 -113 77 -189t195 -76zM401 140q-91 0 -143 57t-52 152t52 152t143 57
q123 0 167 -106l-88 -43q-25 58 -79 58q-36 0 -56 -22t-20 -58v-76q0 -36 20 -58t56 -22q56 0 87 59l87 -43q-47 -107 -174 -107z" />
    <glyph glyph-name="ordfeminine" unicode="&#xaa;" horiz-adv-x="434" 
d="M392 415v-70h-53q-31 0 -49 16t-20 45h-4q-11 -32 -39.5 -50.5t-69.5 -18.5q-52 0 -82.5 28.5t-30.5 77.5q0 109 157 109h60v21q0 69 -66 69q-59 0 -88 -48l-52 46q41 70 149 70q70 0 109.5 -34.5t39.5 -99.5v-161h39zM261 499h-58q-69 0 -69 -44v-13q0 -42 55 -42
q31 0 51.5 15t20.5 41v43z" />
    <glyph glyph-name="guillemotleft" unicode="&#xab;" horiz-adv-x="545" 
d="M495 138l-38 -80l-188 162v111l188 162l38 -81l-125 -137zM263 138l-38 -80l-188 162v111l188 162l38 -81l-125 -137z" />
    <glyph glyph-name="logicalnot" unicode="&#xac;" 
d="M533 78h-106v176h-371v103h477v-279z" />
    <glyph glyph-name="uni00AD" unicode="&#xad;" horiz-adv-x="402" 
d="M344 241h-286v127h286v-127z" />
    <glyph glyph-name="registered" unicode="&#xae;" horiz-adv-x="468" 
d="M234 298q-85 0 -143 59t-58 147t58 147t143 59q84 0 142.5 -59t58.5 -147t-58.5 -147t-142.5 -59zM234 343q63 0 106.5 41t43.5 105v30q0 64 -43.5 105t-106.5 41t-106.5 -41t-43.5 -105v-30q0 -64 43.5 -105t106.5 -41zM207 465v-66h-57v209h99q37 0 56 -18.5t19 -49.5
q0 -47 -38 -65l45 -76h-62l-35 66h-27zM207 508h32q27 0 27 22v12q0 22 -27 22h-32v-56z" />
    <glyph glyph-name="macron" unicode="&#xaf;" 
d="M151 628v93h298v-93h-298z" />
    <glyph glyph-name="degree" unicode="&#xb0;" horiz-adv-x="470" 
d="M235 343q-77 0 -128.5 52.5t-51.5 131.5t51.5 131t128.5 52t128.5 -52t51.5 -131t-51.5 -131.5t-128.5 -52.5zM235 429q39 0 63.5 28t24.5 70t-24.5 69.5t-63.5 27.5q-40 0 -64 -27.5t-24 -69.5t24 -70t64 -28z" />
    <glyph glyph-name="plusminus" unicode="&#xb1;" 
d="M356 175h-112v176h-177v104h177v175h112v-175h177v-104h-177v-176zM533 0h-466v104h466v-104z" />
    <glyph glyph-name="twosuperior" unicode="&#xb2;" horiz-adv-x="347" 
d="M318 402v-73h-283v79l115 89q37 28 51 46.5t14 41.5v2q0 41 -50 41q-46 0 -61 -49l-79 30q35 95 149 95q64 0 101 -31t37 -81q0 -45 -29 -78.5t-80 -65.5l-70 -46h185z" />
    <glyph glyph-name="threesuperior" unicode="&#xb3;" horiz-adv-x="345" 
d="M116 554h36q58 0 58 35v4q0 18 -13.5 29.5t-37.5 11.5q-48 0 -81 -44l-56 52q52 62 140 62q66 0 105 -27t39 -72q0 -34 -21.5 -55.5t-54.5 -26.5v-4q37 -6 59.5 -28.5t22.5 -58.5q0 -50 -42 -79.5t-111 -29.5q-101 0 -149 72l67 51q30 -53 82 -53q27 0 42.5 13t15.5 34v3
q0 39 -65 39h-36v72z" />
    <glyph glyph-name="acute" unicode="&#xb4;" 
d="M439 752l-126 -171l-77 37l95 187z" />
    <glyph glyph-name="mu" unicode="&#xb5;" horiz-adv-x="593" 
d="M201 -200h-127v722h128v-318q0 -110 86 -110q42 0 73 22t31 61v345h128v-522h-128v87h-5q-34 -99 -124 -99q-58 0 -80 45h-5l23 -121v-112z" />
    <glyph glyph-name="paragraph" unicode="&#xb6;" horiz-adv-x="670" 
d="M243 -149v421q-86 0 -146 62.5t-60 150.5t60 150.5t146 62.5h365v-95h-66v-752h-99v752h-101v-752h-99z" />
    <glyph glyph-name="periodcentered" unicode="&#xb7;" horiz-adv-x="350" 
d="M175 221q-39 0 -59.5 20t-20.5 53v18q0 34 20.5 54t59.5 20q40 0 60 -20t20 -54v-18q0 -33 -20 -53t-60 -20z" />
    <glyph glyph-name="cedilla" unicode="&#xb8;" 
d="M313 -211q-81 0 -116 44l43 51q24 -29 65 -29q44 0 44 27q0 32 -73 41l-23 2l21 102h62l-17 -84l3 -3q22 6 46 6q31 0 51 -17t20 -51q0 -46 -35.5 -67.5t-90.5 -21.5z" />
    <glyph glyph-name="onesuperior" unicode="&#xb9;" horiz-adv-x="348" 
d="M324 329h-273v70h97v218l-86 -41l-35 63l116 59h95v-299h86v-70z" />
    <glyph glyph-name="ordmasculine" unicode="&#xba;" horiz-adv-x="424" 
d="M212 336q-81 0 -126.5 50t-45.5 137t45.5 137t126.5 50q80 0 126 -50t46 -137q0 -86 -46 -136.5t-126 -50.5zM212 407q37 0 56.5 22.5t19.5 64.5v59q0 42 -19.5 64.5t-56.5 22.5t-57 -22.5t-20 -64.5v-59q0 -42 20 -64.5t57 -22.5z" />
    <glyph glyph-name="guillemotright" unicode="&#xbb;" horiz-adv-x="545" 
d="M320 58l-38 80l125 137l-125 137l38 81l188 -162v-111zM88 58l-38 80l125 137l-125 137l38 81l188 -162v-111z" />
    <glyph glyph-name="onequarter" unicode="&#xbc;" horiz-adv-x="840" 
d="M771 0h-86v71h-173v75l153 223h106v-231h49v-67h-49v-71zM685 138v137h-6l-95 -137h101zM226 0h-96l517 698h96zM324 329h-273v70h97v218l-86 -41l-35 63l116 59h95v-299h86v-70z" />
    <glyph glyph-name="onehalf" unicode="&#xbd;" horiz-adv-x="863" 
d="M226 0h-96l517 698h96zM324 329h-273v70h97v218l-86 -41l-35 63l116 59h95v-299h86v-70zM834 73v-73h-283v79l115 89q36 28 50.5 46.5t14.5 41.5v2q0 41 -50 41q-46 0 -61 -49l-79 30q35 95 149 95q64 0 101 -31t37 -81q0 -45 -29 -78.5t-80 -65.5l-70 -46h185z" />
    <glyph glyph-name="threequarters" unicode="&#xbe;" horiz-adv-x="827" 
d="M758 0h-86v71h-173v75l153 223h106v-231h49v-67h-49v-71zM672 138v137h-6l-95 -137h101zM213 0h-96l517 698h96zM116 554h36q58 0 58 35v4q0 18 -13.5 29.5t-37.5 11.5q-48 0 -81 -44l-56 52q52 62 140 62q66 0 105 -27t39 -72q0 -34 -21.5 -55.5t-54.5 -26.5v-4
q37 -6 59.5 -28.5t22.5 -58.5q0 -50 -42 -79.5t-111 -29.5q-101 0 -149 72l67 51q30 -53 82 -53q27 0 42.5 13t15.5 34v3q0 39 -65 39h-36v72z" />
    <glyph glyph-name="questiondown" unicode="&#xbf;" horiz-adv-x="486" 
d="M254 -188q-101 0 -162.5 55.5t-61.5 145.5q0 83 51.5 136t126.5 65v83h121v-157q-163 -6 -163 -115v-14q0 -41 25 -64.5t67 -23.5q43 0 72 26t39 68l108 -44q-20 -69 -75.5 -115t-147.5 -46zM268 372q-41 0 -61 19.5t-20 51.5v21q0 32 20 51t61 19q40 0 60 -19t20 -51
v-21q0 -32 -20 -51.5t-60 -19.5z" />
    <glyph glyph-name="Agrave" unicode="&#xc0;" horiz-adv-x="672" 
d="M321 744l-126 171l108 54l95 -187zM651 0h-137l-56 178h-248l-55 -178h-134l234 699h164zM426 291l-90 287h-5l-89 -287h184z" />
    <glyph glyph-name="Aacute" unicode="&#xc1;" horiz-adv-x="672" 
d="M473 915l-126 -171l-77 38l95 187zM651 0h-137l-56 178h-248l-55 -178h-134l234 699h164zM426 291l-90 287h-5l-89 -287h184z" />
    <glyph glyph-name="Acircumflex" unicode="&#xc2;" horiz-adv-x="672" 
d="M276 950h116l126 -154l-64 -51l-120 116l-120 -116l-64 51zM651 0h-137l-56 178h-248l-55 -178h-134l234 699h164zM426 291l-90 287h-5l-89 -287h184z" />
    <glyph glyph-name="Atilde" unicode="&#xc3;" horiz-adv-x="672" 
d="M409 768q-30 0 -78 22q-51 22 -75 22q-28 0 -59 -25l-47 59q41 61 109 61q30 0 78 -22q51 -22 75 -22q28 0 59 25l47 -59q-41 -61 -109 -61zM651 0h-137l-56 178h-248l-55 -178h-134l234 699h164zM426 291l-90 287h-5l-89 -287h184z" />
    <glyph glyph-name="Adieresis" unicode="&#xc4;" horiz-adv-x="672" 
d="M229 769q-71 0 -71 58v21q0 59 71 59t71 -59v-21q0 -58 -71 -58zM439 769q-71 0 -71 58v21q0 59 71 59t71 -59v-21q0 -58 -71 -58zM651 0h-137l-56 178h-248l-55 -178h-134l234 699h164zM426 291l-90 287h-5l-89 -287h184z" />
    <glyph glyph-name="Aring" unicode="&#xc5;" horiz-adv-x="672" 
d="M334 727q-59 0 -99 38.5t-40 96.5t40 96t99 38t99 -38t40 -96t-40 -96.5t-99 -38.5zM334 794q25 0 39 14t14 38v31q0 24 -14 38t-39 14t-39 -14t-14 -38v-31q0 -24 14 -38t39 -14zM651 0h-137l-56 178h-248l-55 -178h-134l234 699h164zM426 291l-90 287h-5l-89 -287h184z
" />
    <glyph glyph-name="AE" unicode="&#xc6;" horiz-adv-x="950" 
d="M432 0v178h-214l-85 -178h-133l346 698h546v-117h-329v-169h291v-117h-291v-178h329v-117h-460zM432 581h-20l-141 -291h161v291z" />
    <glyph glyph-name="Ccedilla" unicode="&#xc7;" horiz-adv-x="642" 
d="M353 593q-74 0 -117.5 -50.5t-43.5 -139.5v-110q0 -89 43.5 -138.5t117.5 -49.5q110 0 151 111l107 -63q-78 -162 -248 -165l-9 -45l4 -3q22 6 45 6q32 0 51.5 -17t19.5 -51q0 -46 -35.5 -67.5t-89.5 -21.5q-82 0 -117 44l44 51q22 -29 64 -29q44 0 44 27q0 32 -73 41
l-23 2l14 67q-118 15 -184 105t-66 247q0 174 80.5 270t220.5 96q182 0 255 -161l-113 -60q-34 104 -142 104z" />
    <glyph glyph-name="Egrave" unicode="&#xc8;" 
d="M542 0h-460v698h460v-117h-328v-169h290v-117h-290v-178h328v-117zM299 744l-126 171l108 54l95 -187z" />
    <glyph glyph-name="Eacute" unicode="&#xc9;" 
d="M451 915l-126 -171l-77 38l95 187zM542 0h-460v698h460v-117h-328v-169h290v-117h-290v-178h328v-117z" />
    <glyph glyph-name="Ecircumflex" unicode="&#xca;" 
d="M542 0h-460v698h460v-117h-328v-169h290v-117h-290v-178h328v-117zM254 950h116l126 -154l-64 -51l-120 116l-120 -116l-64 51z" />
    <glyph glyph-name="Edieresis" unicode="&#xcb;" 
d="M207 769q-71 0 -71 58v21q0 59 71 59t71 -59v-21q0 -58 -71 -58zM417 769q-71 0 -71 58v21q0 59 71 59t71 -59v-21q0 -58 -71 -58zM542 0h-460v698h460v-117h-328v-169h290v-117h-290v-178h328v-117z" />
    <glyph glyph-name="Igrave" unicode="&#xcc;" horiz-adv-x="423" 
d="M198 744l-126 171l108 54l95 -187zM370 0h-317v106h92v486h-92v106h317v-106h-93v-486h93v-106z" />
    <glyph glyph-name="Iacute" unicode="&#xcd;" horiz-adv-x="423" 
d="M350 915l-126 -171l-77 38l95 187zM370 0h-317v106h92v486h-92v106h317v-106h-93v-486h93v-106z" />
    <glyph glyph-name="Icircumflex" unicode="&#xce;" horiz-adv-x="423" 
d="M153 950h116l126 -154l-64 -51l-120 116l-120 -116l-64 51zM370 0h-317v106h92v486h-92v106h317v-106h-93v-486h93v-106z" />
    <glyph glyph-name="Idieresis" unicode="&#xcf;" horiz-adv-x="423" 
d="M106 769q-71 0 -71 58v21q0 59 71 59t71 -59v-21q0 -58 -71 -58zM316 769q-71 0 -71 58v21q0 59 71 59t71 -59v-21q0 -58 -71 -58zM370 0h-317v106h92v486h-92v106h317v-106h-93v-486h93v-106z" />
    <glyph glyph-name="Eth" unicode="&#xd0;" horiz-adv-x="694" 
d="M86 0v309h-76v99h76v290h255q139 0 219.5 -89.5t80.5 -259.5t-80.5 -259.5t-219.5 -89.5h-255zM218 117h123q75 0 117.5 45t42.5 132v110q0 87 -42.5 132t-117.5 45h-123v-173h124v-99h-124v-192z" />
    <glyph glyph-name="Ntilde" unicode="&#xd1;" horiz-adv-x="719" 
d="M492 0l-210 358l-72 145h-3v-503h-125v698h145l210 -358l72 -145h3v503h125v-698h-145zM434 768q-30 0 -78 22q-51 22 -75 22q-28 0 -59 -25l-47 59q41 61 109 61q30 0 78 -22q51 -22 75 -22q28 0 59 25l47 -59q-41 -61 -109 -61z" />
    <glyph glyph-name="Ograve" unicode="&#xd2;" horiz-adv-x="712" 
d="M356 -12q-140 0 -222 93.5t-82 267.5t82 267.5t222 93.5q141 0 222.5 -93.5t81.5 -267.5t-81.5 -267.5t-222.5 -93.5zM356 105q75 0 119.5 50.5t44.5 139.5v108q0 89 -44.5 139.5t-119.5 50.5t-119.5 -50.5t-44.5 -139.5v-108q0 -89 44.5 -139.5t119.5 -50.5zM343 744
l-126 171l108 54l95 -187z" />
    <glyph glyph-name="Oacute" unicode="&#xd3;" horiz-adv-x="712" 
d="M356 -12q-140 0 -222 93.5t-82 267.5t82 267.5t222 93.5q141 0 222.5 -93.5t81.5 -267.5t-81.5 -267.5t-222.5 -93.5zM356 105q75 0 119.5 50.5t44.5 139.5v108q0 89 -44.5 139.5t-119.5 50.5t-119.5 -50.5t-44.5 -139.5v-108q0 -89 44.5 -139.5t119.5 -50.5zM495 915
l-126 -171l-77 38l95 187z" />
    <glyph glyph-name="Ocircumflex" unicode="&#xd4;" horiz-adv-x="712" 
d="M356 -12q-140 0 -222 93.5t-82 267.5t82 267.5t222 93.5q141 0 222.5 -93.5t81.5 -267.5t-81.5 -267.5t-222.5 -93.5zM356 105q75 0 119.5 50.5t44.5 139.5v108q0 89 -44.5 139.5t-119.5 50.5t-119.5 -50.5t-44.5 -139.5v-108q0 -89 44.5 -139.5t119.5 -50.5zM298 950
h116l126 -154l-64 -51l-120 116l-120 -116l-64 51z" />
    <glyph glyph-name="Otilde" unicode="&#xd5;" horiz-adv-x="712" 
d="M431 768q-30 0 -78 22q-51 22 -75 22q-28 0 -59 -25l-47 59q41 61 109 61q30 0 78 -22q51 -22 75 -22q28 0 59 25l47 -59q-41 -61 -109 -61zM356 -12q-140 0 -222 93.5t-82 267.5t82 267.5t222 93.5q141 0 222.5 -93.5t81.5 -267.5t-81.5 -267.5t-222.5 -93.5zM356 105
q75 0 119.5 50.5t44.5 139.5v108q0 89 -44.5 139.5t-119.5 50.5t-119.5 -50.5t-44.5 -139.5v-108q0 -89 44.5 -139.5t119.5 -50.5z" />
    <glyph glyph-name="Odieresis" unicode="&#xd6;" horiz-adv-x="712" 
d="M251 769q-71 0 -71 58v21q0 59 71 59t71 -59v-21q0 -58 -71 -58zM461 769q-71 0 -71 58v21q0 59 71 59t71 -59v-21q0 -58 -71 -58zM356 -12q-140 0 -222 93.5t-82 267.5t82 267.5t222 93.5q141 0 222.5 -93.5t81.5 -267.5t-81.5 -267.5t-222.5 -93.5zM356 105
q75 0 119.5 50.5t44.5 139.5v108q0 89 -44.5 139.5t-119.5 50.5t-119.5 -50.5t-44.5 -139.5v-108q0 -89 44.5 -139.5t119.5 -50.5z" />
    <glyph glyph-name="multiply" unicode="&#xd7;" 
d="M445 77l-145 152l-145 -152l-72 73l145 151l-145 151l72 72l145 -151l145 151l72 -72l-145 -151l145 -151z" />
    <glyph glyph-name="Oslash" unicode="&#xd8;" horiz-adv-x="712" 
d="M356 -12q-88 0 -157 40l-55 -81l-81 53l63 92q-74 92 -74 257q0 174 82 267.5t222 93.5q89 0 157 -40l55 81l82 -53l-63 -92q73 -93 73 -257q0 -174 -81.5 -267.5t-222.5 -93.5zM188 293q0 -55 18 -97l245 377q-38 27 -95 27q-78 0 -123 -52t-45 -143v-112zM525 405
q0 51 -18 97l-246 -377q37 -27 95 -27q78 0 123.5 52t45.5 143v112z" />
    <glyph glyph-name="Ugrave" unicode="&#xd9;" horiz-adv-x="689" 
d="M77 698h130v-429q0 -84 32.5 -124t105.5 -40t105.5 40t32.5 124v429h130v-412q0 -156 -62 -227t-207 -71t-206 71t-61 227v412zM331 744l-126 171l108 54l95 -187z" />
    <glyph glyph-name="Uacute" unicode="&#xda;" horiz-adv-x="689" 
d="M483 915l-126 -171l-77 38l95 187zM77 698h130v-429q0 -84 32.5 -124t105.5 -40t105.5 40t32.5 124v429h130v-412q0 -156 -62 -227t-207 -71t-206 71t-61 227v412z" />
    <glyph glyph-name="Ucircumflex" unicode="&#xdb;" horiz-adv-x="689" 
d="M77 698h130v-429q0 -84 32.5 -124t105.5 -40t105.5 40t32.5 124v429h130v-412q0 -156 -62 -227t-207 -71t-206 71t-61 227v412zM286 950h116l126 -154l-64 -51l-120 116l-120 -116l-64 51z" />
    <glyph glyph-name="Udieresis" unicode="&#xdc;" horiz-adv-x="689" 
d="M239 769q-71 0 -71 58v21q0 59 71 59t71 -59v-21q0 -58 -71 -58zM449 769q-71 0 -71 58v21q0 59 71 59t71 -59v-21q0 -58 -71 -58zM77 698h130v-429q0 -84 32.5 -124t105.5 -40t105.5 40t32.5 124v429h130v-412q0 -156 -62 -227t-207 -71t-206 71t-61 227v412z" />
    <glyph glyph-name="Yacute" unicode="&#xdd;" horiz-adv-x="632" 
d="M456 915l-126 -171l-77 38l95 187zM382 0h-133v274l-239 424h148l161 -295h2l157 295h144l-240 -423v-275z" />
    <glyph glyph-name="Thorn" unicode="&#xde;" horiz-adv-x="641" 
d="M214 0h-132v698h132v-127h182q95 0 151 -59.5t56 -156.5t-55.5 -157t-151.5 -60h-182v-138zM214 456v-202h170q39 0 60.5 20.5t21.5 57.5v46q0 37 -21.5 57.5t-60.5 20.5h-170z" />
    <glyph glyph-name="germandbls" unicode="&#xdf;" horiz-adv-x="677" 
d="M651 166q0 -82 -52 -130t-138 -48q-126 0 -183 78l75 74q44 -54 108 -54q33 0 52 17t19 48q0 26 -15 42t-52 27l-31 9q-59 17 -90.5 51t-31.5 95q0 62 40 101.5t112 50.5v3q0 124 -118 124t-118 -124v-530h-128v421h-77v101h77v5q0 104 66.5 164.5t176.5 60.5t175 -60
t65 -164v-86h-53q-52 0 -75.5 -13t-23.5 -44q0 -26 15.5 -39t51.5 -24l31 -10q61 -18 91.5 -53t30.5 -93z" />
    <glyph glyph-name="agrave" unicode="&#xe0;" horiz-adv-x="559" 
d="M250 581l-126 171l108 53l95 -187zM203 -12q-78 0 -122 41.5t-44 112.5q0 79 57.5 119.5t165.5 40.5h89v38q0 92 -97 92q-73 0 -119 -66l-76 68q63 100 204 100q105 0 160.5 -48t55.5 -138v-246h52v-102h-71q-40 0 -65.5 24.5t-31.5 65.5h-6q-13 -50 -53 -76t-99 -26z
M246 81q45 0 74 20t29 55v69h-82q-100 0 -100 -64v-17q0 -63 79 -63z" />
    <glyph glyph-name="aacute" unicode="&#xe1;" horiz-adv-x="559" 
d="M402 752l-126 -171l-77 37l95 187zM203 -12q-78 0 -122 41.5t-44 112.5q0 79 57.5 119.5t165.5 40.5h89v38q0 92 -97 92q-73 0 -119 -66l-76 68q63 100 204 100q105 0 160.5 -48t55.5 -138v-246h52v-102h-71q-40 0 -65.5 24.5t-31.5 65.5h-6q-13 -50 -53 -76t-99 -26z
M246 81q45 0 74 20t29 55v69h-82q-100 0 -100 -64v-17q0 -63 79 -63z" />
    <glyph glyph-name="acircumflex" unicode="&#xe2;" horiz-adv-x="559" 
d="M205 786h116l126 -154l-64 -50l-120 115l-120 -115l-64 50zM203 -12q-78 0 -122 41.5t-44 112.5q0 79 57.5 119.5t165.5 40.5h89v38q0 92 -97 92q-73 0 -119 -66l-76 68q63 100 204 100q105 0 160.5 -48t55.5 -138v-246h52v-102h-71q-40 0 -65.5 24.5t-31.5 65.5h-6
q-13 -50 -53 -76t-99 -26zM246 81q45 0 74 20t29 55v69h-82q-100 0 -100 -64v-17q0 -63 79 -63z" />
    <glyph glyph-name="atilde" unicode="&#xe3;" horiz-adv-x="559" 
d="M338 604q-30 0 -78 22q-53 23 -75 23q-27 0 -59 -26l-47 60q43 61 109 61q30 0 78 -22q49 -23 75 -23q27 0 59 26l47 -60q-43 -61 -109 -61zM203 -12q-78 0 -122 41.5t-44 112.5q0 79 57.5 119.5t165.5 40.5h89v38q0 92 -97 92q-73 0 -119 -66l-76 68q63 100 204 100
q105 0 160.5 -48t55.5 -138v-246h52v-102h-71q-40 0 -65.5 24.5t-31.5 65.5h-6q-13 -50 -53 -76t-99 -26zM246 81q45 0 74 20t29 55v69h-82q-100 0 -100 -64v-17q0 -63 79 -63z" />
    <glyph glyph-name="adieresis" unicode="&#xe4;" horiz-adv-x="559" 
d="M158 605q-71 0 -71 58v21q0 58 71 58t71 -58v-21q0 -58 -71 -58zM368 605q-71 0 -71 58v21q0 58 71 58t71 -58v-21q0 -58 -71 -58zM203 -12q-78 0 -122 41.5t-44 112.5q0 79 57.5 119.5t165.5 40.5h89v38q0 92 -97 92q-73 0 -119 -66l-76 68q63 100 204 100
q105 0 160.5 -48t55.5 -138v-246h52v-102h-71q-40 0 -65.5 24.5t-31.5 65.5h-6q-13 -50 -53 -76t-99 -26zM246 81q45 0 74 20t29 55v69h-82q-100 0 -100 -64v-17q0 -63 79 -63z" />
    <glyph glyph-name="aring" unicode="&#xe5;" horiz-adv-x="559" 
d="M263 563q-59 0 -99 38.5t-40 96.5t40 96.5t99 38.5t99 -38.5t40 -96.5t-40 -96.5t-99 -38.5zM263 631q53 0 53 52v30q0 52 -53 52t-53 -52v-30q0 -52 53 -52zM203 -12q-78 0 -122 41.5t-44 112.5q0 79 57.5 119.5t165.5 40.5h89v38q0 92 -97 92q-73 0 -119 -66l-76 68
q63 100 204 100q105 0 160.5 -48t55.5 -138v-246h52v-102h-71q-40 0 -65.5 24.5t-31.5 65.5h-6q-13 -50 -53 -76t-99 -26zM246 81q45 0 74 20t29 55v69h-82q-100 0 -100 -64v-17q0 -63 79 -63z" />
    <glyph glyph-name="ae" unicode="&#xe6;" horiz-adv-x="864" 
d="M349 229h-82q-100 -2 -100 -66v-16q0 -66 80 -66q43 0 72.5 20t29.5 55v73zM478 308h214v9q0 55 -27 88t-76 33q-50 0 -80.5 -34t-30.5 -88v-8zM607 92q80 0 133 69l69 -77q-70 -96 -213 -96q-73 0 -127.5 31.5t-72.5 75.5h-6q-15 -45 -62.5 -76t-124.5 -31t-121.5 42.5
t-44.5 112.5q0 80 59.5 122.5t163.5 42.5h89v32q0 92 -96 92q-75 0 -120 -66l-76 68q63 100 204 100q106 0 152 -86h6q20 38 66.5 62t106.5 24q115 0 174 -74t59 -189v-42h-348v-13q0 -56 34.5 -90t95.5 -34z" />
    <glyph glyph-name="ccedilla" unicode="&#xe7;" horiz-adv-x="513" 
d="M280 534q155 0 205 -132l-105 -47q-21 76 -100 76q-52 0 -79.5 -33.5t-27.5 -89.5v-95q0 -56 27.5 -89t79.5 -33q77 0 110 82l98 -47q-48 -132 -195 -138l-9 -45l4 -3q22 6 45 6q32 0 52 -17t20 -51q0 -46 -36 -67.5t-90 -21.5q-82 0 -117 44l44 51q24 -29 64 -29
q44 0 44 27q0 33 -73 41l-23 2l14 67q-92 15 -142.5 86t-50.5 184q0 127 63.5 199.5t177.5 72.5z" />
    <glyph glyph-name="egrave" unicode="&#xe8;" horiz-adv-x="558" 
d="M272 581l-126 171l108 53l95 -187zM285 -12q-115 0 -180.5 74t-65.5 200q0 125 64 198.5t178 73.5q116 0 177 -74.5t61 -188.5v-42h-347v-13q0 -58 32.5 -92t94.5 -34q78 0 133 71l69 -77q-70 -96 -216 -96zM283 438q-50 0 -80.5 -34t-30.5 -88v-8h214v9q0 55 -27 88
t-76 33z" />
    <glyph glyph-name="eacute" unicode="&#xe9;" horiz-adv-x="558" 
d="M285 -12q-115 0 -180.5 74t-65.5 200q0 125 64 198.5t178 73.5q116 0 177 -74.5t61 -188.5v-42h-347v-13q0 -58 32.5 -92t94.5 -34q78 0 133 71l69 -77q-70 -96 -216 -96zM283 438q-50 0 -80.5 -34t-30.5 -88v-8h214v9q0 55 -27 88t-76 33zM424 752l-126 -171l-77 37
l95 187z" />
    <glyph glyph-name="ecircumflex" unicode="&#xea;" horiz-adv-x="558" 
d="M285 -12q-115 0 -180.5 74t-65.5 200q0 125 64 198.5t178 73.5q116 0 177 -74.5t61 -188.5v-42h-347v-13q0 -58 32.5 -92t94.5 -34q78 0 133 71l69 -77q-70 -96 -216 -96zM283 438q-50 0 -80.5 -34t-30.5 -88v-8h214v9q0 55 -27 88t-76 33zM227 786h116l126 -154l-64 -50
l-120 115l-120 -115l-64 50z" />
    <glyph glyph-name="edieresis" unicode="&#xeb;" horiz-adv-x="558" 
d="M285 -12q-115 0 -180.5 74t-65.5 200q0 125 64 198.5t178 73.5q116 0 177 -74.5t61 -188.5v-42h-347v-13q0 -58 32.5 -92t94.5 -34q78 0 133 71l69 -77q-70 -96 -216 -96zM283 438q-50 0 -80.5 -34t-30.5 -88v-8h214v9q0 55 -27 88t-76 33zM180 605q-71 0 -71 58v21
q0 58 71 58t71 -58v-21q0 -58 -71 -58zM390 605q-71 0 -71 58v21q0 58 71 58t71 -58v-21q0 -58 -71 -58z" />
    <glyph glyph-name="igrave" unicode="&#xec;" horiz-adv-x="276" 
d="M125 581l-126 171l108 53l95 -187zM202 0h-128v522h128v-522z" />
    <glyph glyph-name="iacute" unicode="&#xed;" horiz-adv-x="276" 
d="M277 752l-126 -171l-77 37l95 187zM202 0h-128v522h128v-522z" />
    <glyph glyph-name="icircumflex" unicode="&#xee;" horiz-adv-x="276" 
d="M80 786h116l126 -154l-64 -50l-120 115l-120 -115l-64 50zM202 0h-128v522h128v-522z" />
    <glyph glyph-name="idieresis" unicode="&#xef;" horiz-adv-x="276" 
d="M33 605q-71 0 -71 58v21q0 58 71 58t71 -58v-21q0 -58 -71 -58zM243 605q-71 0 -71 58v21q0 58 71 58t71 -58v-21q0 -58 -71 -58zM202 0h-128v522h128v-522z" />
    <glyph glyph-name="eth" unicode="&#xf0;" horiz-adv-x="589" 
d="M416 753l45 -54l-74 -48q153 -158 153 -375q0 -144 -66 -216t-180 -72q-117 0 -184 71t-67 192q0 113 56.5 181.5t150.5 68.5q102 0 148 -98l6 3q-22 93 -116 185l-86 -54l-46 55l78 47q-62 51 -151 101h195q22 -14 54 -40zM292 86q53 0 84 34.5t31 94.5v58
q0 60 -31 94.5t-84 34.5q-54 0 -85 -34.5t-31 -94.5v-58q0 -60 31 -94.5t85 -34.5z" />
    <glyph glyph-name="ntilde" unicode="&#xf1;" horiz-adv-x="588" 
d="M371 604q-30 0 -78 22q-53 23 -75 23q-27 0 -59 -26l-47 60q43 61 109 61q30 0 78 -22q49 -23 75 -23q27 0 59 26l47 -60q-43 -61 -109 -61zM202 0h-128v522h128v-87h5q37 99 146 99q80 0 123.5 -53t43.5 -151v-330h-128v317q0 112 -86 112q-43 0 -73.5 -22t-30.5 -62
v-345z" />
    <glyph glyph-name="ograve" unicode="&#xf2;" horiz-adv-x="563" 
d="M268 581l-126 171l108 53l95 -187zM281 -12q-112 0 -177 74t-65 200q0 125 65 198.5t177 73.5t177.5 -73.5t65.5 -198.5q0 -126 -65.5 -200t-177.5 -74zM281 91q51 0 80 31.5t29 90.5v97q0 58 -29 89.5t-80 31.5q-50 0 -79 -31.5t-29 -89.5v-97q0 -58 29 -90t79 -32z" />
    <glyph glyph-name="oacute" unicode="&#xf3;" horiz-adv-x="563" 
d="M281 -12q-112 0 -177 74t-65 200q0 125 65 198.5t177 73.5t177.5 -73.5t65.5 -198.5q0 -126 -65.5 -200t-177.5 -74zM281 91q51 0 80 31.5t29 90.5v97q0 58 -29 89.5t-80 31.5q-50 0 -79 -31.5t-29 -89.5v-97q0 -58 29 -90t79 -32zM420 752l-126 -171l-77 37l95 187z" />
    <glyph glyph-name="ocircumflex" unicode="&#xf4;" horiz-adv-x="563" 
d="M281 -12q-112 0 -177 74t-65 200q0 125 65 198.5t177 73.5t177.5 -73.5t65.5 -198.5q0 -126 -65.5 -200t-177.5 -74zM281 91q51 0 80 31.5t29 90.5v97q0 58 -29 89.5t-80 31.5q-50 0 -79 -31.5t-29 -89.5v-97q0 -58 29 -90t79 -32zM223 786h116l126 -154l-64 -50
l-120 115l-120 -115l-64 50z" />
    <glyph glyph-name="otilde" unicode="&#xf5;" horiz-adv-x="563" 
d="M356 604q-30 0 -78 22q-53 23 -75 23q-27 0 -59 -26l-47 60q43 61 109 61q30 0 78 -22q49 -23 75 -23q27 0 59 26l47 -60q-43 -61 -109 -61zM281 -12q-112 0 -177 74t-65 200q0 125 65 198.5t177 73.5t177.5 -73.5t65.5 -198.5q0 -126 -65.5 -200t-177.5 -74zM281 91
q51 0 80 31.5t29 90.5v97q0 58 -29 89.5t-80 31.5q-50 0 -79 -31.5t-29 -89.5v-97q0 -58 29 -90t79 -32z" />
    <glyph glyph-name="odieresis" unicode="&#xf6;" horiz-adv-x="563" 
d="M281 -12q-112 0 -177 74t-65 200q0 125 65 198.5t177 73.5t177.5 -73.5t65.5 -198.5q0 -126 -65.5 -200t-177.5 -74zM281 91q51 0 80 31.5t29 90.5v97q0 58 -29 89.5t-80 31.5q-50 0 -79 -31.5t-29 -89.5v-97q0 -58 29 -90t79 -32zM176 605q-71 0 -71 58v21q0 58 71 58
t71 -58v-21q0 -58 -71 -58zM386 605q-71 0 -71 58v21q0 58 71 58t71 -58v-21q0 -58 -71 -58z" />
    <glyph glyph-name="divide" unicode="&#xf7;" 
d="M533 254h-466v103h466v-103zM300 35q-40 0 -60 17.5t-20 45.5v23q0 28 20 45.5t60 17.5t60 -17.5t20 -45.5v-23q0 -28 -20 -45.5t-60 -17.5zM300 426q-40 0 -60 17.5t-20 45.5v23q0 28 20 45.5t60 17.5t60 -17.5t20 -45.5v-23q0 -28 -20 -45.5t-60 -17.5z" />
    <glyph glyph-name="oslash" unicode="&#xf8;" horiz-adv-x="571" 
d="M90 -47l-70 52l67 84q-44 68 -44 173q0 125 65 198.5t177 73.5q79 0 135 -38l61 73l70 -52l-68 -84q45 -70 45 -172q0 -126 -65.5 -199.5t-177.5 -73.5q-78 0 -135 37zM285 85q52 0 82 35t30 96v120l-186 -225q29 -26 74 -26zM175 306v-117l184 222q-29 26 -74 26
q-51 0 -80.5 -35t-29.5 -96z" />
    <glyph glyph-name="ugrave" unicode="&#xf9;" horiz-adv-x="588" 
d="M278 581l-126 171l108 53l95 -187zM386 0v87h-5q-34 -99 -146 -99q-80 0 -123.5 53t-43.5 151v330h128v-317q0 -111 88 -111q42 0 72 21.5t30 61.5v345h128v-522h-128z" />
    <glyph glyph-name="uacute" unicode="&#xfa;" horiz-adv-x="588" 
d="M386 0v87h-5q-34 -99 -146 -99q-80 0 -123.5 53t-43.5 151v330h128v-317q0 -111 88 -111q42 0 72 21.5t30 61.5v345h128v-522h-128zM430 752l-126 -171l-77 37l95 187z" />
    <glyph glyph-name="ucircumflex" unicode="&#xfb;" horiz-adv-x="588" 
d="M386 0v87h-5q-34 -99 -146 -99q-80 0 -123.5 53t-43.5 151v330h128v-317q0 -111 88 -111q42 0 72 21.5t30 61.5v345h128v-522h-128zM233 786h116l126 -154l-64 -50l-120 115l-120 -115l-64 50z" />
    <glyph glyph-name="udieresis" unicode="&#xfc;" horiz-adv-x="588" 
d="M386 0v87h-5q-34 -99 -146 -99q-80 0 -123.5 53t-43.5 151v330h128v-317q0 -111 88 -111q42 0 72 21.5t30 61.5v345h128v-522h-128zM186 605q-71 0 -71 58v21q0 58 71 58t71 -58v-21q0 -58 -71 -58zM396 605q-71 0 -71 58v21q0 58 71 58t71 -58v-21q0 -58 -71 -58z" />
    <glyph glyph-name="yacute" unicode="&#xfd;" horiz-adv-x="524" 
d="M404 752l-126 -171l-77 37l95 187zM303 246l91 276h120l-210 -615q-20 -58 -53 -82.5t-96 -24.5h-77v102h94l24 73l-187 547h127l91 -276l34 -132h6z" />
    <glyph glyph-name="thorn" unicode="&#xfe;" 
d="M74 -200v940h128v-304h4q14 45 53 71.5t91 26.5q99 0 152 -70.5t53 -201.5q0 -132 -53 -203t-152 -71q-51 0 -90 27t-54 72h-4v-287h-128zM309 94q50 0 81 33.5t31 88.5v90q0 55 -31 89t-81 34q-46 0 -76.5 -23t-30.5 -61v-166q0 -40 30 -62.5t77 -22.5z" />
    <glyph glyph-name="ydieresis" unicode="&#xff;" horiz-adv-x="524" 
d="M160 605q-71 0 -71 58v21q0 58 71 58t71 -58v-21q0 -58 -71 -58zM370 605q-71 0 -71 58v21q0 58 71 58t71 -58v-21q0 -58 -71 -58zM303 246l91 276h120l-210 -615q-20 -58 -53 -82.5t-96 -24.5h-77v102h94l24 73l-187 547h127l91 -276l34 -132h6z" />
    <glyph glyph-name="Amacron" unicode="&#x100;" horiz-adv-x="672" 
d="M185 791v93h298v-93h-298zM651 0h-137l-56 178h-248l-55 -178h-134l234 699h164zM426 291l-90 287h-5l-89 -287h184z" />
    <glyph glyph-name="amacron" unicode="&#x101;" horiz-adv-x="559" 
d="M114 628v93h298v-93h-298zM203 -12q-78 0 -122 41.5t-44 112.5q0 79 57.5 119.5t165.5 40.5h89v38q0 92 -97 92q-73 0 -119 -66l-76 68q63 100 204 100q105 0 160.5 -48t55.5 -138v-246h52v-102h-71q-40 0 -65.5 24.5t-31.5 65.5h-6q-13 -50 -53 -76t-99 -26zM246 81
q45 0 74 20t29 55v69h-82q-100 0 -100 -64v-17q0 -63 79 -63z" />
    <glyph glyph-name="Abreve" unicode="&#x102;" horiz-adv-x="672" 
d="M334 748q-41 0 -73 14t-52 39.5t-32 49t-22 53.5l71 36l19 -32q22 -36 41 -52.5t48 -16.5t48.5 16.5t41.5 52.5l19 32l70 -36q-51 -156 -179 -156zM651 0h-137l-56 178h-248l-55 -178h-134l234 699h164zM426 291l-90 287h-5l-89 -287h184z" />
    <glyph glyph-name="abreve" unicode="&#x103;" horiz-adv-x="559" 
d="M263 584q-41 0 -72.5 14t-52 40t-32 49t-22.5 54l71 36l20 -33q22 -36 41 -52.5t47 -16.5t47.5 16.5t41.5 52.5l20 33l70 -36q-54 -157 -179 -157zM203 -12q-78 0 -122 41.5t-44 112.5q0 79 57.5 119.5t165.5 40.5h89v38q0 92 -97 92q-73 0 -119 -66l-76 68
q63 100 204 100q105 0 160.5 -48t55.5 -138v-246h52v-102h-71q-40 0 -65.5 24.5t-31.5 65.5h-6q-13 -50 -53 -76t-99 -26zM246 81q45 0 74 20t29 55v69h-82q-100 0 -100 -64v-17q0 -63 79 -63z" />
    <glyph glyph-name="Aogonek" unicode="&#x104;" horiz-adv-x="672" 
d="M568 -211q-51 0 -83.5 20t-32.5 63q0 38 28.5 66.5t85.5 57.5l-1 4h-51l-56 178h-248l-55 -178h-134l234 699h164l232 -699q-66 -46 -87.5 -68.5t-21.5 -41.5q0 -32 36 -32q29 0 53 26l49 -47q-26 -48 -112 -48zM426 291l-90 287h-5l-89 -287h184z" />
    <glyph glyph-name="aogonek" unicode="&#x105;" horiz-adv-x="559" 
d="M529 102v-102q-66 -46 -87.5 -68.5t-21.5 -41.5q0 -32 36 -32q29 0 53 26l49 -47q-26 -48 -112 -48q-51 0 -83.5 20t-32.5 63q0 38 28.5 66.5t85.5 58.5l-1 4q-34 4 -55.5 28t-26.5 61h-6q-13 -50 -53 -76t-99 -26q-78 0 -122 41.5t-44 112.5q0 79 57.5 119.5t165.5 40.5
h89v38q0 92 -97 92q-73 0 -119 -66l-76 68q63 100 204 100q105 0 160.5 -48t55.5 -138v-246h52zM349 225h-82q-100 0 -100 -64v-17q0 -63 79 -63q45 0 74 20t29 55v69z" />
    <glyph glyph-name="Cacute" unicode="&#x106;" horiz-adv-x="642" 
d="M489 915l-126 -171l-77 38l95 187zM353 -12q-141 0 -221 91.5t-80 264.5q0 174 80.5 270t220.5 96q182 0 255 -161l-113 -60q-34 104 -142 104q-74 0 -117.5 -50.5t-43.5 -139.5v-110q0 -89 43.5 -138.5t117.5 -49.5q110 0 151 111l107 -63q-79 -165 -258 -165z" />
    <glyph glyph-name="cacute" unicode="&#x107;" horiz-adv-x="513" 
d="M280 -12q-114 0 -177.5 73.5t-63.5 200.5t63.5 199.5t177.5 72.5q155 0 205 -132l-105 -47q-21 76 -100 76q-52 0 -79.5 -33.5t-27.5 -89.5v-95q0 -56 27.5 -89t79.5 -33q77 0 110 82l98 -47q-51 -138 -208 -138zM414 752l-126 -171l-77 37l95 187z" />
    <glyph glyph-name="Ccircumflex" unicode="&#x108;" horiz-adv-x="642" 
d="M292 950h116l126 -154l-64 -51l-120 116l-120 -116l-64 51zM353 -12q-141 0 -221 91.5t-80 264.5q0 174 80.5 270t220.5 96q182 0 255 -161l-113 -60q-34 104 -142 104q-74 0 -117.5 -50.5t-43.5 -139.5v-110q0 -89 43.5 -138.5t117.5 -49.5q110 0 151 111l107 -63
q-79 -165 -258 -165z" />
    <glyph glyph-name="ccircumflex" unicode="&#x109;" horiz-adv-x="513" 
d="M280 -12q-114 0 -177.5 73.5t-63.5 200.5t63.5 199.5t177.5 72.5q155 0 205 -132l-105 -47q-21 76 -100 76q-52 0 -79.5 -33.5t-27.5 -89.5v-95q0 -56 27.5 -89t79.5 -33q77 0 110 82l98 -47q-51 -138 -208 -138zM217 786h116l126 -154l-64 -50l-120 115l-120 -115
l-64 50z" />
    <glyph glyph-name="Cdotaccent" unicode="&#x10a;" horiz-adv-x="642" 
d="M353 -12q-141 0 -221 91.5t-80 264.5q0 174 80.5 270t220.5 96q182 0 255 -161l-113 -60q-34 104 -142 104q-74 0 -117.5 -50.5t-43.5 -139.5v-110q0 -89 43.5 -138.5t117.5 -49.5q110 0 151 111l107 -63q-79 -165 -258 -165zM350 760q-79 0 -79 65v25q0 65 79 65t79 -65
v-25q0 -65 -79 -65z" />
    <glyph glyph-name="cdotaccent" unicode="&#x10b;" horiz-adv-x="513" 
d="M275 598q-78 0 -78 63v24q0 63 78 63t78 -63v-24q0 -63 -78 -63zM280 -12q-114 0 -177.5 73.5t-63.5 200.5t63.5 199.5t177.5 72.5q155 0 205 -132l-105 -47q-21 76 -100 76q-52 0 -79.5 -33.5t-27.5 -89.5v-95q0 -56 27.5 -89t79.5 -33q77 0 110 82l98 -47
q-51 -138 -208 -138z" />
    <glyph glyph-name="Ccaron" unicode="&#x10c;" horiz-adv-x="642" 
d="M408 754h-116l-126 154l64 51l120 -116l120 116l64 -51zM353 -12q-141 0 -221 91.5t-80 264.5q0 174 80.5 270t220.5 96q182 0 255 -161l-113 -60q-34 104 -142 104q-74 0 -117.5 -50.5t-43.5 -139.5v-110q0 -89 43.5 -138.5t117.5 -49.5q110 0 151 111l107 -63
q-79 -165 -258 -165z" />
    <glyph glyph-name="ccaron" unicode="&#x10d;" horiz-adv-x="513" 
d="M280 -12q-114 0 -177.5 73.5t-63.5 200.5t63.5 199.5t177.5 72.5q155 0 205 -132l-105 -47q-21 76 -100 76q-52 0 -79.5 -33.5t-27.5 -89.5v-95q0 -56 27.5 -89t79.5 -33q77 0 110 82l98 -47q-51 -138 -208 -138zM333 591h-116l-126 154l64 50l120 -116l120 116l64 -50z
" />
    <glyph glyph-name="Dcaron" unicode="&#x10e;" horiz-adv-x="689" 
d="M376 754h-116l-126 154l64 51l120 -116l120 116l64 -51zM82 0v698h254q140 0 220.5 -89.5t80.5 -259.5t-80.5 -259.5t-220.5 -89.5h-254zM214 117h122q75 0 118 45t43 132v110q0 87 -43 132t-118 45h-122v-464z" />
    <glyph glyph-name="dcaron" unicode="&#x10f;" 
d="M734 740l-62 -206h-84l8 206h138zM398 0v87h-5q-14 -45 -53.5 -72t-90.5 -27q-98 0 -151 71.5t-53 202.5t53 201.5t151 70.5q52 0 91.5 -26.5t52.5 -71.5h5v304h128v-740h-128zM290 94q47 0 77.5 23t30.5 62v166q0 38 -30.5 61t-77.5 23q-50 0 -80.5 -34t-30.5 -89v-90
q0 -55 30.5 -88.5t80.5 -33.5z" />
    <glyph glyph-name="Dcroat" unicode="&#x110;" horiz-adv-x="694" 
d="M86 0v309h-76v99h76v290h255q139 0 219.5 -89.5t80.5 -259.5t-80.5 -259.5t-219.5 -89.5h-255zM218 117h123q75 0 117.5 45t42.5 132v110q0 87 -42.5 132t-117.5 45h-123v-173h124v-99h-124v-192z" />
    <glyph glyph-name="dcroat" unicode="&#x111;" 
d="M398 0v87h-5q-14 -45 -53.5 -72t-90.5 -27q-98 0 -151 71.5t-53 202.5t53 201.5t151 70.5q52 0 91.5 -26.5t52.5 -71.5h5v159h-144v89h144v56h128v-56h62v-89h-62v-595h-128zM290 94q47 0 77.5 23t30.5 62v166q0 38 -30.5 61t-77.5 23q-50 0 -80.5 -34t-30.5 -89v-90
q0 -55 30.5 -88.5t80.5 -33.5z" />
    <glyph glyph-name="Emacron" unicode="&#x112;" 
d="M163 791v93h298v-93h-298zM542 0h-460v698h460v-117h-328v-169h290v-117h-290v-178h328v-117z" />
    <glyph glyph-name="emacron" unicode="&#x113;" horiz-adv-x="558" 
d="M136 628v93h298v-93h-298zM285 -12q-115 0 -180.5 74t-65.5 200q0 125 64 198.5t178 73.5q116 0 177 -74.5t61 -188.5v-42h-347v-13q0 -58 32.5 -92t94.5 -34q78 0 133 71l69 -77q-70 -96 -216 -96zM283 438q-50 0 -80.5 -34t-30.5 -88v-8h214v9q0 55 -27 88t-76 33z" />
    <glyph glyph-name="Ebreve" unicode="&#x114;" 
d="M312 748q-41 0 -73 14t-52 39.5t-32 49t-22 53.5l71 36l19 -32q22 -36 41 -52.5t48 -16.5t48.5 16.5t41.5 52.5l19 32l70 -36q-51 -156 -179 -156zM542 0h-460v698h460v-117h-328v-169h290v-117h-290v-178h328v-117z" />
    <glyph glyph-name="ebreve" unicode="&#x115;" horiz-adv-x="558" 
d="M285 584q-41 0 -72.5 14t-52 40t-32 49t-22.5 54l71 36l20 -33q22 -36 41 -52.5t47 -16.5t47.5 16.5t41.5 52.5l20 33l70 -36q-54 -157 -179 -157zM285 -12q-115 0 -180.5 74t-65.5 200q0 125 64 198.5t178 73.5q116 0 177 -74.5t61 -188.5v-42h-347v-13q0 -58 32.5 -92
t94.5 -34q78 0 133 71l69 -77q-70 -96 -216 -96zM283 438q-50 0 -80.5 -34t-30.5 -88v-8h214v9q0 55 -27 88t-76 33z" />
    <glyph glyph-name="Edotaccent" unicode="&#x116;" 
d="M542 0h-460v698h460v-117h-328v-169h290v-117h-290v-178h328v-117zM312 760q-79 0 -79 65v25q0 65 79 65t79 -65v-25q0 -65 -79 -65z" />
    <glyph glyph-name="edotaccent" unicode="&#x117;" horiz-adv-x="558" 
d="M285 598q-78 0 -78 63v24q0 63 78 63t78 -63v-24q0 -63 -78 -63zM285 -12q-115 0 -180.5 74t-65.5 200q0 125 64 198.5t178 73.5q116 0 177 -74.5t61 -188.5v-42h-347v-13q0 -58 32.5 -92t94.5 -34q78 0 133 71l69 -77q-70 -96 -216 -96zM283 438q-50 0 -80.5 -34
t-30.5 -88v-8h214v9q0 55 -27 88t-76 33z" />
    <glyph glyph-name="Eogonek" unicode="&#x118;" 
d="M82 0v698h460v-117h-328v-169h290v-117h-290v-178h328v-117q-66 -46 -87 -68.5t-21 -41.5q0 -32 36 -32q29 0 53 26l49 -47q-26 -48 -112 -48q-51 0 -83.5 20t-32.5 63q0 38 28.5 66.5t85.5 57.5l-1 4h-375z" />
    <glyph glyph-name="eogonek" unicode="&#x119;" horiz-adv-x="558" 
d="M342 -211q-50 0 -82 20t-32 62q0 40 28 67t83 54l-2 4q-24 -8 -55 -8q-114 0 -178.5 74t-64.5 200q0 125 64 198.5t178 73.5q116 0 177 -74.5t61 -188.5v-42h-347v-13q0 -58 33 -92t95 -34q81 0 132 71l69 -77q-14 -19 -85 -75q-48 -37 -73.5 -65.5t-25.5 -54.5
q0 -31 36 -31q29 0 52 26l48 -47q-25 -48 -111 -48zM172 308h214v9q0 55 -27 88t-76 33q-50 0 -80.5 -34t-30.5 -88v-8z" />
    <glyph glyph-name="Ecaron" unicode="&#x11a;" 
d="M370 754h-116l-126 154l64 51l120 -116l120 116l64 -51zM542 0h-460v698h460v-117h-328v-169h290v-117h-290v-178h328v-117z" />
    <glyph glyph-name="ecaron" unicode="&#x11b;" horiz-adv-x="558" 
d="M285 -12q-115 0 -180.5 74t-65.5 200q0 125 64 198.5t178 73.5q116 0 177 -74.5t61 -188.5v-42h-347v-13q0 -58 32.5 -92t94.5 -34q78 0 133 71l69 -77q-70 -96 -216 -96zM283 438q-50 0 -80.5 -34t-30.5 -88v-8h214v9q0 55 -27 88t-76 33zM343 591h-116l-126 154l64 50
l120 -116l120 116l64 -50z" />
    <glyph glyph-name="Gcircumflex" unicode="&#x11c;" horiz-adv-x="712" 
d="M527 0v108h-4q-9 -53 -58 -86.5t-125 -33.5q-127 0 -207.5 94.5t-80.5 264.5q0 172 84.5 267.5t226.5 95.5q186 0 264 -159l-107 -63q-44 105 -157 105q-79 0 -125 -48.5t-46 -139.5v-112q0 -90 46.5 -139t126.5 -49q65 0 107 31t42 88v45h-137v111h264v-380h-114z
M299 950h116l126 -154l-64 -51l-120 116l-120 -116l-64 51z" />
    <glyph glyph-name="gcircumflex" unicode="&#x11d;" horiz-adv-x="553" 
d="M545 -44q0 -84 -64 -126t-210 -42q-243 0 -243 123q0 86 93 100v11q-32 8 -49.5 31.5t-17.5 55.5q0 71 96 92v4q-95 44 -95 152q0 81 56 129t160 48q56 0 92 -12h171v-88h-69q22 -33 22 -77q0 -81 -56 -128t-160 -47q-45 0 -80 9q-37 -17 -37 -47q0 -39 68 -39h140
q183 0 183 -149zM271 269q94 0 94 80v17q0 80 -94 80t-94 -80v-17q0 -80 94 -80zM425 -59q0 53 -89 53h-178q-27 -20 -27 -54q0 -64 110 -64h64q120 0 120 65zM216 786h116l126 -154l-64 -50l-120 115l-120 -115l-64 50z" />
    <glyph glyph-name="Gbreve" unicode="&#x11e;" horiz-adv-x="712" 
d="M357 748q-41 0 -73 14t-52 39.5t-32 49t-22 53.5l71 36l19 -32q22 -36 41 -52.5t48 -16.5t48.5 16.5t41.5 52.5l19 32l70 -36q-51 -156 -179 -156zM527 0v108h-4q-9 -53 -58 -86.5t-125 -33.5q-127 0 -207.5 94.5t-80.5 264.5q0 172 84.5 267.5t226.5 95.5
q186 0 264 -159l-107 -63q-44 105 -157 105q-79 0 -125 -48.5t-46 -139.5v-112q0 -90 46.5 -139t126.5 -49q65 0 107 31t42 88v45h-137v111h264v-380h-114z" />
    <glyph glyph-name="gbreve" unicode="&#x11f;" horiz-adv-x="553" 
d="M274 584q-41 0 -72.5 14t-52 40t-32 49t-22.5 54l71 36l20 -33q22 -36 41 -52.5t47 -16.5t47.5 16.5t41.5 52.5l20 33l70 -36q-54 -157 -179 -157zM545 -44q0 -84 -64 -126t-210 -42q-243 0 -243 123q0 86 93 100v11q-32 8 -49.5 31.5t-17.5 55.5q0 71 96 92v4
q-95 44 -95 152q0 81 56 129t160 48q56 0 92 -12h171v-88h-69q22 -33 22 -77q0 -81 -56 -128t-160 -47q-45 0 -80 9q-37 -17 -37 -47q0 -39 68 -39h140q183 0 183 -149zM271 269q94 0 94 80v17q0 80 -94 80t-94 -80v-17q0 -80 94 -80zM425 -59q0 53 -89 53h-178
q-27 -20 -27 -54q0 -64 110 -64h64q120 0 120 65z" />
    <glyph glyph-name="Gdotaccent" unicode="&#x120;" horiz-adv-x="712" 
d="M527 0v108h-4q-9 -53 -58 -86.5t-125 -33.5q-127 0 -207.5 94.5t-80.5 264.5q0 172 84.5 267.5t226.5 95.5q186 0 264 -159l-107 -63q-44 105 -157 105q-79 0 -125 -48.5t-46 -139.5v-112q0 -90 46.5 -139t126.5 -49q65 0 107 31t42 88v45h-137v111h264v-380h-114z
M357 760q-79 0 -79 65v25q0 65 79 65t79 -65v-25q0 -65 -79 -65z" />
    <glyph glyph-name="gdotaccent" unicode="&#x121;" horiz-adv-x="545" 
d="M272 598q-78 0 -78 63v24q0 63 78 63t78 -63v-24q0 -63 -78 -63zM545 -44q0 -84 -64 -126t-210 -42q-243 0 -243 123q0 86 93 100v11q-32 8 -49.5 31.5t-17.5 55.5q0 71 96 92v4q-95 44 -95 152q0 81 56 129t160 48q53 0 91 -13v17q0 76 74 76h81v-98h-111v-14
q81 -45 81 -145q0 -81 -56 -128t-160 -47q-45 0 -80 9q-37 -17 -37 -47q0 -39 68 -39h140q183 0 183 -149zM425 -59q0 53 -89 53h-178q-27 -20 -27 -54q0 -64 110 -64h64q120 0 120 65zM271 269q94 0 94 80v17q0 80 -94 80t-94 -80v-17q0 -80 94 -80z" />
    <glyph glyph-name="Gcommaaccent" unicode="&#x122;" horiz-adv-x="712" 
d="M527 0v108h-4q-9 -53 -58 -86.5t-125 -33.5q-127 0 -207.5 94.5t-80.5 264.5q0 172 84.5 267.5t226.5 95.5q186 0 264 -159l-107 -63q-44 105 -157 105q-79 0 -125 -48.5t-46 -139.5v-112q0 -90 46.5 -139t126.5 -49q65 0 107 31t42 88v45h-137v111h264v-380h-114z
M348 -49q31 0 48 -15t17 -43v-13q0 -41 -18.5 -81t-46.5 -65h-77q46 42 58 93q-45 4 -45 56v10q0 28 17 43t47 15z" />
    <glyph glyph-name="gcommaaccent" unicode="&#x123;" horiz-adv-x="545" 
d="M273 582q-64 0 -64 57v13q0 42 18.5 82t46.5 65h77q-45 -41 -59 -93q45 -5 45 -56v-11q0 -57 -64 -57zM545 -44q0 -84 -64 -126t-210 -42q-243 0 -243 123q0 86 93 100v11q-32 8 -49.5 31.5t-17.5 55.5q0 71 96 92v4q-95 44 -95 152q0 81 56 129t160 48q53 0 91 -13v17
q0 76 74 76h81v-98h-111v-14q81 -45 81 -145q0 -81 -56 -128t-160 -47q-45 0 -80 9q-37 -17 -37 -47q0 -39 68 -39h140q183 0 183 -149zM425 -59q0 53 -89 53h-178q-27 -20 -27 -54q0 -64 110 -64h64q120 0 120 65zM271 269q94 0 94 80v17q0 80 -94 80t-94 -80v-17
q0 -80 94 -80z" />
    <glyph glyph-name="Hcircumflex" unicode="&#x124;" horiz-adv-x="719" 
d="M302 950h116l126 -154l-64 -51l-120 116l-120 -116l-64 51zM505 0v295h-291v-295h-132v698h132v-286h291v286h132v-698h-132z" />
    <glyph glyph-name="hcircumflex" unicode="&#x125;" horiz-adv-x="588" 
d="M74 0v740h128v-305h5q37 99 146 99q80 0 123.5 -53t43.5 -151v-330h-128v317q0 112 -86 112q-43 0 -73.5 -22t-30.5 -62v-345h-128zM80 944h116l126 -154l-64 -50l-120 115l-120 -115l-64 50z" />
    <glyph glyph-name="Hbar" unicode="&#x126;" horiz-adv-x="728" 
d="M510 0v295h-292v-295h-132v510h-72v99h72v89h132v-89h292v89h132v-89h72v-99h-72v-510h-132zM218 412h292v98h-292v-98z" />
    <glyph glyph-name="hbar" unicode="&#x127;" horiz-adv-x="588" 
d="M202 0h-128v595h-63v89h63v56h128v-56h143v-89h-143v-160h5q37 99 146 99q80 0 123.5 -53t43.5 -151v-330h-128v317q0 112 -86 112q-43 0 -73.5 -22t-30.5 -62v-345z" />
    <glyph glyph-name="Itilde" unicode="&#x128;" horiz-adv-x="423" 
d="M286 768q-30 0 -78 22q-51 22 -75 22q-28 0 -59 -25l-47 59q41 61 109 61q30 0 78 -22q51 -22 75 -22q28 0 59 25l47 -59q-41 -61 -109 -61zM370 0h-317v106h92v486h-92v106h317v-106h-93v-486h93v-106z" />
    <glyph glyph-name="itilde" unicode="&#x129;" horiz-adv-x="276" 
d="M213 604q-30 0 -78 22q-53 23 -75 23q-27 0 -59 -26l-47 60q43 61 109 61q30 0 78 -22q49 -23 75 -23q27 0 59 26l47 -60q-43 -61 -109 -61zM202 0h-128v522h128v-522z" />
    <glyph glyph-name="Imacron" unicode="&#x12a;" horiz-adv-x="423" 
d="M62 791v93h298v-93h-298zM370 0h-317v106h92v486h-92v106h317v-106h-93v-486h93v-106z" />
    <glyph glyph-name="imacron" unicode="&#x12b;" horiz-adv-x="276" 
d="M-11 628v93h298v-93h-298zM202 0h-128v522h128v-522z" />
    <glyph glyph-name="Ibreve" unicode="&#x12c;" horiz-adv-x="423" 
d="M211 748q-41 0 -73 14t-52 39.5t-32 49t-22 53.5l71 36l19 -32q22 -36 41 -52.5t48 -16.5t48.5 16.5t41.5 52.5l19 32l70 -36q-51 -156 -179 -156zM370 0h-317v106h92v486h-92v106h317v-106h-93v-486h93v-106z" />
    <glyph glyph-name="ibreve" unicode="&#x12d;" horiz-adv-x="276" 
d="M138 584q-41 0 -72.5 14t-52 40t-32 49t-22.5 54l71 36l20 -33q22 -36 41 -52.5t47 -16.5t47.5 16.5t41.5 52.5l20 33l70 -36q-54 -157 -179 -157zM202 0h-128v522h128v-522z" />
    <glyph glyph-name="Iogonek" unicode="&#x12e;" horiz-adv-x="423" 
d="M53 0v106h92v486h-92v106h317v-106h-93v-486h93v-106q-66 -46 -87.5 -68.5t-21.5 -41.5q0 -32 36 -32q29 0 53 26l49 -47q-25 -48 -112 -48q-51 0 -83 20t-32 63q0 38 27.5 65.5t85.5 58.5l-1 4h-231z" />
    <glyph glyph-name="iogonek" unicode="&#x12f;" horiz-adv-x="276" 
d="M74 0v522h128v-522q-67 -46 -88.5 -68.5t-21.5 -41.5q0 -32 36 -32q30 0 53 26l49 -47q-25 -48 -112 -48q-50 0 -82.5 20t-32.5 63q0 38 28.5 66.5t85.5 57.5l-1 4h-42zM138 598q-75 0 -75 64v20q0 64 75 64q37 0 56 -17.5t19 -46.5v-20q0 -29 -19 -46.5t-56 -17.5z" />
    <glyph glyph-name="Idotaccent" unicode="&#x130;" horiz-adv-x="423" 
d="M211 760q-79 0 -79 65v25q0 65 79 65t79 -65v-25q0 -65 -79 -65zM370 0h-317v106h92v486h-92v106h317v-106h-93v-486h93v-106z" />
    <glyph glyph-name="dotlessi" unicode="&#x131;" horiz-adv-x="276" 
d="M202 0h-128v522h128v-522z" />
    <glyph glyph-name="IJ" unicode="&#x132;" horiz-adv-x="653" 
d="M327 -11q-104 0 -165.5 50t-77.5 137l122 25q21 -96 121 -96q52 0 84 27.5t32 83.5v374h-106v108h238v-484q0 -104 -67 -164.5t-181 -60.5zM77 303v395h132v-395h-132z" />
    <glyph glyph-name="ij" unicode="&#x133;" horiz-adv-x="545" 
d="M344 -98v620h128v-585q0 -137 -138 -137h-70v102h80zM408 598q-75 0 -75 64v20q0 64 75 64q37 0 56 -17.5t19 -46.5v-20q0 -29 -19 -46.5t-56 -17.5zM138 598q-75 0 -75 64v20q0 64 75 64q37 0 56 -17.5t19 -46.5v-20q0 -29 -19 -46.5t-56 -17.5zM74 0v522h128v-522h-128
z" />
    <glyph glyph-name="Jcircumflex" unicode="&#x134;" horiz-adv-x="545" 
d="M233 950h116l126 -154l-64 -51l-120 116l-120 -116l-64 51zM115 698h352v-502q0 -94 -59.5 -150.5t-161.5 -56.5q-94 0 -149 49.5t-71 135.5l122 25q19 -94 97 -94q41 0 65.5 25.5t24.5 74.5v385h-220v108z" />
    <glyph glyph-name="jcircumflex" unicode="&#x135;" horiz-adv-x="276" 
d="M80 786h116l126 -154l-64 -50l-120 115l-120 -115l-64 50zM-6 -200v102h80v620h128v-585q0 -137 -138 -137h-70z" />
    <glyph glyph-name="Kcommaaccent" unicode="&#x136;" horiz-adv-x="678" 
d="M506 0l-199 316l-93 -110v-206h-132v698h132v-344h5l99 131l173 213h152l-243 -291l263 -407h-157zM355 -49q31 0 48 -15t17 -43v-13q0 -41 -18.5 -81t-46.5 -65h-77q46 42 58 93q-45 4 -45 56v10q0 28 17 43t47 15z" />
    <glyph glyph-name="kcommaaccent" unicode="&#x137;" horiz-adv-x="562" 
d="M74 0v740h128v-446h5l69 94l117 134h145l-180 -202l199 -320h-152l-134 234l-69 -75v-159h-128zM314 -49q31 0 48 -15t17 -43v-13q0 -41 -18.5 -81t-46.5 -65h-77q46 42 58 93q-45 4 -45 56v10q0 28 17 43t47 15z" />
    <glyph glyph-name="kgreenlandic" unicode="&#x138;" horiz-adv-x="562" 
d="M407 0l-137 232l-68 -73v-159h-128v522h128v-228h5l72 92l123 136h146l-188 -204l197 -318h-150z" />
    <glyph glyph-name="Lacute" unicode="&#x139;" horiz-adv-x="521" 
d="M489 0h-407v698h132v-581h275v-117zM287 915l-126 -171l-77 38l95 187z" />
    <glyph glyph-name="lacute" unicode="&#x13a;" horiz-adv-x="294" 
d="M271 0h-69q-128 0 -128 126v614h128v-638h69v-102zM277 952l-126 -171l-77 37l95 187z" />
    <glyph glyph-name="Lcommaaccent" unicode="&#x13b;" horiz-adv-x="521" 
d="M489 0h-407v698h132v-581h275v-117zM289 -49q31 0 48 -15t17 -43v-13q0 -41 -18.5 -81t-46.5 -65h-77q46 42 58 93q-45 4 -45 56v10q0 28 17 43t47 15z" />
    <glyph glyph-name="lcommaaccent" unicode="&#x13c;" horiz-adv-x="294" 
d="M271 0h-69q-128 0 -128 126v614h128v-638h69v-102zM171 -49q31 0 48 -15t17 -43v-13q0 -41 -18.5 -81t-46.5 -65h-77q46 42 58 93q-45 4 -45 56v10q0 28 17 43t47 15z" />
    <glyph glyph-name="Lcaron" unicode="&#x13d;" horiz-adv-x="521" 
d="M489 0h-407v698h132v-581h275v-117zM433 740l-62 -206h-84l8 206h138z" />
    <glyph glyph-name="lcaron" unicode="&#x13e;" horiz-adv-x="294" 
d="M409 740l-62 -206h-84l8 206h138zM271 0h-69q-128 0 -128 126v614h128v-638h69v-102z" />
    <glyph glyph-name="Ldot" unicode="&#x13f;" horiz-adv-x="521" 
d="M405 312q-78 0 -78 63v24q0 63 78 63t78 -63v-24q0 -63 -78 -63zM489 0h-407v698h132v-581h275v-117z" />
    <glyph glyph-name="ldot" unicode="&#x140;" horiz-adv-x="421" 
d="M346 267q-78 0 -78 63v24q0 63 78 63t78 -63v-24q0 -63 -78 -63zM271 0h-69q-128 0 -128 126v614h128v-638h69v-102z" />
    <glyph glyph-name="Lslash" unicode="&#x141;" horiz-adv-x="531" 
d="M493 117v-117h-407v251l-93 -30v99l93 31v347h132v-305l165 54v-101l-165 -53v-176h275z" />
    <glyph glyph-name="lslash" unicode="&#x142;" horiz-adv-x="303" 
d="M276 102v-102h-68q-129 0 -129 126v178l-75 -25v97l75 25v339h128v-297l103 34v-97l-103 -34v-244h69z" />
    <glyph glyph-name="Nacute" unicode="&#x143;" horiz-adv-x="719" 
d="M492 0l-210 358l-72 145h-3v-503h-125v698h145l210 -358l72 -145h3v503h125v-698h-145zM498 915l-126 -171l-77 38l95 187z" />
    <glyph glyph-name="nacute" unicode="&#x144;" horiz-adv-x="588" 
d="M202 0h-128v522h128v-87h5q37 99 146 99q80 0 123.5 -53t43.5 -151v-330h-128v317q0 112 -86 112q-43 0 -73.5 -22t-30.5 -62v-345zM435 752l-126 -171l-77 37l95 187z" />
    <glyph glyph-name="Ncommaaccent" unicode="&#x145;" horiz-adv-x="719" 
d="M492 0l-210 358l-72 145h-3v-503h-125v698h145l210 -358l72 -145h3v503h125v-698h-145zM358 -49q31 0 48 -15t17 -43v-13q0 -41 -18.5 -81t-46.5 -65h-77q46 42 58 93q-45 4 -45 56v10q0 28 17 43t47 15z" />
    <glyph glyph-name="ncommaaccent" unicode="&#x146;" horiz-adv-x="588" 
d="M202 0h-128v522h128v-87h5q37 99 146 99q80 0 123.5 -53t43.5 -151v-330h-128v317q0 112 -86 112q-43 0 -73.5 -22t-30.5 -62v-345zM297 -49q31 0 48 -15t17 -43v-13q0 -41 -18.5 -81t-46.5 -65h-77q46 42 58 93q-45 4 -45 56v10q0 28 17 43t47 15z" />
    <glyph glyph-name="Ncaron" unicode="&#x147;" horiz-adv-x="719" 
d="M417 754h-116l-126 154l64 51l120 -116l120 116l64 -51zM492 0l-210 358l-72 145h-3v-503h-125v698h145l210 -358l72 -145h3v503h125v-698h-145z" />
    <glyph glyph-name="ncaron" unicode="&#x148;" horiz-adv-x="588" 
d="M202 0h-128v522h128v-87h5q37 99 146 99q80 0 123.5 -53t43.5 -151v-330h-128v317q0 112 -86 112q-43 0 -73.5 -22t-30.5 -62v-345zM354 591h-116l-126 154l64 50l120 -116l120 116l64 -50z" />
    <glyph glyph-name="napostrophe" unicode="&#x149;" horiz-adv-x="864" 
d="M478 0h-128v522h128v-87h5q37 99 146 99q80 0 123.5 -53t43.5 -151v-330h-128v317q0 112 -86 112q-43 0 -73.5 -22t-30.5 -62v-345zM149 750q39 0 58.5 -18.5t19.5 -49.5v-19q0 -53 -29 -107.5t-74 -90.5h-86q69 64 87 128q-55 10 -55 67v22q0 31 19.5 49.5t59.5 18.5z
" />
    <glyph glyph-name="Eng" unicode="&#x14a;" horiz-adv-x="719" 
d="M207 0h-125v698h145l210 -358l72 -145h3v503h125v-760q0 -138 -138 -138h-71v103h84v97h-20l-210 358l-72 145h-3v-503z" />
    <glyph glyph-name="eng" unicode="&#x14b;" horiz-adv-x="588" 
d="M312 -200v102h80v415q0 112 -86 112q-43 0 -73.5 -22t-30.5 -62v-345h-128v522h128v-87h5q37 99 146 99q80 0 123.5 -53t43.5 -151v-394q0 -136 -137 -136h-71z" />
    <glyph glyph-name="Omacron" unicode="&#x14c;" horiz-adv-x="712" 
d="M207 791v93h298v-93h-298zM356 -12q-140 0 -222 93.5t-82 267.5t82 267.5t222 93.5q141 0 222.5 -93.5t81.5 -267.5t-81.5 -267.5t-222.5 -93.5zM356 105q75 0 119.5 50.5t44.5 139.5v108q0 89 -44.5 139.5t-119.5 50.5t-119.5 -50.5t-44.5 -139.5v-108
q0 -89 44.5 -139.5t119.5 -50.5z" />
    <glyph glyph-name="omacron" unicode="&#x14d;" horiz-adv-x="563" 
d="M281 -12q-112 0 -177 74t-65 200q0 125 65 198.5t177 73.5t177.5 -73.5t65.5 -198.5q0 -126 -65.5 -200t-177.5 -74zM281 91q51 0 80 31.5t29 90.5v97q0 58 -29 89.5t-80 31.5q-50 0 -79 -31.5t-29 -89.5v-97q0 -58 29 -90t79 -32zM132 628v93h298v-93h-298z" />
    <glyph glyph-name="Obreve" unicode="&#x14e;" horiz-adv-x="712" 
d="M356 748q-41 0 -73 14t-52 39.5t-32 49t-22 53.5l71 36l19 -32q22 -36 41 -52.5t48 -16.5t48.5 16.5t41.5 52.5l19 32l70 -36q-51 -156 -179 -156zM356 -12q-140 0 -222 93.5t-82 267.5t82 267.5t222 93.5q141 0 222.5 -93.5t81.5 -267.5t-81.5 -267.5t-222.5 -93.5z
M356 105q75 0 119.5 50.5t44.5 139.5v108q0 89 -44.5 139.5t-119.5 50.5t-119.5 -50.5t-44.5 -139.5v-108q0 -89 44.5 -139.5t119.5 -50.5z" />
    <glyph glyph-name="obreve" unicode="&#x14f;" horiz-adv-x="563" 
d="M281 584q-41 0 -72.5 14t-52 40t-32 49t-22.5 54l71 36l20 -33q22 -36 41 -52.5t47 -16.5t47.5 16.5t41.5 52.5l20 33l70 -36q-54 -157 -179 -157zM281 -12q-112 0 -177 74t-65 200q0 125 65 198.5t177 73.5t177.5 -73.5t65.5 -198.5q0 -126 -65.5 -200t-177.5 -74z
M281 91q51 0 80 31.5t29 90.5v97q0 58 -29 89.5t-80 31.5q-50 0 -79 -31.5t-29 -89.5v-97q0 -58 29 -90t79 -32z" />
    <glyph glyph-name="Ohungarumlaut" unicode="&#x150;" horiz-adv-x="712" 
d="M356 -12q-140 0 -222 93.5t-82 267.5t82 267.5t222 93.5q141 0 222.5 -93.5t81.5 -267.5t-81.5 -267.5t-222.5 -93.5zM356 105q75 0 119.5 50.5t44.5 139.5v108q0 89 -44.5 139.5t-119.5 50.5t-119.5 -50.5t-44.5 -139.5v-108q0 -89 44.5 -139.5t119.5 -50.5zM397 916
l-126 -171l-71 34l95 187zM588 916l-125 -171l-72 34l95 187z" />
    <glyph glyph-name="ohungarumlaut" unicode="&#x151;" horiz-adv-x="563" 
d="M281 -12q-112 0 -177 74t-65 200q0 125 65 198.5t177 73.5t177.5 -73.5t65.5 -198.5q0 -126 -65.5 -200t-177.5 -74zM281 91q51 0 80 31.5t29 90.5v97q0 58 -29 89.5t-80 31.5q-50 0 -79 -31.5t-29 -89.5v-97q0 -58 29 -90t79 -32zM322 752l-126 -171l-71 34l95 187z
M513 752l-125 -171l-72 34l95 187z" />
    <glyph glyph-name="OE" unicode="&#x152;" horiz-adv-x="994" 
d="M937 0h-458q-48 -12 -119 -12q-143 0 -225.5 93.5t-82.5 267.5t82.5 267.5t225.5 93.5q68 0 124 -12h453v-117h-330v-169h291v-117h-291v-178h330v-117zM363 105q59 0 112 12v463q-57 13 -112 13q-82 0 -126.5 -50t-44.5 -140v-108q0 -90 44.5 -140t126.5 -50z" />
    <glyph glyph-name="oe" unicode="&#x153;" horiz-adv-x="910" 
d="M281 91q51 0 80 31.5t29 90.5v97q0 58 -29 89.5t-80 31.5q-50 0 -79 -31.5t-29 -89.5v-97q0 -58 29 -90t79 -32zM523 308h214v9q0 55 -27 88t-76 33q-50 0 -80.5 -34t-30.5 -88v-8zM641 -12q-67 0 -115 24t-66 62h-6q-21 -40 -66 -63t-107 -23q-111 0 -176.5 75
t-65.5 201q0 125 65 197.5t177 72.5q126 0 173 -86h6q21 40 66.5 63t109.5 23q111 0 173 -71.5t62 -191.5v-42h-348v-13q0 -58 33.5 -92t96.5 -34q78 0 133 71l68 -77q-68 -96 -213 -96z" />
    <glyph glyph-name="Racute" unicode="&#x154;" horiz-adv-x="664" 
d="M458 915l-126 -171l-77 38l95 187zM214 269v-269h-132v698h315q95 0 150.5 -58.5t55.5 -157.5q0 -73 -33 -125t-97 -73l143 -284h-147l-130 269h-125zM214 380h170q39 0 60.5 20.5t21.5 58.5v46q0 38 -21.5 58t-60.5 20h-170v-203z" />
    <glyph glyph-name="racute" unicode="&#x155;" horiz-adv-x="393" 
d="M202 0h-128v522h128v-108h5q11 46 45.5 77t92.5 31h28v-121h-40q-131 0 -131 -81v-320zM362 752l-126 -171l-77 37l95 187z" />
    <glyph glyph-name="Rcommaaccent" unicode="&#x156;" horiz-adv-x="664" 
d="M214 269v-269h-132v698h315q95 0 150.5 -58.5t55.5 -157.5q0 -73 -33 -125t-97 -73l143 -284h-147l-130 269h-125zM214 380h170q39 0 60.5 20.5t21.5 58.5v46q0 38 -21.5 58t-60.5 20h-170v-203zM344 -49q31 0 48 -15t17 -43v-13q0 -41 -18.5 -81t-46.5 -65h-77
q46 42 58 93q-45 4 -45 56v10q0 28 17 43t47 15z" />
    <glyph glyph-name="rcommaaccent" unicode="&#x157;" horiz-adv-x="393" 
d="M202 0h-128v522h128v-108h5q11 46 45.5 77t92.5 31h28v-121h-40q-131 0 -131 -81v-320zM137 -49q31 0 48 -15t17 -43v-13q0 -41 -18.5 -81t-46.5 -65h-77q46 42 58 93q-45 4 -45 56v10q0 28 17 43t47 15z" />
    <glyph glyph-name="Rcaron" unicode="&#x158;" horiz-adv-x="664" 
d="M377 754h-116l-126 154l64 51l120 -116l120 116l64 -51zM214 269v-269h-132v698h315q95 0 150.5 -58.5t55.5 -157.5q0 -73 -33 -125t-97 -73l143 -284h-147l-130 269h-125zM214 380h170q39 0 60.5 20.5t21.5 58.5v46q0 38 -21.5 58t-60.5 20h-170v-203z" />
    <glyph glyph-name="rcaron" unicode="&#x159;" horiz-adv-x="393" 
d="M202 0h-128v522h128v-108h5q11 46 45.5 77t92.5 31h28v-121h-40q-131 0 -131 -81v-320zM281 591h-116l-126 154l64 50l120 -116l120 116l64 -50z" />
    <glyph glyph-name="Sacute" unicode="&#x15a;" horiz-adv-x="611" 
d="M443 915l-126 -171l-77 38l95 187zM299 -12q-161 0 -260 116l89 86q74 -86 179 -86q60 0 91.5 26.5t31.5 71.5q0 37 -21 58.5t-74 30.5l-66 10q-209 33 -209 203q0 94 68 150t185 56q153 0 239 -103l-90 -85q-57 72 -156 72q-56 0 -85 -21.5t-29 -60.5t22.5 -58.5
t74.5 -28.5l65 -12q106 -19 156.5 -68t50.5 -135q0 -101 -69.5 -161.5t-192.5 -60.5z" />
    <glyph glyph-name="sacute" unicode="&#x15b;" horiz-adv-x="499" 
d="M245 -12q-133 0 -216 96l78 76q61 -71 143 -71q87 0 87 60q0 47 -64 55l-52 7q-174 22 -174 158q0 75 54 120t144 45q72 0 117.5 -20t86.5 -62l-75 -75q-52 56 -125 56q-79 0 -79 -54q0 -26 15.5 -39.5t52.5 -19.5l53 -7q169 -24 169 -154q0 -76 -59 -123.5t-156 -47.5z
M385 752l-126 -171l-77 37l95 187z" />
    <glyph glyph-name="Scircumflex" unicode="&#x15c;" horiz-adv-x="611" 
d="M246 950h116l126 -154l-64 -51l-120 116l-120 -116l-64 51zM299 -12q-161 0 -260 116l89 86q74 -86 179 -86q60 0 91.5 26.5t31.5 71.5q0 37 -21 58.5t-74 30.5l-66 10q-209 33 -209 203q0 94 68 150t185 56q153 0 239 -103l-90 -85q-57 72 -156 72q-56 0 -85 -21.5
t-29 -60.5t22.5 -58.5t74.5 -28.5l65 -12q106 -19 156.5 -68t50.5 -135q0 -101 -69.5 -161.5t-192.5 -60.5z" />
    <glyph glyph-name="scircumflex" unicode="&#x15d;" horiz-adv-x="499" 
d="M245 -12q-133 0 -216 96l78 76q61 -71 143 -71q87 0 87 60q0 47 -64 55l-52 7q-174 22 -174 158q0 75 54 120t144 45q72 0 117.5 -20t86.5 -62l-75 -75q-52 56 -125 56q-79 0 -79 -54q0 -26 15.5 -39.5t52.5 -19.5l53 -7q169 -24 169 -154q0 -76 -59 -123.5t-156 -47.5z
M188 786h116l126 -154l-64 -50l-120 115l-120 -115l-64 50z" />
    <glyph glyph-name="Scedilla" unicode="&#x15e;" horiz-adv-x="611" 
d="M313 -211q-80 0 -117 44l44 51q24 -29 65 -29q44 0 44 27q0 32 -73 41l-23 2l13 64q-139 11 -227 115l89 86q74 -86 179 -86q60 0 91.5 26.5t31.5 71.5q0 37 -21 58.5t-74 30.5l-66 10q-209 33 -209 203q0 94 68 150t185 56q153 0 239 -103l-90 -85q-57 72 -156 72
q-56 0 -85 -21.5t-29 -60.5t22.5 -58.5t74.5 -28.5l65 -12q106 -19 156.5 -68t50.5 -135q0 -94 -61.5 -154t-171.5 -67l-10 -46l4 -3q22 6 45 6q32 0 52 -17t20 -51q0 -46 -36 -67.5t-90 -21.5z" />
    <glyph glyph-name="scedilla" unicode="&#x15f;" horiz-adv-x="499" 
d="M259 -211q-80 0 -117 44l44 51q24 -29 65 -29q44 0 44 27q0 32 -73 41l-23 2l13 65q-113 10 -183 94l78 76q61 -71 143 -71q87 0 87 60q0 47 -64 55l-52 7q-174 22 -174 158q0 75 54 120t144 45q72 0 117.5 -20t86.5 -62l-75 -75q-52 56 -125 56q-79 0 -79 -54
q0 -26 15.5 -39.5t52.5 -19.5l53 -7q169 -24 169 -154q0 -70 -50.5 -116.5t-135.5 -53.5l-10 -46l4 -3q23 6 45 6q32 0 52 -17t20 -51q0 -46 -36 -67.5t-90 -21.5z" />
    <glyph glyph-name="Scaron" unicode="&#x160;" horiz-adv-x="611" 
d="M362 754h-116l-126 154l64 51l120 -116l120 116l64 -51zM299 -12q-161 0 -260 116l89 86q74 -86 179 -86q60 0 91.5 26.5t31.5 71.5q0 37 -21 58.5t-74 30.5l-66 10q-209 33 -209 203q0 94 68 150t185 56q153 0 239 -103l-90 -85q-57 72 -156 72q-56 0 -85 -21.5
t-29 -60.5t22.5 -58.5t74.5 -28.5l65 -12q106 -19 156.5 -68t50.5 -135q0 -101 -69.5 -161.5t-192.5 -60.5z" />
    <glyph glyph-name="scaron" unicode="&#x161;" horiz-adv-x="499" 
d="M245 -12q-133 0 -216 96l78 76q61 -71 143 -71q87 0 87 60q0 47 -64 55l-52 7q-174 22 -174 158q0 75 54 120t144 45q72 0 117.5 -20t86.5 -62l-75 -75q-52 56 -125 56q-79 0 -79 -54q0 -26 15.5 -39.5t52.5 -19.5l53 -7q169 -24 169 -154q0 -76 -59 -123.5t-156 -47.5z
M304 591h-116l-126 154l64 50l120 -116l120 116l64 -50z" />
    <glyph glyph-name="Tcommaaccent" unicode="&#x162;" horiz-adv-x="580" 
d="M554 581h-198v-581h-132v581h-198v117h528v-117zM289 -49q31 0 48 -15t17 -43v-13q0 -41 -18.5 -81t-46.5 -65h-77q46 42 58 93q-45 4 -45 56v10q0 28 17 43t47 15z" />
    <glyph glyph-name="tcommaaccent" unicode="&#x163;" horiz-adv-x="374" 
d="M329 0h-92q-66 0 -100.5 34.5t-34.5 98.5v288h-77v101h40q28 0 39 13t11 41v89h115v-143h107v-101h-107v-319h99v-102zM223 -49q31 0 48 -15t17 -43v-13q0 -41 -18.5 -81t-46.5 -65h-77q46 42 58 93q-45 4 -45 56v10q0 28 17 43t47 15z" />
    <glyph glyph-name="Tcaron" unicode="&#x164;" horiz-adv-x="580" 
d="M348 754h-116l-126 154l64 51l120 -116l120 116l64 -51zM554 581h-198v-581h-132v581h-198v117h528v-117z" />
    <glyph glyph-name="tcaron" unicode="&#x165;" horiz-adv-x="377" 
d="M329 0h-92q-66 0 -100.5 34.5t-34.5 98.5v288h-77v101h40q28 0 39 13t11 41v89h115v-143h107v-101h-107v-319h99v-102zM441 779l-62 -206h-84l8 206h138z" />
    <glyph glyph-name="Tbar" unicode="&#x166;" horiz-adv-x="590" 
d="M507 299h-146v-299h-132v299h-146v99h146v183h-198v117h528v-117h-198v-183h146v-99z" />
    <glyph glyph-name="tbar" unicode="&#x167;" horiz-adv-x="381" 
d="M332 102v-102h-91q-66 0 -100.5 34t-34.5 99v96h-64v89h64v103h-78v101h41q28 0 39 13t11 41v89h115v-143h106v-101h-106v-103h86v-89h-86v-127h98z" />
    <glyph glyph-name="Utilde" unicode="&#x168;" horiz-adv-x="689" 
d="M419 768q-30 0 -78 22q-51 22 -75 22q-28 0 -59 -25l-47 59q41 61 109 61q30 0 78 -22q51 -22 75 -22q28 0 59 25l47 -59q-41 -61 -109 -61zM77 698h130v-429q0 -84 32.5 -124t105.5 -40t105.5 40t32.5 124v429h130v-412q0 -156 -62 -227t-207 -71t-206 71t-61 227v412z
" />
    <glyph glyph-name="utilde" unicode="&#x169;" horiz-adv-x="588" 
d="M366 604q-30 0 -78 22q-53 23 -75 23q-27 0 -59 -26l-47 60q43 61 109 61q30 0 78 -22q49 -23 75 -23q27 0 59 26l47 -60q-43 -61 -109 -61zM386 0v87h-5q-34 -99 -146 -99q-80 0 -123.5 53t-43.5 151v330h128v-317q0 -111 88 -111q42 0 72 21.5t30 61.5v345h128v-522
h-128z" />
    <glyph glyph-name="Umacron" unicode="&#x16a;" horiz-adv-x="689" 
d="M195 791v93h298v-93h-298zM77 698h130v-429q0 -84 32.5 -124t105.5 -40t105.5 40t32.5 124v429h130v-412q0 -156 -62 -227t-207 -71t-206 71t-61 227v412z" />
    <glyph glyph-name="umacron" unicode="&#x16b;" horiz-adv-x="588" 
d="M142 628v93h298v-93h-298zM386 0v87h-5q-34 -99 -146 -99q-80 0 -123.5 53t-43.5 151v330h128v-317q0 -111 88 -111q42 0 72 21.5t30 61.5v345h128v-522h-128z" />
    <glyph glyph-name="Ubreve" unicode="&#x16c;" horiz-adv-x="689" 
d="M344 748q-41 0 -73 14t-52 39.5t-32 49t-22 53.5l71 36l19 -32q22 -36 41 -52.5t48 -16.5t48.5 16.5t41.5 52.5l19 32l70 -36q-51 -156 -179 -156zM77 698h130v-429q0 -84 32.5 -124t105.5 -40t105.5 40t32.5 124v429h130v-412q0 -156 -62 -227t-207 -71t-206 71t-61 227
v412z" />
    <glyph glyph-name="ubreve" unicode="&#x16d;" horiz-adv-x="588" 
d="M291 584q-41 0 -72.5 14t-52 40t-32 49t-22.5 54l71 36l20 -33q22 -36 41 -52.5t47 -16.5t47.5 16.5t41.5 52.5l20 33l70 -36q-54 -157 -179 -157zM386 0v87h-5q-34 -99 -146 -99q-80 0 -123.5 53t-43.5 151v330h128v-317q0 -111 88 -111q42 0 72 21.5t30 61.5v345h128
v-522h-128z" />
    <glyph glyph-name="Uring" unicode="&#x16e;" horiz-adv-x="689" 
d="M77 698h130v-429q0 -84 32.5 -124t105.5 -40t105.5 40t32.5 124v429h130v-412q0 -156 -62 -227t-207 -71t-206 71t-61 227v412zM344 727q-59 0 -99 38.5t-40 96.5t40 96t99 38t99 -38t40 -96t-40 -96.5t-99 -38.5zM344 794q25 0 39 14t14 38v31q0 24 -14 38t-39 14
t-39 -14t-14 -38v-31q0 -24 14 -38t39 -14z" />
    <glyph glyph-name="uring" unicode="&#x16f;" horiz-adv-x="588" 
d="M386 0v87h-5q-34 -99 -146 -99q-80 0 -123.5 53t-43.5 151v330h128v-317q0 -111 88 -111q42 0 72 21.5t30 61.5v345h128v-522h-128zM291 563q-59 0 -99 38.5t-40 96.5t40 96.5t99 38.5t99 -38.5t40 -96.5t-40 -96.5t-99 -38.5zM291 631q53 0 53 52v30q0 52 -53 52
t-53 -52v-30q0 -52 53 -52z" />
    <glyph glyph-name="Uhungarumlaut" unicode="&#x170;" horiz-adv-x="689" 
d="M77 698h130v-429q0 -84 32.5 -124t105.5 -40t105.5 40t32.5 124v429h130v-412q0 -156 -62 -227t-207 -71t-206 71t-61 227v412zM385 916l-126 -171l-71 34l95 187zM576 916l-125 -171l-72 34l95 187z" />
    <glyph glyph-name="uhungarumlaut" unicode="&#x171;" horiz-adv-x="588" 
d="M332 752l-126 -171l-71 34l95 187zM523 752l-125 -171l-72 34l95 187zM386 0v87h-5q-34 -99 -146 -99q-80 0 -123.5 53t-43.5 151v330h128v-317q0 -111 88 -111q42 0 72 21.5t30 61.5v345h128v-522h-128z" />
    <glyph glyph-name="Uogonek" unicode="&#x172;" horiz-adv-x="690" 
d="M77 698h130v-429q0 -84 32.5 -124t105.5 -40t105.5 40t32.5 124v429h130v-412q0 -106 -26 -172t-95 -122l-29 -23t-27.5 -22t-20.5 -18.5t-15.5 -20t-4.5 -19.5q0 -31 36 -31q28 0 52 26l49 -47q-26 -48 -111 -48q-51 0 -83 20t-32 62q0 38 28.5 63.5t89.5 55.5l-3 6
q-31 -8 -77 -8q-145 0 -206 71t-61 227v412z" />
    <glyph glyph-name="uogonek" unicode="&#x173;" horiz-adv-x="588" 
d="M514 522v-522q-66 -46 -87.5 -68.5t-21.5 -41.5q0 -32 36 -32q29 0 53 26l49 -47q-26 -48 -112 -48q-51 0 -83.5 20t-32.5 63q0 38 28.5 66.5t85.5 57.5l-1 4h-42v87h-5q-34 -99 -146 -99q-80 0 -123.5 53t-43.5 151v330h128v-317q0 -111 88 -111q42 0 72 21.5t30 61.5
v345h128z" />
    <glyph glyph-name="Wcircumflex" unicode="&#x174;" horiz-adv-x="949" 
d="M338 0h-150l-162 698h132l69 -335l43 -214h3l50 214l80 335h146l80 -335l49 -214h3l44 214l71 335h126l-167 -698h-149l-89 369l-43 184h-2l-45 -184zM417 950h116l126 -154l-64 -51l-120 116l-120 -116l-64 51z" />
    <glyph glyph-name="wcircumflex" unicode="&#x175;" horiz-adv-x="819" 
d="M167 0l-144 522h123l53 -215l41 -179h4l48 179l61 215h116l63 -215l49 -179h4l41 179l52 215h119l-143 -522h-138l-67 230l-39 142h-3l-38 -142l-66 -230h-136zM352 786h116l126 -154l-64 -50l-120 115l-120 -115l-64 50z" />
    <glyph glyph-name="Ycircumflex" unicode="&#x176;" horiz-adv-x="632" 
d="M259 950h116l126 -154l-64 -51l-120 116l-120 -116l-64 51zM382 0h-133v274l-239 424h148l161 -295h2l157 295h144l-240 -423v-275z" />
    <glyph glyph-name="ycircumflex" unicode="&#x177;" horiz-adv-x="524" 
d="M207 786h116l126 -154l-64 -50l-120 115l-120 -115l-64 50zM303 246l91 276h120l-210 -615q-20 -58 -53 -82.5t-96 -24.5h-77v102h94l24 73l-187 547h127l91 -276l34 -132h6z" />
    <glyph glyph-name="Ydieresis" unicode="&#x178;" horiz-adv-x="632" 
d="M212 769q-71 0 -71 58v21q0 59 71 59t71 -59v-21q0 -58 -71 -58zM422 769q-71 0 -71 58v21q0 59 71 59t71 -59v-21q0 -58 -71 -58zM382 0h-133v274l-239 424h148l161 -295h2l157 295h144l-240 -423v-275z" />
    <glyph glyph-name="Zacute" unicode="&#x179;" horiz-adv-x="599" 
d="M440 915l-126 -171l-77 38l95 187zM561 116v-116h-523v118l362 464h-344v116h495v-118l-363 -464h373z" />
    <glyph glyph-name="zacute" unicode="&#x17a;" horiz-adv-x="502" 
d="M465 0h-428v102l271 319h-262v101h412v-99l-273 -321h280v-102zM390 752l-126 -171l-77 37l95 187z" />
    <glyph glyph-name="Zdotaccent" unicode="&#x17b;" horiz-adv-x="599" 
d="M561 116v-116h-523v118l362 464h-344v116h495v-118l-363 -464h373zM301 760q-79 0 -79 65v25q0 65 79 65t79 -65v-25q0 -65 -79 -65z" />
    <glyph glyph-name="zdotaccent" unicode="&#x17c;" horiz-adv-x="502" 
d="M251 598q-78 0 -78 63v24q0 63 78 63t78 -63v-24q0 -63 -78 -63zM465 0h-428v102l271 319h-262v101h412v-99l-273 -321h280v-102z" />
    <glyph glyph-name="Zcaron" unicode="&#x17d;" horiz-adv-x="599" 
d="M359 754h-116l-126 154l64 51l120 -116l120 116l64 -51zM561 116v-116h-523v118l362 464h-344v116h495v-118l-363 -464h373z" />
    <glyph glyph-name="zcaron" unicode="&#x17e;" horiz-adv-x="502" 
d="M465 0h-428v102l271 319h-262v101h412v-99l-273 -321h280v-102zM309 591h-116l-126 154l64 50l120 -116l120 116l64 -50z" />
    <glyph glyph-name="uni018F" unicode="&#x18f;" horiz-adv-x="712" 
d="M356 -12q-142 0 -223 93t-81 268v42h468v11q0 89 -43.5 139.5t-118.5 50.5q-123 0 -162 -118l-118 45q31 85 102 138t178 53q141 0 221.5 -94t80.5 -267q0 -172 -81.5 -266.5t-222.5 -94.5zM356 106q71 0 115.5 47t48.5 129h-328q4 -82 48.5 -129t115.5 -47z" />
    <glyph glyph-name="florin" unicode="&#x192;" horiz-adv-x="484" 
d="M3 -134l10 102h124l31 298h-117l11 106h116l19 184q6 65 47 103.5t112 38.5h113l-11 -102h-129l-23 -224h138l-9 -106h-140l-26 -259q-7 -64 -47 -102.5t-112 -38.5h-107z" />
    <glyph glyph-name="Ohorn" unicode="&#x1a0;" horiz-adv-x="712" 
d="M568 812h109v-102q0 -46 -21.5 -67.5t-81.5 -21.5q86 -95 86 -272q0 -174 -81.5 -267.5t-222.5 -93.5q-140 0 -222 93.5t-82 267.5t82 267.5t222 93.5q50 0 92 -12h120v114zM356 106q76 0 120 50t44 139v108q0 89 -44 139t-120 50q-75 0 -119 -50t-44 -139v-108
q0 -89 44 -139t119 -50z" />
    <glyph glyph-name="ohorn" unicode="&#x1a1;" horiz-adv-x="563" 
d="M433 630h109v-95q0 -88 -73 -88q55 -71 55 -183q0 -126 -65.5 -201t-177.5 -75q-111 0 -176.5 75t-65.5 201q0 125 65 197.5t177 72.5q45 0 83 -12h69v108zM281 91q51 0 80 31.5t29 90.5v97q0 58 -29 89.5t-80 31.5q-50 0 -79 -31.5t-29 -89.5v-97q0 -58 29 -90t79 -32z
" />
    <glyph glyph-name="Uhorn" unicode="&#x1af;" horiz-adv-x="690" 
d="M77 698h130v-429q0 -84 32.5 -124t105.5 -40t105.5 40t32.5 124v429h82v108h108v-97q0 -73 -60 -84v-339q0 -156 -62 -227t-207 -71t-206 71t-61 227v412z" />
    <glyph glyph-name="uhorn" unicode="&#x1b0;" horiz-adv-x="588" 
d="M584 630v-96q0 -42 -15 -65t-55 -23v-446h-128v87h-5q-34 -99 -146 -99q-80 0 -123.5 53t-43.5 151v330h128v-317q0 -111 88 -111q42 0 72 21.5t30 61.5v345h90v108h108z" />
    <glyph glyph-name="Aringacute" unicode="&#x1fa;" horiz-adv-x="672" 
d="M467 1076l-134 -97l-51 46l112 116zM334 728q-61 0 -101 32.5t-40 86.5t40 86t101 32t101 -32t40 -86t-40 -86.5t-101 -32.5zM334 792q56 0 56 48v14q0 47 -56 47t-56 -47v-14q0 -48 56 -48zM651 0h-137l-56 178h-248l-55 -178h-134l234 699h164zM426 291l-90 287h-5
l-89 -287h184z" />
    <glyph glyph-name="aringacute" unicode="&#x1fb;" horiz-adv-x="559" 
d="M395 911l-134 -96l-49 48l113 116zM263 565q-61 0 -101 32t-40 86t40 86.5t101 32.5t101 -32.5t40 -86.5t-40 -86t-101 -32zM263 628q56 0 56 48v14q0 48 -56 48t-56 -48v-14q0 -48 56 -48zM203 -12q-78 0 -122 41.5t-44 112.5q0 79 57.5 119.5t165.5 40.5h89v38
q0 92 -97 92q-73 0 -119 -66l-76 68q63 100 204 100q105 0 160.5 -48t55.5 -138v-246h52v-102h-71q-40 0 -65.5 24.5t-31.5 65.5h-6q-13 -50 -53 -76t-99 -26zM246 81q45 0 74 20t29 55v69h-82q-100 0 -100 -64v-17q0 -63 79 -63z" />
    <glyph glyph-name="AEacute" unicode="&#x1fc;" horiz-adv-x="950" 
d="M722 915l-126 -171l-77 38l95 187zM432 0v178h-214l-85 -178h-133l346 698h546v-117h-329v-169h291v-117h-291v-178h329v-117h-460zM432 581h-20l-141 -291h161v291z" />
    <glyph glyph-name="aeacute" unicode="&#x1fd;" horiz-adv-x="864" 
d="M349 229h-82q-100 -2 -100 -66v-16q0 -66 80 -66q43 0 72.5 20t29.5 55v73zM478 308h214v9q0 55 -27 88t-76 33q-50 0 -80.5 -34t-30.5 -88v-8zM607 92q80 0 133 69l69 -77q-70 -96 -213 -96q-73 0 -127.5 31.5t-72.5 75.5h-6q-15 -45 -62.5 -76t-124.5 -31t-121.5 42.5
t-44.5 112.5q0 80 59.5 122.5t163.5 42.5h89v32q0 92 -96 92q-75 0 -120 -66l-76 68q63 100 204 100q106 0 152 -86h6q20 38 66.5 62t106.5 24q115 0 174 -74t59 -189v-42h-348v-13q0 -56 34.5 -90t95.5 -34zM566 752l-126 -171l-77 37l95 187z" />
    <glyph glyph-name="Oslashacute" unicode="&#x1fe;" horiz-adv-x="712" 
d="M495 915l-126 -171l-77 38l95 187zM356 -12q-88 0 -157 40l-55 -81l-81 53l63 92q-74 92 -74 257q0 174 82 267.5t222 93.5q89 0 157 -40l55 81l82 -53l-63 -92q73 -93 73 -257q0 -174 -81.5 -267.5t-222.5 -93.5zM188 293q0 -55 18 -97l245 377q-38 27 -95 27
q-78 0 -123 -52t-45 -143v-112zM525 405q0 51 -18 97l-246 -377q37 -27 95 -27q78 0 123.5 52t45.5 143v112z" />
    <glyph glyph-name="oslashacute" unicode="&#x1ff;" horiz-adv-x="571" 
d="M424 752l-126 -171l-77 37l95 187zM90 -47l-70 52l67 84q-44 68 -44 173q0 125 65 198.5t177 73.5q79 0 135 -38l61 73l70 -52l-68 -84q45 -70 45 -172q0 -126 -65.5 -199.5t-177.5 -73.5q-78 0 -135 37zM285 85q52 0 82 35t30 96v120l-186 -225q29 -26 74 -26zM175 306
v-117l184 222q-29 26 -74 26q-51 0 -80.5 -35t-29.5 -96z" />
    <glyph glyph-name="Scommaaccent" unicode="&#x218;" horiz-adv-x="611" 
d="M299 -12q-161 0 -260 116l89 86q74 -86 179 -86q60 0 91.5 26.5t31.5 71.5q0 37 -21 58.5t-74 30.5l-66 10q-209 33 -209 203q0 94 68 150t185 56q153 0 239 -103l-90 -85q-57 72 -156 72q-56 0 -85 -21.5t-29 -60.5t22.5 -58.5t74.5 -28.5l65 -12q106 -19 156.5 -68
t50.5 -135q0 -101 -69.5 -161.5t-192.5 -60.5zM302 -49q31 0 48 -15t17 -43v-13q0 -41 -18.5 -81t-46.5 -65h-77q46 42 58 93q-45 4 -45 56v10q0 28 17 43t47 15z" />
    <glyph glyph-name="scommaaccent" unicode="&#x219;" horiz-adv-x="499" 
d="M245 -12q-133 0 -216 96l78 76q61 -71 143 -71q87 0 87 60q0 47 -64 55l-52 7q-174 22 -174 158q0 75 54 120t144 45q72 0 117.5 -20t86.5 -62l-75 -75q-52 56 -125 56q-79 0 -79 -54q0 -26 15.5 -39.5t52.5 -19.5l53 -7q169 -24 169 -154q0 -76 -59 -123.5t-156 -47.5z
M245 -49q31 0 48 -15t17 -43v-13q0 -41 -18.5 -81t-46.5 -65h-77q46 42 58 93q-45 4 -45 56v10q0 28 17 43t47 15z" />
    <glyph glyph-name="uni021A" unicode="&#x21a;" horiz-adv-x="580" 
d="M554 581h-198v-581h-132v581h-198v117h528v-117zM289 -49q31 0 48 -15t17 -43v-13q0 -41 -18.5 -81t-46.5 -65h-77q46 42 58 93q-45 4 -45 56v10q0 28 17 43t47 15z" />
    <glyph glyph-name="uni021B" unicode="&#x21b;" horiz-adv-x="374" 
d="M329 0h-92q-66 0 -100.5 34.5t-34.5 98.5v288h-77v101h40q28 0 39 13t11 41v89h115v-143h107v-101h-107v-319h99v-102zM223 -49q31 0 48 -15t17 -43v-13q0 -41 -18.5 -81t-46.5 -65h-77q46 42 58 93q-45 4 -45 56v10q0 28 17 43t47 15z" />
    <glyph glyph-name="uni0237" unicode="&#x237;" horiz-adv-x="276" 
d="M-6 -200v102h80v620h128v-585q0 -137 -138 -137h-70z" />
    <glyph glyph-name="uni0259" unicode="&#x259;" horiz-adv-x="558" 
d="M39 294h347v12q0 58 -31.5 92t-91.5 34q-81 0 -131 -71l-69 77q70 96 213 96q114 0 178.5 -73.5t64.5 -199.5t-64 -199.5t-178 -73.5q-116 0 -177 74.5t-61 188.5v43zM172 214v-9q0 -55 27 -87.5t76 -32.5q50 0 80.5 33.5t30.5 88.5v7h-214z" />
    <glyph glyph-name="uni02BB" unicode="&#x2bb;" 
d="M301 582q-64 0 -64 57v13q0 42 18.5 82t46.5 65h77q-45 -41 -59 -93q45 -5 45 -56v-11q0 -57 -64 -57z" />
    <glyph glyph-name="uni02BC" unicode="&#x2bc;" 
d="M331 740l-62 -206h-84l8 206h138z" />
    <glyph glyph-name="circumflex" unicode="&#x2c6;" 
d="M242 786h116l126 -154l-64 -50l-120 115l-120 -115l-64 50z" />
    <glyph glyph-name="caron" unicode="&#x2c7;" 
d="M358 591h-116l-126 154l64 50l120 -116l120 116l64 -50z" />
    <glyph glyph-name="breve" unicode="&#x2d8;" 
d="M300 584q-41 0 -72.5 14t-52 40t-32 49t-22.5 54l71 36l20 -33q22 -36 41 -52.5t47 -16.5t47.5 16.5t41.5 52.5l20 33l70 -36q-54 -157 -179 -157z" />
    <glyph glyph-name="dotaccent" unicode="&#x2d9;" 
d="M300 598q-78 0 -78 63v24q0 63 78 63t78 -63v-24q0 -63 -78 -63z" />
    <glyph glyph-name="ring" unicode="&#x2da;" 
d="M300 563q-59 0 -99 38.5t-40 96.5t40 96.5t99 38.5t99 -38.5t40 -96.5t-40 -96.5t-99 -38.5zM300 631q53 0 53 52v30q0 52 -53 52t-53 -52v-30q0 -52 53 -52z" />
    <glyph glyph-name="ogonek" unicode="&#x2db;" 
d="M225 -211q-51 0 -83 20t-32 63q0 39 28 67t86 59l-7 24h82l9 -22q-66 -46 -87.5 -68.5t-21.5 -41.5q0 -32 36 -32q29 0 53 26l49 -47q-26 -48 -112 -48z" />
    <glyph glyph-name="tilde" unicode="&#x2dc;" 
d="M375 604q-30 0 -78 22q-53 23 -75 23q-27 0 -59 -26l-47 60q43 61 109 61q30 0 78 -22q49 -23 75 -23q27 0 59 26l47 -60q-43 -61 -109 -61z" />
    <glyph glyph-name="hungarumlaut" unicode="&#x2dd;" 
d="M341 752l-126 -171l-71 34l95 187zM532 752l-125 -171l-72 34l95 187z" />
    <glyph glyph-name="uni0300" unicode="&#x300;" horiz-adv-x="0" 
d="M-13 581l-126 171l108 53l95 -187z" />
    <glyph glyph-name="uni0301" unicode="&#x301;" horiz-adv-x="0" 
d="M139 752l-126 -171l-77 37l95 187z" />
    <glyph glyph-name="uni0302" unicode="&#x302;" horiz-adv-x="0" 
d="M-58 786h116l126 -154l-64 -50l-120 115l-120 -115l-64 50z" />
    <glyph glyph-name="uni0303" unicode="&#x303;" horiz-adv-x="0" 
d="M75 604q-30 0 -78 22q-53 23 -75 23q-27 0 -59 -26l-47 60q43 61 109 61q30 0 78 -22q49 -23 75 -23q27 0 59 26l47 -60q-43 -61 -109 -61z" />
    <glyph glyph-name="uni0304" unicode="&#x304;" horiz-adv-x="0" 
d="M-149 628v93h298v-93h-298z" />
    <glyph glyph-name="uni0306" unicode="&#x306;" horiz-adv-x="0" 
d="M0 584q-41 0 -72.5 14t-52 40t-32 49t-22.5 54l71 36l20 -33q22 -36 41 -52.5t47 -16.5t47.5 16.5t41.5 52.5l20 33l70 -36q-54 -157 -179 -157z" />
    <glyph glyph-name="uni0307" unicode="&#x307;" horiz-adv-x="0" 
d="M0 598q-78 0 -78 63v24q0 63 78 63t78 -63v-24q0 -63 -78 -63z" />
    <glyph glyph-name="uni0308" unicode="&#x308;" horiz-adv-x="0" 
d="M-105 605q-71 0 -71 58v21q0 58 71 58t71 -58v-21q0 -58 -71 -58zM105 605q-71 0 -71 58v21q0 58 71 58t71 -58v-21q0 -58 -71 -58z" />
    <glyph glyph-name="uni0309" unicode="&#x309;" horiz-adv-x="0" 
d="M-109 698v93h133q89 0 89 -68q0 -51 -54 -119l-27 -33l-67 32l46 95h-120z" />
    <glyph glyph-name="uni030A" unicode="&#x30a;" horiz-adv-x="0" 
d="M0 563q-59 0 -99 38.5t-40 96.5t40 96.5t99 38.5t99 -38.5t40 -96.5t-40 -96.5t-99 -38.5zM0 631q53 0 53 52v30q0 52 -53 52t-53 -52v-30q0 -52 53 -52z" />
    <glyph glyph-name="uni030B" unicode="&#x30b;" horiz-adv-x="0" 
d="M41 752l-126 -171l-71 34l95 187zM232 752l-125 -171l-72 34l95 187z" />
    <glyph glyph-name="uni030C" unicode="&#x30c;" horiz-adv-x="0" 
d="M58 591h-116l-126 154l64 50l120 -116l120 116l64 -50z" />
    <glyph glyph-name="uni0312" unicode="&#x312;" horiz-adv-x="0" 
d="M1 582q-64 0 -64 57v13q0 42 18.5 82t46.5 65h77q-45 -41 -59 -93q45 -5 45 -56v-11q0 -57 -64 -57z" />
    <glyph glyph-name="uni0315" unicode="&#x315;" horiz-adv-x="0" 
d="M146 740l-62 -206h-84l8 206h138z" />
    <glyph glyph-name="uni031B" unicode="&#x31b;" horiz-adv-x="0" 
d="M111 630v-96q0 -46 -19 -68t-70 -22h-133v78h113v108h109z" />
    <glyph glyph-name="uni0323" unicode="&#x323;" horiz-adv-x="0" 
d="M0 -194q-72 0 -72 58v22q0 58 72 58t72 -58v-22q0 -58 -72 -58z" />
    <glyph glyph-name="uni0326" unicode="&#x326;" horiz-adv-x="0" 
d="M-1 -49q31 0 48 -15t17 -43v-13q0 -41 -18.5 -81t-46.5 -65h-77q46 42 58 93q-45 4 -45 56v10q0 28 17 43t47 15z" />
    <glyph glyph-name="uni0327" unicode="&#x327;" horiz-adv-x="0" 
d="M13 -211q-81 0 -116 44l43 51q24 -29 65 -29q44 0 44 27q0 32 -73 41l-23 2l21 102h62l-17 -84l3 -3q23 6 46 6q31 0 51 -17t20 -51q0 -46 -35.5 -67.5t-90.5 -21.5z" />
    <glyph glyph-name="uni0328" unicode="&#x328;" horiz-adv-x="0" 
d="M-48 -211q-51 0 -83 20t-32 63q0 39 28 67t86 59l-7 24h82l9 -22q-66 -46 -87.5 -68.5t-21.5 -41.5q0 -32 36 -32q29 0 53 26l49 -47q-26 -48 -112 -48z" />
    <glyph glyph-name="pi" unicode="&#x3c0;" horiz-adv-x="629" 
d="M521 421v-319h77v-102h-70q-66 0 -100.5 34.5t-34.5 97.5v289h-164v-421h-128v421h-77v101h574v-101h-77z" />
    <glyph glyph-name="uni0E3F" unicode="&#xe3f;" horiz-adv-x="659" 
d="M378 20v-108h-100v108h-196v658h196v102h100v-102h32q82 0 129.5 -46t47.5 -123q0 -66 -31.5 -99t-93.5 -42v-6q67 -6 108.5 -42t41.5 -111q0 -79 -49.5 -134t-123.5 -55h-61zM207 404h78v167h-78v-167zM372 571v-167h14q71 0 71 68v30q0 69 -71 69h-14zM207 127h78v174
h-78v-174zM372 301v-174h32q36 0 57 18.5t21 52.5v33q0 33 -21 51.5t-57 18.5h-32z" />
    <glyph glyph-name="Wgrave" unicode="&#x1e80;" horiz-adv-x="949" 
d="M338 0h-150l-162 698h132l69 -335l43 -214h3l50 214l80 335h146l80 -335l49 -214h3l44 214l71 335h126l-167 -698h-149l-89 369l-43 184h-2l-45 -184zM462 744l-126 171l108 54l95 -187z" />
    <glyph glyph-name="wgrave" unicode="&#x1e81;" horiz-adv-x="819" 
d="M397 581l-126 171l108 53l95 -187zM167 0l-144 522h123l53 -215l41 -179h4l48 179l61 215h116l63 -215l49 -179h4l41 179l52 215h119l-143 -522h-138l-67 230l-39 142h-3l-38 -142l-66 -230h-136z" />
    <glyph glyph-name="Wacute" unicode="&#x1e82;" horiz-adv-x="949" 
d="M338 0h-150l-162 698h132l69 -335l43 -214h3l50 214l80 335h146l80 -335l49 -214h3l44 214l71 335h126l-167 -698h-149l-89 369l-43 184h-2l-45 -184zM614 915l-126 -171l-77 38l95 187z" />
    <glyph glyph-name="wacute" unicode="&#x1e83;" horiz-adv-x="819" 
d="M167 0l-144 522h123l53 -215l41 -179h4l48 179l61 215h116l63 -215l49 -179h4l41 179l52 215h119l-143 -522h-138l-67 230l-39 142h-3l-38 -142l-66 -230h-136zM549 752l-126 -171l-77 37l95 187z" />
    <glyph glyph-name="Wdieresis" unicode="&#x1e84;" horiz-adv-x="949" 
d="M370 769q-71 0 -71 58v21q0 59 71 59t71 -59v-21q0 -58 -71 -58zM580 769q-71 0 -71 58v21q0 59 71 59t71 -59v-21q0 -58 -71 -58zM338 0h-150l-162 698h132l69 -335l43 -214h3l50 214l80 335h146l80 -335l49 -214h3l44 214l71 335h126l-167 -698h-149l-89 369l-43 184
h-2l-45 -184z" />
    <glyph glyph-name="wdieresis" unicode="&#x1e85;" horiz-adv-x="819" 
d="M167 0l-144 522h123l53 -215l41 -179h4l48 179l61 215h116l63 -215l49 -179h4l41 179l52 215h119l-143 -522h-138l-67 230l-39 142h-3l-38 -142l-66 -230h-136zM305 605q-71 0 -71 58v21q0 58 71 58t71 -58v-21q0 -58 -71 -58zM515 605q-71 0 -71 58v21q0 58 71 58
t71 -58v-21q0 -58 -71 -58z" />
    <glyph glyph-name="uni1E9E" unicode="&#x1e9e;" horiz-adv-x="722" 
d="M685 210q0 -99 -61 -160.5t-165 -61.5q-129 0 -198 83l84 83q48 -56 114 -56q43 0 67.5 25.5t24.5 65.5v34q0 41 -26.5 64.5t-79.5 23.5h-95v105l146 170h-282v-586h-132v698h545v-122l-141 -164v-4q82 -4 140.5 -54.5t58.5 -143.5z" />
    <glyph glyph-name="uni1EA0" unicode="&#x1ea0;" horiz-adv-x="672" 
d="M334 -194q-72 0 -72 58v22q0 58 72 58t72 -58v-22q0 -58 -72 -58zM651 0h-137l-56 178h-248l-55 -178h-134l234 699h164zM426 291l-90 287h-5l-89 -287h184z" />
    <glyph glyph-name="uni1EA1" unicode="&#x1ea1;" horiz-adv-x="559" 
d="M262 -194q-72 0 -72 58v22q0 58 72 58t72 -58v-22q0 -58 -72 -58zM203 -12q-78 0 -122 41.5t-44 112.5q0 79 57.5 119.5t165.5 40.5h89v38q0 92 -97 92q-73 0 -119 -66l-76 68q63 100 204 100q105 0 160.5 -48t55.5 -138v-246h52v-102h-71q-40 0 -65.5 24.5t-31.5 65.5
h-6q-13 -50 -53 -76t-99 -26zM246 81q45 0 74 20t29 55v69h-82q-100 0 -100 -64v-17q0 -63 79 -63z" />
    <glyph glyph-name="uni1EA2" unicode="&#x1ea2;" horiz-adv-x="672" 
d="M225 862v93h133q89 0 89 -68q0 -51 -54 -119l-27 -33l-67 31l46 96h-120zM651 0h-137l-56 178h-248l-55 -178h-134l234 699h164zM426 291l-90 287h-5l-89 -287h184z" />
    <glyph glyph-name="uni1EA3" unicode="&#x1ea3;" horiz-adv-x="559" 
d="M154 698v93h133q89 0 89 -68q0 -51 -54 -119l-27 -33l-67 32l46 95h-120zM203 -12q-78 0 -122 41.5t-44 112.5q0 79 57.5 119.5t165.5 40.5h89v38q0 92 -97 92q-73 0 -119 -66l-76 68q63 100 204 100q105 0 160.5 -48t55.5 -138v-246h52v-102h-71q-40 0 -65.5 24.5
t-31.5 65.5h-6q-13 -50 -53 -76t-99 -26zM246 81q45 0 74 20t29 55v69h-82q-100 0 -100 -64v-17q0 -63 79 -63z" />
    <glyph glyph-name="uni1EA4" unicode="&#x1ea4;" horiz-adv-x="672" 
d="M627 1057l-126 -171l-70 35l95 187zM286 934h96l135 -143l-60 -54l-123 106l-123 -106l-60 54zM651 0h-137l-56 178h-248l-55 -178h-134l234 699h164zM426 291l-90 287h-5l-89 -287h184z" />
    <glyph glyph-name="uni1EA5" unicode="&#x1ea5;" horiz-adv-x="559" 
d="M556 894l-126 -171l-70 34l95 187zM215 770h96l135 -143l-60 -54l-123 107l-123 -107l-60 54zM203 -12q-78 0 -122 41.5t-44 112.5q0 79 57.5 119.5t165.5 40.5h89v38q0 92 -97 92q-73 0 -119 -66l-76 68q63 100 204 100q105 0 160.5 -48t55.5 -138v-246h52v-102h-71
q-40 0 -65.5 24.5t-31.5 65.5h-6q-13 -50 -53 -76t-99 -26zM246 81q45 0 74 20t29 55v69h-82q-100 0 -100 -64v-17q0 -63 79 -63z" />
    <glyph glyph-name="uni1EA6" unicode="&#x1ea6;" horiz-adv-x="672" 
d="M167 886l-126 171l101 51l95 -187zM286 934h96l135 -143l-60 -54l-123 106l-123 -106l-60 54zM651 0h-137l-56 178h-248l-55 -178h-134l234 699h164zM426 291l-90 287h-5l-89 -287h184z" />
    <glyph glyph-name="uni1EA7" unicode="&#x1ea7;" horiz-adv-x="559" 
d="M96 723l-126 171l101 50l95 -187zM215 770h96l135 -143l-60 -54l-123 107l-123 -107l-60 54zM203 -12q-78 0 -122 41.5t-44 112.5q0 79 57.5 119.5t165.5 40.5h89v38q0 92 -97 92q-73 0 -119 -66l-76 68q63 100 204 100q105 0 160.5 -48t55.5 -138v-246h52v-102h-71
q-40 0 -65.5 24.5t-31.5 65.5h-6q-13 -50 -53 -76t-99 -26zM246 81q45 0 74 20t29 55v69h-82q-100 0 -100 -64v-17q0 -63 79 -63z" />
    <glyph glyph-name="uni1EA8" unicode="&#x1ea8;" horiz-adv-x="672" 
d="M376 1006v88h126q90 0 90 -67q0 -47 -59 -119l-26 -33l-60 31l48 100h-119zM286 934h96l135 -143l-60 -54l-123 106l-123 -106l-60 54zM651 0h-137l-56 178h-248l-55 -178h-134l234 699h164zM426 291l-90 287h-5l-89 -287h184z" />
    <glyph glyph-name="uni1EA9" unicode="&#x1ea9;" horiz-adv-x="559" 
d="M305 842v89h126q47 0 68.5 -19t21.5 -48q0 -46 -59 -120l-26 -32l-60 30l48 100h-119zM215 770h96l135 -143l-60 -54l-123 107l-123 -107l-60 54zM203 -12q-78 0 -122 41.5t-44 112.5q0 79 57.5 119.5t165.5 40.5h89v38q0 92 -97 92q-73 0 -119 -66l-76 68
q63 100 204 100q105 0 160.5 -48t55.5 -138v-246h52v-102h-71q-40 0 -65.5 24.5t-31.5 65.5h-6q-13 -50 -53 -76t-99 -26zM246 81q45 0 74 20t29 55v69h-82q-100 0 -100 -64v-17q0 -63 79 -63z" />
    <glyph glyph-name="uni1EAA" unicode="&#x1eaa;" horiz-adv-x="672" 
d="M260 1089q30 0 78 -22q49 -23 75 -23q27 0 59 26l45 -56q-43 -61 -109 -61q-30 0 -78 22q-49 23 -75 23q-27 0 -59 -26l-45 56q43 61 109 61zM285 925h98l132 -134l-58 -54l-123 100l-123 -100l-58 54zM651 0h-137l-56 178h-248l-55 -178h-134l234 699h164zM426 291
l-90 287h-5l-89 -287h184z" />
    <glyph glyph-name="uni1EAB" unicode="&#x1eab;" horiz-adv-x="559" 
d="M189 925q30 0 78 -22q51 -22 75 -22q28 0 59 25l45 -56q-42 -60 -109 -60q-32 0 -78 21q-49 23 -75 23q-27 0 -59 -26l-45 56q43 61 109 61zM214 761h98l132 -134l-58 -54l-123 100l-123 -100l-58 54zM203 -12q-78 0 -122 41.5t-44 112.5q0 79 57.5 119.5t165.5 40.5h89
v38q0 92 -97 92q-73 0 -119 -66l-76 68q63 100 204 100q105 0 160.5 -48t55.5 -138v-246h52v-102h-71q-40 0 -65.5 24.5t-31.5 65.5h-6q-13 -50 -53 -76t-99 -26zM246 81q45 0 74 20t29 55v69h-82q-100 0 -100 -64v-17q0 -63 79 -63z" />
    <glyph glyph-name="uni1EAC" unicode="&#x1eac;" horiz-adv-x="672" 
d="M334 -194q-72 0 -72 58v22q0 58 72 58t72 -58v-22q0 -58 -72 -58zM276 950h116l126 -154l-64 -51l-120 116l-120 -116l-64 51zM651 0h-137l-56 178h-248l-55 -178h-134l234 699h164zM426 291l-90 287h-5l-89 -287h184z" />
    <glyph glyph-name="uni1EAD" unicode="&#x1ead;" horiz-adv-x="559" 
d="M262 -194q-72 0 -72 58v22q0 58 72 58t72 -58v-22q0 -58 -72 -58zM205 786h116l126 -154l-64 -50l-120 115l-120 -115l-64 50zM203 -12q-78 0 -122 41.5t-44 112.5q0 79 57.5 119.5t165.5 40.5h89v38q0 92 -97 92q-73 0 -119 -66l-76 68q63 100 204 100q105 0 160.5 -48
t55.5 -138v-246h52v-102h-71q-40 0 -65.5 24.5t-31.5 65.5h-6q-13 -50 -53 -76t-99 -26zM246 81q45 0 74 20t29 55v69h-82q-100 0 -100 -64v-17q0 -63 79 -63z" />
    <glyph glyph-name="uni1EAE" unicode="&#x1eae;" horiz-adv-x="672" 
d="M334 740q-133 0 -184 142l66 39l20 -32q39 -61 98 -61t98 61l20 32l66 -39q-51 -142 -184 -142zM472 1057l-123 -171l-70 35l93 187zM651 0h-137l-56 178h-248l-55 -178h-134l234 699h164zM426 291l-90 287h-5l-89 -287h184z" />
    <glyph glyph-name="uni1EAF" unicode="&#x1eaf;" horiz-adv-x="559" 
d="M263 576q-132 0 -185 142l66 40l20 -31q42 -63 99 -63t99 63l20 31l66 -40q-53 -142 -185 -142zM401 894l-123 -171l-70 34l93 187zM203 -12q-78 0 -122 41.5t-44 112.5q0 79 57.5 119.5t165.5 40.5h89v38q0 92 -97 92q-73 0 -119 -66l-76 68q63 100 204 100
q105 0 160.5 -48t55.5 -138v-246h52v-102h-71q-40 0 -65.5 24.5t-31.5 65.5h-6q-13 -50 -53 -76t-99 -26zM246 81q45 0 74 20t29 55v69h-82q-100 0 -100 -64v-17q0 -63 79 -63z" />
    <glyph glyph-name="uni1EB0" unicode="&#x1eb0;" horiz-adv-x="672" 
d="M334 740q-133 0 -184 142l66 39l20 -32q39 -61 98 -61t98 61l20 32l66 -39q-51 -142 -184 -142zM319 886l-121 171l99 51l93 -186zM651 0h-137l-56 178h-248l-55 -178h-134l234 699h164zM426 291l-90 287h-5l-89 -287h184z" />
    <glyph glyph-name="uni1EB1" unicode="&#x1eb1;" horiz-adv-x="559" 
d="M263 576q-132 0 -185 142l66 40l20 -31q42 -63 99 -63t99 63l20 31l66 -40q-53 -142 -185 -142zM248 723l-121 171l99 50l93 -186zM203 -12q-78 0 -122 41.5t-44 112.5q0 79 57.5 119.5t165.5 40.5h89v38q0 92 -97 92q-73 0 -119 -66l-76 68q63 100 204 100
q105 0 160.5 -48t55.5 -138v-246h52v-102h-71q-40 0 -65.5 24.5t-31.5 65.5h-6q-13 -50 -53 -76t-99 -26zM246 81q45 0 74 20t29 55v69h-82q-100 0 -100 -64v-17q0 -63 79 -63z" />
    <glyph glyph-name="uni1EB2" unicode="&#x1eb2;" horiz-adv-x="672" 
d="M216 1006v88h124q89 0 89 -67q0 -49 -58 -119l-26 -33l-59 30l48 101h-118zM334 740q-133 0 -184 142l66 39l20 -32q39 -61 98 -61t98 61l20 32l66 -39q-51 -142 -184 -142zM651 0h-137l-56 178h-248l-55 -178h-134l234 699h164zM426 291l-90 287h-5l-89 -287h184z" />
    <glyph glyph-name="uni1EB3" unicode="&#x1eb3;" horiz-adv-x="559" 
d="M263 576q-132 0 -185 142l66 40l20 -31q42 -63 99 -63t99 63l20 31l66 -40q-53 -142 -185 -142zM145 842v89h124q89 0 89 -67q0 -50 -58 -120l-26 -32l-59 29l48 101h-118zM203 -12q-78 0 -122 41.5t-44 112.5q0 79 57.5 119.5t165.5 40.5h89v38q0 92 -97 92
q-73 0 -119 -66l-76 68q63 100 204 100q105 0 160.5 -48t55.5 -138v-246h52v-102h-71q-40 0 -65.5 24.5t-31.5 65.5h-6q-13 -50 -53 -76t-99 -26zM246 81q45 0 74 20t29 55v69h-82q-100 0 -100 -64v-17q0 -63 79 -63z" />
    <glyph glyph-name="uni1EB4" unicode="&#x1eb4;" horiz-adv-x="672" 
d="M405 946q-31 0 -75 21q-49 22 -73 22q-28 0 -59 -25l-44 56q40 60 108 60q30 0 76 -22q51 -21 73 -21q27 0 58 26l45 -56q-43 -61 -109 -61zM334 740q-133 0 -184 142l66 39l20 -32q39 -61 98 -61t98 61l20 32l66 -39q-51 -142 -184 -142zM651 0h-137l-56 178h-248
l-55 -178h-134l234 699h164zM426 291l-90 287h-5l-89 -287h184z" />
    <glyph glyph-name="uni1EB5" unicode="&#x1eb5;" horiz-adv-x="559" 
d="M263 576q-132 0 -185 142l66 40l20 -31q42 -63 99 -63t99 63l20 31l66 -40q-53 -142 -185 -142zM334 783q-31 0 -75 21q-49 22 -73 22q-28 0 -59 -25l-44 56q40 60 108 60q30 0 76 -22q51 -21 73 -21q27 0 58 26l45 -56q-43 -61 -109 -61zM203 -12q-78 0 -122 41.5
t-44 112.5q0 79 57.5 119.5t165.5 40.5h89v38q0 92 -97 92q-73 0 -119 -66l-76 68q63 100 204 100q105 0 160.5 -48t55.5 -138v-246h52v-102h-71q-40 0 -65.5 24.5t-31.5 65.5h-6q-13 -50 -53 -76t-99 -26zM246 81q45 0 74 20t29 55v69h-82q-100 0 -100 -64v-17
q0 -63 79 -63z" />
    <glyph glyph-name="uni1EB6" unicode="&#x1eb6;" horiz-adv-x="672" 
d="M334 -194q-72 0 -72 58v22q0 58 72 58t72 -58v-22q0 -58 -72 -58zM334 748q-41 0 -73 14t-52 39.5t-32 49t-22 53.5l71 36l19 -32q22 -36 41 -52.5t48 -16.5t48.5 16.5t41.5 52.5l19 32l70 -36q-51 -156 -179 -156zM651 0h-137l-56 178h-248l-55 -178h-134l234 699h164z
M426 291l-90 287h-5l-89 -287h184z" />
    <glyph glyph-name="uni1EB7" unicode="&#x1eb7;" horiz-adv-x="559" 
d="M262 -194q-72 0 -72 58v22q0 58 72 58t72 -58v-22q0 -58 -72 -58zM263 584q-41 0 -72.5 14t-52 40t-32 49t-22.5 54l71 36l20 -33q22 -36 41 -52.5t47 -16.5t47.5 16.5t41.5 52.5l20 33l70 -36q-54 -157 -179 -157zM203 -12q-78 0 -122 41.5t-44 112.5q0 79 57.5 119.5
t165.5 40.5h89v38q0 92 -97 92q-73 0 -119 -66l-76 68q63 100 204 100q105 0 160.5 -48t55.5 -138v-246h52v-102h-71q-40 0 -65.5 24.5t-31.5 65.5h-6q-13 -50 -53 -76t-99 -26zM246 81q45 0 74 20t29 55v69h-82q-100 0 -100 -64v-17q0 -63 79 -63z" />
    <glyph glyph-name="uni1EB8" unicode="&#x1eb8;" 
d="M312 -194q-72 0 -72 58v22q0 58 72 58t72 -58v-22q0 -58 -72 -58zM542 0h-460v698h460v-117h-328v-169h290v-117h-290v-178h328v-117z" />
    <glyph glyph-name="uni1EB9" unicode="&#x1eb9;" horiz-adv-x="558" 
d="M283 -194q-72 0 -72 58v22q0 58 72 58t72 -58v-22q0 -58 -72 -58zM285 -12q-115 0 -180.5 74t-65.5 200q0 125 64 198.5t178 73.5q116 0 177 -74.5t61 -188.5v-42h-347v-13q0 -58 32.5 -92t94.5 -34q78 0 133 71l69 -77q-70 -96 -216 -96zM283 438q-50 0 -80.5 -34
t-30.5 -88v-8h214v9q0 55 -27 88t-76 33z" />
    <glyph glyph-name="uni1EBA" unicode="&#x1eba;" 
d="M203 862v93h133q89 0 89 -68q0 -51 -54 -119l-27 -33l-67 31l46 96h-120zM542 0h-460v698h460v-117h-328v-169h290v-117h-290v-178h328v-117z" />
    <glyph glyph-name="uni1EBB" unicode="&#x1ebb;" horiz-adv-x="558" 
d="M176 698v93h133q89 0 89 -68q0 -51 -54 -119l-27 -33l-67 32l46 95h-120zM285 -12q-115 0 -180.5 74t-65.5 200q0 125 64 198.5t178 73.5q116 0 177 -74.5t61 -188.5v-42h-347v-13q0 -58 32.5 -92t94.5 -34q78 0 133 71l69 -77q-70 -96 -216 -96zM283 438
q-50 0 -80.5 -34t-30.5 -88v-8h214v9q0 55 -27 88t-76 33z" />
    <glyph glyph-name="uni1EBC" unicode="&#x1ebc;" 
d="M387 768q-30 0 -78 22q-51 22 -75 22q-28 0 -59 -25l-47 59q41 61 109 61q30 0 78 -22q51 -22 75 -22q28 0 59 25l47 -59q-41 -61 -109 -61zM542 0h-460v698h460v-117h-328v-169h290v-117h-290v-178h328v-117z" />
    <glyph glyph-name="uni1EBD" unicode="&#x1ebd;" horiz-adv-x="558" 
d="M360 604q-30 0 -78 22q-53 23 -75 23q-27 0 -59 -26l-47 60q43 61 109 61q30 0 78 -22q49 -23 75 -23q27 0 59 26l47 -60q-43 -61 -109 -61zM285 -12q-115 0 -180.5 74t-65.5 200q0 125 64 198.5t178 73.5q116 0 177 -74.5t61 -188.5v-42h-347v-13q0 -58 32.5 -92
t94.5 -34q78 0 133 71l69 -77q-70 -96 -216 -96zM283 438q-50 0 -80.5 -34t-30.5 -88v-8h214v9q0 55 -27 88t-76 33z" />
    <glyph glyph-name="uni1EBE" unicode="&#x1ebe;" 
d="M605 1057l-126 -171l-70 35l95 187zM264 934h96l135 -143l-60 -54l-123 106l-123 -106l-60 54zM542 0h-460v698h460v-117h-328v-169h290v-117h-290v-178h328v-117z" />
    <glyph glyph-name="uni1EBF" unicode="&#x1ebf;" horiz-adv-x="558" 
d="M285 -12q-115 0 -180.5 74t-65.5 200q0 125 64 198.5t178 73.5q116 0 177 -74.5t61 -188.5v-42h-347v-13q0 -58 32.5 -92t94.5 -34q78 0 133 71l69 -77q-70 -96 -216 -96zM283 438q-50 0 -80.5 -34t-30.5 -88v-8h214v9q0 55 -27 88t-76 33zM578 894l-126 -171l-70 34
l95 187zM237 770h96l135 -143l-60 -54l-123 107l-123 -107l-60 54z" />
    <glyph glyph-name="uni1EC0" unicode="&#x1ec0;" 
d="M542 0h-460v698h460v-117h-328v-169h290v-117h-290v-178h328v-117zM145 886l-126 171l101 51l95 -187zM264 934h96l135 -143l-60 -54l-123 106l-123 -106l-60 54z" />
    <glyph glyph-name="uni1EC1" unicode="&#x1ec1;" horiz-adv-x="558" 
d="M285 -12q-115 0 -180.5 74t-65.5 200q0 125 64 198.5t178 73.5q116 0 177 -74.5t61 -188.5v-42h-347v-13q0 -58 32.5 -92t94.5 -34q78 0 133 71l69 -77q-70 -96 -216 -96zM283 438q-50 0 -80.5 -34t-30.5 -88v-8h214v9q0 55 -27 88t-76 33zM118 723l-126 171l101 50
l95 -187zM237 770h96l135 -143l-60 -54l-123 107l-123 -107l-60 54z" />
    <glyph glyph-name="uni1EC2" unicode="&#x1ec2;" 
d="M542 0h-460v698h460v-117h-328v-169h290v-117h-290v-178h328v-117zM354 1006v88h126q90 0 90 -67q0 -47 -59 -119l-26 -33l-60 31l48 100h-119zM264 934h96l135 -143l-60 -54l-123 106l-123 -106l-60 54z" />
    <glyph glyph-name="uni1EC3" unicode="&#x1ec3;" horiz-adv-x="558" 
d="M327 842v89h126q47 0 68.5 -19t21.5 -48q0 -46 -59 -120l-26 -32l-60 30l48 100h-119zM237 770h96l135 -143l-60 -54l-123 107l-123 -107l-60 54zM285 -12q-115 0 -180.5 74t-65.5 200q0 125 64 198.5t178 73.5q116 0 177 -74.5t61 -188.5v-42h-347v-13q0 -58 32.5 -92
t94.5 -34q78 0 133 71l69 -77q-70 -96 -216 -96zM283 438q-50 0 -80.5 -34t-30.5 -88v-8h214v9q0 55 -27 88t-76 33z" />
    <glyph glyph-name="uni1EC4" unicode="&#x1ec4;" 
d="M238 1089q30 0 78 -22q49 -23 75 -23q27 0 59 26l45 -56q-43 -61 -109 -61q-30 0 -78 22q-49 23 -75 23q-27 0 -59 -26l-45 56q43 61 109 61zM263 925h98l132 -134l-58 -54l-123 100l-123 -100l-58 54zM542 0h-460v698h460v-117h-328v-169h290v-117h-290v-178h328v-117z
" />
    <glyph glyph-name="uni1EC5" unicode="&#x1ec5;" horiz-adv-x="558" 
d="M211 925q30 0 78 -22q51 -22 75 -22q28 0 59 25l45 -56q-42 -60 -109 -60q-32 0 -78 21q-49 23 -75 23q-27 0 -59 -26l-45 56q43 61 109 61zM236 761h98l132 -134l-58 -54l-123 100l-123 -100l-58 54zM285 -12q-115 0 -180.5 74t-65.5 200q0 125 64 198.5t178 73.5
q116 0 177 -74.5t61 -188.5v-42h-347v-13q0 -58 32.5 -92t94.5 -34q78 0 133 71l69 -77q-70 -96 -216 -96zM283 438q-50 0 -80.5 -34t-30.5 -88v-8h214v9q0 55 -27 88t-76 33z" />
    <glyph glyph-name="uni1EC6" unicode="&#x1ec6;" 
d="M312 -194q-72 0 -72 58v22q0 58 72 58t72 -58v-22q0 -58 -72 -58zM542 0h-460v698h460v-117h-328v-169h290v-117h-290v-178h328v-117zM254 950h116l126 -154l-64 -51l-120 116l-120 -116l-64 51z" />
    <glyph glyph-name="uni1EC7" unicode="&#x1ec7;" horiz-adv-x="558" 
d="M283 -194q-72 0 -72 58v22q0 58 72 58t72 -58v-22q0 -58 -72 -58zM285 -12q-115 0 -180.5 74t-65.5 200q0 125 64 198.5t178 73.5q116 0 177 -74.5t61 -188.5v-42h-347v-13q0 -58 32.5 -92t94.5 -34q78 0 133 71l69 -77q-70 -96 -216 -96zM283 438q-50 0 -80.5 -34
t-30.5 -88v-8h214v9q0 55 -27 88t-76 33zM227 786h116l126 -154l-64 -50l-120 115l-120 -115l-64 50z" />
    <glyph glyph-name="uni1EC8" unicode="&#x1ec8;" horiz-adv-x="423" 
d="M102 862v93h133q89 0 89 -68q0 -51 -54 -119l-27 -33l-67 31l46 96h-120zM370 0h-317v106h92v486h-92v106h317v-106h-93v-486h93v-106z" />
    <glyph glyph-name="uni1EC9" unicode="&#x1ec9;" horiz-adv-x="276" 
d="M29 698v93h133q89 0 89 -68q0 -51 -54 -119l-27 -33l-67 32l46 95h-120zM202 0h-128v522h128v-522z" />
    <glyph glyph-name="uni1ECA" unicode="&#x1eca;" horiz-adv-x="423" 
d="M211 -194q-72 0 -72 58v22q0 58 72 58t72 -58v-22q0 -58 -72 -58zM370 0h-317v106h92v486h-92v106h317v-106h-93v-486h93v-106z" />
    <glyph glyph-name="uni1ECB" unicode="&#x1ecb;" horiz-adv-x="276" 
d="M137 -194q-72 0 -72 58v22q0 58 72 58t72 -58v-22q0 -58 -72 -58zM138 598q-75 0 -75 64v20q0 64 75 64q37 0 56 -17.5t19 -46.5v-20q0 -29 -19 -46.5t-56 -17.5zM74 0v522h128v-522h-128z" />
    <glyph glyph-name="uni1ECC" unicode="&#x1ecc;" horiz-adv-x="712" 
d="M356 -194q-72 0 -72 58v22q0 58 72 58t72 -58v-22q0 -58 -72 -58zM356 -12q-140 0 -222 93.5t-82 267.5t82 267.5t222 93.5q141 0 222.5 -93.5t81.5 -267.5t-81.5 -267.5t-222.5 -93.5zM356 105q75 0 119.5 50.5t44.5 139.5v108q0 89 -44.5 139.5t-119.5 50.5
t-119.5 -50.5t-44.5 -139.5v-108q0 -89 44.5 -139.5t119.5 -50.5z" />
    <glyph glyph-name="uni1ECD" unicode="&#x1ecd;" horiz-adv-x="563" 
d="M281 -194q-72 0 -72 58v22q0 58 72 58t72 -58v-22q0 -58 -72 -58zM281 -12q-112 0 -177 74t-65 200q0 125 65 198.5t177 73.5t177.5 -73.5t65.5 -198.5q0 -126 -65.5 -200t-177.5 -74zM281 91q51 0 80 31.5t29 90.5v97q0 58 -29 89.5t-80 31.5q-50 0 -79 -31.5t-29 -89.5
v-97q0 -58 29 -90t79 -32z" />
    <glyph glyph-name="uni1ECE" unicode="&#x1ece;" horiz-adv-x="712" 
d="M356 -12q-140 0 -222 93.5t-82 267.5t82 267.5t222 93.5q141 0 222.5 -93.5t81.5 -267.5t-81.5 -267.5t-222.5 -93.5zM356 105q75 0 119.5 50.5t44.5 139.5v108q0 89 -44.5 139.5t-119.5 50.5t-119.5 -50.5t-44.5 -139.5v-108q0 -89 44.5 -139.5t119.5 -50.5zM247 862v93
h133q89 0 89 -68q0 -51 -54 -119l-27 -33l-67 31l46 96h-120z" />
    <glyph glyph-name="uni1ECF" unicode="&#x1ecf;" horiz-adv-x="563" 
d="M172 698v93h133q89 0 89 -68q0 -51 -54 -119l-27 -33l-67 32l46 95h-120zM281 -12q-112 0 -177 74t-65 200q0 125 65 198.5t177 73.5t177.5 -73.5t65.5 -198.5q0 -126 -65.5 -200t-177.5 -74zM281 91q51 0 80 31.5t29 90.5v97q0 58 -29 89.5t-80 31.5q-50 0 -79 -31.5
t-29 -89.5v-97q0 -58 29 -90t79 -32z" />
    <glyph glyph-name="uni1ED0" unicode="&#x1ed0;" horiz-adv-x="712" 
d="M356 -12q-140 0 -222 93.5t-82 267.5t82 267.5t222 93.5q141 0 222.5 -93.5t81.5 -267.5t-81.5 -267.5t-222.5 -93.5zM356 105q75 0 119.5 50.5t44.5 139.5v108q0 89 -44.5 139.5t-119.5 50.5t-119.5 -50.5t-44.5 -139.5v-108q0 -89 44.5 -139.5t119.5 -50.5zM649 1057
l-126 -171l-70 35l95 187zM308 934h96l135 -143l-60 -54l-123 106l-123 -106l-60 54z" />
    <glyph glyph-name="uni1ED1" unicode="&#x1ed1;" horiz-adv-x="563" 
d="M281 -12q-112 0 -177 74t-65 200q0 125 65 198.5t177 73.5t177.5 -73.5t65.5 -198.5q0 -126 -65.5 -200t-177.5 -74zM281 91q51 0 80 31.5t29 90.5v97q0 58 -29 89.5t-80 31.5q-50 0 -79 -31.5t-29 -89.5v-97q0 -58 29 -90t79 -32zM574 894l-126 -171l-70 34l95 187z
M233 770h96l135 -143l-60 -54l-123 107l-123 -107l-60 54z" />
    <glyph glyph-name="uni1ED2" unicode="&#x1ed2;" horiz-adv-x="712" 
d="M356 -12q-140 0 -222 93.5t-82 267.5t82 267.5t222 93.5q141 0 222.5 -93.5t81.5 -267.5t-81.5 -267.5t-222.5 -93.5zM356 105q75 0 119.5 50.5t44.5 139.5v108q0 89 -44.5 139.5t-119.5 50.5t-119.5 -50.5t-44.5 -139.5v-108q0 -89 44.5 -139.5t119.5 -50.5zM189 886
l-126 171l101 51l95 -187zM308 934h96l135 -143l-60 -54l-123 106l-123 -106l-60 54z" />
    <glyph glyph-name="uni1ED3" unicode="&#x1ed3;" horiz-adv-x="563" 
d="M281 -12q-112 0 -177 74t-65 200q0 125 65 198.5t177 73.5t177.5 -73.5t65.5 -198.5q0 -126 -65.5 -200t-177.5 -74zM281 91q51 0 80 31.5t29 90.5v97q0 58 -29 89.5t-80 31.5q-50 0 -79 -31.5t-29 -89.5v-97q0 -58 29 -90t79 -32zM114 723l-126 171l101 50l95 -187z
M233 770h96l135 -143l-60 -54l-123 107l-123 -107l-60 54z" />
    <glyph glyph-name="uni1ED4" unicode="&#x1ed4;" horiz-adv-x="712" 
d="M356 -12q-140 0 -222 93.5t-82 267.5t82 267.5t222 93.5q141 0 222.5 -93.5t81.5 -267.5t-81.5 -267.5t-222.5 -93.5zM356 105q75 0 119.5 50.5t44.5 139.5v108q0 89 -44.5 139.5t-119.5 50.5t-119.5 -50.5t-44.5 -139.5v-108q0 -89 44.5 -139.5t119.5 -50.5zM398 1006
v88h126q90 0 90 -67q0 -47 -59 -119l-26 -33l-60 31l48 100h-119zM308 934h96l135 -143l-60 -54l-123 106l-123 -106l-60 54z" />
    <glyph glyph-name="uni1ED5" unicode="&#x1ed5;" horiz-adv-x="563" 
d="M281 -12q-112 0 -177 74t-65 200q0 125 65 198.5t177 73.5t177.5 -73.5t65.5 -198.5q0 -126 -65.5 -200t-177.5 -74zM281 91q51 0 80 31.5t29 90.5v97q0 58 -29 89.5t-80 31.5q-50 0 -79 -31.5t-29 -89.5v-97q0 -58 29 -90t79 -32zM323 842v89h126q47 0 68.5 -19
t21.5 -48q0 -46 -59 -120l-26 -32l-60 30l48 100h-119zM233 770h96l135 -143l-60 -54l-123 107l-123 -107l-60 54z" />
    <glyph glyph-name="uni1ED6" unicode="&#x1ed6;" horiz-adv-x="712" 
d="M282 1089q30 0 78 -22q49 -23 75 -23q27 0 59 26l45 -56q-43 -61 -109 -61q-30 0 -78 22q-49 23 -75 23q-27 0 -59 -26l-45 56q43 61 109 61zM307 925h98l132 -134l-58 -54l-123 100l-123 -100l-58 54zM356 -12q-140 0 -222 93.5t-82 267.5t82 267.5t222 93.5
q141 0 222.5 -93.5t81.5 -267.5t-81.5 -267.5t-222.5 -93.5zM356 105q75 0 119.5 50.5t44.5 139.5v108q0 89 -44.5 139.5t-119.5 50.5t-119.5 -50.5t-44.5 -139.5v-108q0 -89 44.5 -139.5t119.5 -50.5z" />
    <glyph glyph-name="uni1ED7" unicode="&#x1ed7;" horiz-adv-x="563" 
d="M207 925q30 0 78 -22q51 -22 75 -22q28 0 59 25l45 -56q-42 -60 -109 -60q-32 0 -78 21q-49 23 -75 23q-27 0 -59 -26l-45 56q43 61 109 61zM232 761h98l132 -134l-58 -54l-123 100l-123 -100l-58 54zM281 -12q-112 0 -177 74t-65 200q0 125 65 198.5t177 73.5
t177.5 -73.5t65.5 -198.5q0 -126 -65.5 -200t-177.5 -74zM281 91q51 0 80 31.5t29 90.5v97q0 58 -29 89.5t-80 31.5q-50 0 -79 -31.5t-29 -89.5v-97q0 -58 29 -90t79 -32z" />
    <glyph glyph-name="uni1ED8" unicode="&#x1ed8;" horiz-adv-x="712" 
d="M356 -194q-72 0 -72 58v22q0 58 72 58t72 -58v-22q0 -58 -72 -58zM356 -12q-140 0 -222 93.5t-82 267.5t82 267.5t222 93.5q141 0 222.5 -93.5t81.5 -267.5t-81.5 -267.5t-222.5 -93.5zM356 105q75 0 119.5 50.5t44.5 139.5v108q0 89 -44.5 139.5t-119.5 50.5
t-119.5 -50.5t-44.5 -139.5v-108q0 -89 44.5 -139.5t119.5 -50.5zM298 950h116l126 -154l-64 -51l-120 116l-120 -116l-64 51z" />
    <glyph glyph-name="uni1ED9" unicode="&#x1ed9;" horiz-adv-x="563" 
d="M281 -194q-72 0 -72 58v22q0 58 72 58t72 -58v-22q0 -58 -72 -58zM281 -12q-112 0 -177 74t-65 200q0 125 65 198.5t177 73.5t177.5 -73.5t65.5 -198.5q0 -126 -65.5 -200t-177.5 -74zM281 91q51 0 80 31.5t29 90.5v97q0 58 -29 89.5t-80 31.5q-50 0 -79 -31.5t-29 -89.5
v-97q0 -58 29 -90t79 -32zM223 786h116l126 -154l-64 -50l-120 115l-120 -115l-64 50z" />
    <glyph glyph-name="uni1EDA" unicode="&#x1eda;" horiz-adv-x="712" 
d="M568 812h109v-102q0 -46 -21.5 -67.5t-81.5 -21.5q86 -95 86 -272q0 -174 -81.5 -267.5t-222.5 -93.5q-140 0 -222 93.5t-82 267.5t82 267.5t222 93.5q50 0 92 -12h120v114zM356 106q76 0 120 50t44 139v108q0 89 -44 139t-120 50q-75 0 -119 -50t-44 -139v-108
q0 -89 44 -139t119 -50zM495 915l-126 -171l-77 38l95 187z" />
    <glyph glyph-name="uni1EDB" unicode="&#x1edb;" horiz-adv-x="563" 
d="M433 630h109v-95q0 -88 -73 -88q55 -71 55 -183q0 -126 -65.5 -201t-177.5 -75q-111 0 -176.5 75t-65.5 201q0 125 65 197.5t177 72.5q45 0 83 -12h69v108zM281 91q51 0 80 31.5t29 90.5v97q0 58 -29 89.5t-80 31.5q-50 0 -79 -31.5t-29 -89.5v-97q0 -58 29 -90t79 -32z
M420 752l-126 -171l-77 37l95 187z" />
    <glyph glyph-name="uni1EDC" unicode="&#x1edc;" horiz-adv-x="712" 
d="M568 812h109v-102q0 -46 -21.5 -67.5t-81.5 -21.5q86 -95 86 -272q0 -174 -81.5 -267.5t-222.5 -93.5q-140 0 -222 93.5t-82 267.5t82 267.5t222 93.5q50 0 92 -12h120v114zM356 106q76 0 120 50t44 139v108q0 89 -44 139t-120 50q-75 0 -119 -50t-44 -139v-108
q0 -89 44 -139t119 -50zM343 744l-126 171l108 54l95 -187z" />
    <glyph glyph-name="uni1EDD" unicode="&#x1edd;" horiz-adv-x="563" 
d="M268 581l-126 171l108 53l95 -187zM433 630h109v-95q0 -88 -73 -88q55 -71 55 -183q0 -126 -65.5 -201t-177.5 -75q-111 0 -176.5 75t-65.5 201q0 125 65 197.5t177 72.5q45 0 83 -12h69v108zM281 91q51 0 80 31.5t29 90.5v97q0 58 -29 89.5t-80 31.5q-50 0 -79 -31.5
t-29 -89.5v-97q0 -58 29 -90t79 -32z" />
    <glyph glyph-name="uni1EDE" unicode="&#x1ede;" horiz-adv-x="712" 
d="M247 862v93h133q89 0 89 -68q0 -51 -54 -119l-27 -33l-67 31l46 96h-120zM568 812h109v-102q0 -46 -21.5 -67.5t-81.5 -21.5q86 -95 86 -272q0 -174 -81.5 -267.5t-222.5 -93.5q-140 0 -222 93.5t-82 267.5t82 267.5t222 93.5q50 0 92 -12h120v114zM356 106q76 0 120 50
t44 139v108q0 89 -44 139t-120 50q-75 0 -119 -50t-44 -139v-108q0 -89 44 -139t119 -50z" />
    <glyph glyph-name="uni1EDF" unicode="&#x1edf;" horiz-adv-x="563" 
d="M172 698v93h133q89 0 89 -68q0 -51 -54 -119l-27 -33l-67 32l46 95h-120zM433 630h109v-95q0 -88 -73 -88q55 -71 55 -183q0 -126 -65.5 -201t-177.5 -75q-111 0 -176.5 75t-65.5 201q0 125 65 197.5t177 72.5q45 0 83 -12h69v108zM281 91q51 0 80 31.5t29 90.5v97
q0 58 -29 89.5t-80 31.5q-50 0 -79 -31.5t-29 -89.5v-97q0 -58 29 -90t79 -32z" />
    <glyph glyph-name="uni1EE0" unicode="&#x1ee0;" horiz-adv-x="712" 
d="M568 812h109v-102q0 -46 -21.5 -67.5t-81.5 -21.5q86 -95 86 -272q0 -174 -81.5 -267.5t-222.5 -93.5q-140 0 -222 93.5t-82 267.5t82 267.5t222 93.5q50 0 92 -12h120v114zM356 106q76 0 120 50t44 139v108q0 89 -44 139t-120 50q-75 0 -119 -50t-44 -139v-108
q0 -89 44 -139t119 -50zM421 769q-28 0 -68 21q-44 21 -64 21q-27 0 -51 -23l-46 56q38 62 99 62q28 0 68 -21q44 -21 64 -21q27 0 51 23l46 -56q-38 -62 -99 -62z" />
    <glyph glyph-name="uni1EE1" unicode="&#x1ee1;" horiz-adv-x="563" 
d="M433 630h109v-95q0 -88 -73 -88q55 -71 55 -183q0 -126 -65.5 -201t-177.5 -75q-111 0 -176.5 75t-65.5 201q0 125 65 197.5t177 72.5q45 0 83 -12h69v108zM281 91q51 0 80 31.5t29 90.5v97q0 58 -29 89.5t-80 31.5q-50 0 -79 -31.5t-29 -89.5v-97q0 -58 29 -90t79 -32z
M346 605q-24 0 -68 21t-64 21q-26 0 -51 -22l-46 55q38 62 99 62q26 0 68 -20q42 -22 64 -22q25 0 51 23l46 -55q-39 -63 -99 -63z" />
    <glyph glyph-name="uni1EE2" unicode="&#x1ee2;" horiz-adv-x="712" 
d="M356 -194q-72 0 -72 58v22q0 58 72 58t72 -58v-22q0 -58 -72 -58zM568 812h109v-102q0 -46 -21.5 -67.5t-81.5 -21.5q86 -95 86 -272q0 -174 -81.5 -267.5t-222.5 -93.5q-140 0 -222 93.5t-82 267.5t82 267.5t222 93.5q50 0 92 -12h120v114zM356 106q76 0 120 50t44 139
v108q0 89 -44 139t-120 50q-75 0 -119 -50t-44 -139v-108q0 -89 44 -139t119 -50z" />
    <glyph glyph-name="uni1EE3" unicode="&#x1ee3;" horiz-adv-x="563" 
d="M281 -194q-72 0 -72 58v22q0 58 72 58t72 -58v-22q0 -58 -72 -58zM433 630h109v-95q0 -88 -73 -88q55 -71 55 -183q0 -126 -65.5 -201t-177.5 -75q-111 0 -176.5 75t-65.5 201q0 125 65 197.5t177 72.5q45 0 83 -12h69v108zM281 91q51 0 80 31.5t29 90.5v97
q0 58 -29 89.5t-80 31.5q-50 0 -79 -31.5t-29 -89.5v-97q0 -58 29 -90t79 -32z" />
    <glyph glyph-name="uni1EE4" unicode="&#x1ee4;" horiz-adv-x="689" 
d="M344 -194q-72 0 -72 58v22q0 58 72 58t72 -58v-22q0 -58 -72 -58zM77 698h130v-429q0 -84 32.5 -124t105.5 -40t105.5 40t32.5 124v429h130v-412q0 -156 -62 -227t-207 -71t-206 71t-61 227v412z" />
    <glyph glyph-name="uni1EE5" unicode="&#x1ee5;" horiz-adv-x="588" 
d="M290 -194q-72 0 -72 58v22q0 58 72 58t72 -58v-22q0 -58 -72 -58zM386 0v87h-5q-34 -99 -146 -99q-80 0 -123.5 53t-43.5 151v330h128v-317q0 -111 88 -111q42 0 72 21.5t30 61.5v345h128v-522h-128z" />
    <glyph glyph-name="uni1EE6" unicode="&#x1ee6;" horiz-adv-x="689" 
d="M235 862v93h133q89 0 89 -68q0 -51 -54 -119l-27 -33l-67 31l46 96h-120zM77 698h130v-429q0 -84 32.5 -124t105.5 -40t105.5 40t32.5 124v429h130v-412q0 -156 -62 -227t-207 -71t-206 71t-61 227v412z" />
    <glyph glyph-name="uni1EE7" unicode="&#x1ee7;" horiz-adv-x="588" 
d="M182 698v93h133q89 0 89 -68q0 -51 -54 -119l-27 -33l-67 32l46 95h-120zM386 0v87h-5q-34 -99 -146 -99q-80 0 -123.5 53t-43.5 151v330h128v-317q0 -111 88 -111q42 0 72 21.5t30 61.5v345h128v-522h-128z" />
    <glyph glyph-name="uni1EE8" unicode="&#x1ee8;" horiz-adv-x="689" 
d="M77 698h130v-429q0 -84 32.5 -124t105.5 -40t105.5 40t32.5 124v429h82v108h108v-97q0 -73 -60 -84v-339q0 -156 -62 -227t-207 -71t-206 71t-61 227v412zM483 915l-126 -171l-77 38l95 187z" />
    <glyph glyph-name="uni1EE9" unicode="&#x1ee9;" horiz-adv-x="588" 
d="M584 630v-96q0 -42 -15 -65t-55 -23v-446h-128v87h-5q-34 -99 -146 -99q-80 0 -123.5 53t-43.5 151v330h128v-317q0 -111 88 -111q42 0 72 21.5t30 61.5v345h90v108h108zM429 752l-126 -171l-77 37l95 187z" />
    <glyph glyph-name="uni1EEA" unicode="&#x1eea;" horiz-adv-x="689" 
d="M77 698h130v-429q0 -84 32.5 -124t105.5 -40t105.5 40t32.5 124v429h82v108h108v-97q0 -73 -60 -84v-339q0 -156 -62 -227t-207 -71t-206 71t-61 227v412zM331 744l-126 171l108 54l95 -187z" />
    <glyph glyph-name="uni1EEB" unicode="&#x1eeb;" horiz-adv-x="588" 
d="M584 630v-96q0 -42 -15 -65t-55 -23v-446h-128v87h-5q-34 -99 -146 -99q-80 0 -123.5 53t-43.5 151v330h128v-317q0 -111 88 -111q42 0 72 21.5t30 61.5v345h90v108h108zM277 581l-126 171l108 53l95 -187z" />
    <glyph glyph-name="uni1EEC" unicode="&#x1eec;" horiz-adv-x="689" 
d="M77 698h130v-429q0 -84 32.5 -124t105.5 -40t105.5 40t32.5 124v429h82v108h108v-97q0 -73 -60 -84v-339q0 -156 -62 -227t-207 -71t-206 71t-61 227v412zM235 862v93h133q89 0 89 -68q0 -51 -54 -119l-27 -33l-67 31l46 96h-120z" />
    <glyph glyph-name="uni1EED" unicode="&#x1eed;" horiz-adv-x="588" 
d="M584 630v-96q0 -42 -15 -65t-55 -23v-446h-128v87h-5q-34 -99 -146 -99q-80 0 -123.5 53t-43.5 151v330h128v-317q0 -111 88 -111q42 0 72 21.5t30 61.5v345h90v108h108zM181 698v93h133q89 0 89 -68q0 -51 -54 -119l-27 -33l-67 32l46 95h-120z" />
    <glyph glyph-name="uni1EEE" unicode="&#x1eee;" horiz-adv-x="689" 
d="M77 698h130v-429q0 -84 32.5 -124t105.5 -40t105.5 40t32.5 124v429h82v108h108v-97q0 -73 -60 -84v-339q0 -156 -62 -227t-207 -71t-206 71t-61 227v412zM396 769q-28 0 -68 21q-44 21 -64 21q-27 0 -51 -23l-46 56q38 62 99 62q28 0 68 -21q44 -21 64 -21q27 0 51 23
l46 -56q-38 -62 -99 -62z" />
    <glyph glyph-name="uni1EEF" unicode="&#x1eef;" horiz-adv-x="588" 
d="M584 630v-96q0 -42 -15 -65t-55 -23v-446h-128v87h-5q-34 -99 -146 -99q-80 0 -123.5 53t-43.5 151v330h128v-317q0 -111 88 -111q42 0 72 21.5t30 61.5v345h90v108h108zM354 605q-24 0 -68 21t-64 21q-26 0 -51 -22l-46 55q38 62 99 62q26 0 68 -20q42 -22 64 -22
q25 0 51 23l46 -55q-39 -63 -99 -63z" />
    <glyph glyph-name="uni1EF0" unicode="&#x1ef0;" horiz-adv-x="689" 
d="M344 -194q-72 0 -72 58v22q0 58 72 58t72 -58v-22q0 -58 -72 -58zM77 698h130v-429q0 -84 32.5 -124t105.5 -40t105.5 40t32.5 124v429h82v108h108v-97q0 -73 -60 -84v-339q0 -156 -62 -227t-207 -71t-206 71t-61 227v412z" />
    <glyph glyph-name="uni1EF1" unicode="&#x1ef1;" horiz-adv-x="588" 
d="M289 -194q-72 0 -72 58v22q0 58 72 58t72 -58v-22q0 -58 -72 -58zM584 630v-96q0 -42 -15 -65t-55 -23v-446h-128v87h-5q-34 -99 -146 -99q-80 0 -123.5 53t-43.5 151v330h128v-317q0 -111 88 -111q42 0 72 21.5t30 61.5v345h90v108h108z" />
    <glyph glyph-name="Ygrave" unicode="&#x1ef2;" horiz-adv-x="632" 
d="M304 744l-126 171l108 54l95 -187zM382 0h-133v274l-239 424h148l161 -295h2l157 295h144l-240 -423v-275z" />
    <glyph glyph-name="ygrave" unicode="&#x1ef3;" horiz-adv-x="524" 
d="M252 581l-126 171l108 53l95 -187zM303 246l91 276h120l-210 -615q-20 -58 -53 -82.5t-96 -24.5h-77v102h94l24 73l-187 547h127l91 -276l34 -132h6z" />
    <glyph glyph-name="uni1EF4" unicode="&#x1ef4;" horiz-adv-x="632" 
d="M315 -194q-72 0 -72 58v22q0 58 72 58t72 -58v-22q0 -58 -72 -58zM382 0h-133v274l-239 424h148l161 -295h2l157 295h144l-240 -423v-275z" />
    <glyph glyph-name="uni1EF5" unicode="&#x1ef5;" horiz-adv-x="524" 
d="M420 -194q-72 0 -72 58v22q0 58 72 58t72 -58v-22q0 -58 -72 -58zM303 246l91 276h120l-210 -615q-20 -58 -53 -82.5t-96 -24.5h-77v102h94l24 73l-187 547h127l91 -276l34 -132h6z" />
    <glyph glyph-name="uni1EF6" unicode="&#x1ef6;" horiz-adv-x="632" 
d="M208 862v93h133q89 0 89 -68q0 -51 -54 -119l-27 -33l-67 31l46 96h-120zM382 0h-133v274l-239 424h148l161 -295h2l157 295h144l-240 -423v-275z" />
    <glyph glyph-name="uni1EF7" unicode="&#x1ef7;" horiz-adv-x="524" 
d="M156 698v93h133q89 0 89 -68q0 -51 -54 -119l-27 -33l-67 32l46 95h-120zM303 246l91 276h120l-210 -615q-20 -58 -53 -82.5t-96 -24.5h-77v102h94l24 73l-187 547h127l91 -276l34 -132h6z" />
    <glyph glyph-name="uni1EF8" unicode="&#x1ef8;" horiz-adv-x="632" 
d="M392 768q-30 0 -78 22q-51 22 -75 22q-28 0 -59 -25l-47 59q41 61 109 61q30 0 78 -22q51 -22 75 -22q28 0 59 25l47 -59q-41 -61 -109 -61zM382 0h-133v274l-239 424h148l161 -295h2l157 295h144l-240 -423v-275z" />
    <glyph glyph-name="uni1EF9" unicode="&#x1ef9;" horiz-adv-x="524" 
d="M340 604q-30 0 -78 22q-53 23 -75 23q-27 0 -59 -26l-47 60q43 61 109 61q30 0 78 -22q49 -23 75 -23q27 0 59 26l47 -60q-43 -61 -109 -61zM303 246l91 276h120l-210 -615q-20 -58 -53 -82.5t-96 -24.5h-77v102h94l24 73l-187 547h127l91 -276l34 -132h6z" />
    <glyph glyph-name="endash" unicode="&#x2013;" horiz-adv-x="588" 
d="M552 250h-516v108h516v-108z" />
    <glyph glyph-name="emdash" unicode="&#x2014;" horiz-adv-x="780" 
d="M744 250h-708v108h708v-108z" />
    <glyph glyph-name="quoteleft" unicode="&#x2018;" horiz-adv-x="292" 
d="M143 455q-39 0 -58.5 18.5t-19.5 49.5v19q0 52 29 106.5t74 91.5h86q-69 -66 -87 -128q55 -12 55 -67v-22q0 -31 -19.5 -49.5t-59.5 -18.5z" />
    <glyph glyph-name="quoteright" unicode="&#x2019;" horiz-adv-x="292" 
d="M149 750q39 0 58.5 -18.5t19.5 -49.5v-19q0 -53 -29 -107.5t-74 -90.5h-86q69 64 87 128q-55 10 -55 67v22q0 31 19.5 49.5t59.5 18.5z" />
    <glyph glyph-name="quotesinglbase" unicode="&#x201a;" horiz-adv-x="295" 
d="M149 169q78 0 78 -70v-20q0 -52 -28 -105t-73 -91h-88q70 65 89 129q-56 10 -56 67v20q0 70 78 70z" />
    <glyph glyph-name="quotedblleft" unicode="&#x201c;" horiz-adv-x="517" 
d="M368 455q-39 0 -58.5 18.5t-19.5 49.5v19q0 52 29 106.5t74 91.5h86q-69 -66 -87 -128q55 -12 55 -67v-22q0 -31 -19.5 -49.5t-59.5 -18.5zM143 455q-39 0 -58.5 18.5t-19.5 49.5v19q0 52 29 106.5t74 91.5h86q-69 -66 -87 -128q55 -12 55 -67v-22q0 -31 -19.5 -49.5
t-59.5 -18.5z" />
    <glyph glyph-name="quotedblright" unicode="&#x201d;" horiz-adv-x="517" 
d="M374 750q39 0 58.5 -18.5t19.5 -49.5v-19q0 -53 -29 -107.5t-74 -90.5h-86q69 64 87 128q-55 10 -55 67v22q0 31 19.5 49.5t59.5 18.5zM149 750q39 0 58.5 -18.5t19.5 -49.5v-19q0 -53 -29 -107.5t-74 -90.5h-86q69 64 87 128q-55 10 -55 67v22q0 31 19.5 49.5t59.5 18.5
z" />
    <glyph glyph-name="quotedblbase" unicode="&#x201e;" horiz-adv-x="520" 
d="M374 169q78 0 78 -70v-20q0 -52 -28 -105t-73 -91h-88q70 65 89 129q-56 10 -56 67v20q0 70 78 70zM149 169q78 0 78 -70v-20q0 -52 -28 -105t-73 -91h-88q70 65 89 129q-56 10 -56 67v20q0 70 78 70z" />
    <glyph glyph-name="dagger" unicode="&#x2020;" horiz-adv-x="531" 
d="M320 -200h-109v621h-178v95h178v224h109v-224h178v-95h-178v-621z" />
    <glyph glyph-name="daggerdbl" unicode="&#x2021;" horiz-adv-x="545" 
d="M327 -200h-109v224h-178v95h178v302h-178v95h178v224h109v-224h178v-95h-178v-302h178v-95h-178v-224z" />
    <glyph glyph-name="bullet" unicode="&#x2022;" horiz-adv-x="420" 
d="M210 161q-144 0 -144 123v33q0 123 144 123q74 0 109 -33t35 -90v-33q0 -57 -35 -90t-109 -33z" />
    <glyph glyph-name="ellipsis" unicode="&#x2026;" horiz-adv-x="869" 
d="M719 -11q-39 0 -59.5 20t-20.5 53v18q0 34 20.5 54t59.5 20q40 0 60 -20t20 -54v-18q0 -33 -20 -53t-60 -20zM434 -11q-39 0 -59.5 20t-20.5 53v18q0 34 20.5 54t59.5 20q40 0 60 -20t20 -54v-18q0 -33 -20 -53t-60 -20zM149 -11q-39 0 -59.5 20t-20.5 53v18
q0 34 20.5 54t59.5 20q40 0 60 -20t20 -54v-18q0 -33 -20 -53t-60 -20z" />
    <glyph glyph-name="perthousand" unicode="&#x2030;" horiz-adv-x="1359" 
d="M296 0h-116l484 698h116zM228 314q-84 0 -129 51t-45 147t45 147t129 51t128.5 -50.5t44.5 -147.5t-44.5 -147.5t-128.5 -50.5zM228 390q62 0 62 95v54q0 95 -62 95t-62 -95v-54q0 -95 62 -95zM732 -12q-84 0 -128.5 51t-44.5 147t44.5 147t128.5 51t129 -51t45 -147
t-45 -147t-129 -51zM732 64q62 0 62 95v54q0 95 -62 95t-62 -95v-54q0 -95 62 -95zM1132 -12q-84 0 -129 51t-45 147t45 147t129 51t128.5 -51t44.5 -147t-44.5 -147t-128.5 -51zM1132 64q62 0 62 95v54q0 95 -62 95t-62 -95v-54q0 -95 62 -95z" />
    <glyph glyph-name="guilsinglleft" unicode="&#x2039;" horiz-adv-x="313" 
d="M263 138l-38 -80l-188 162v111l188 162l38 -81l-125 -137z" />
    <glyph glyph-name="guilsinglright" unicode="&#x203a;" horiz-adv-x="313" 
d="M88 58l-38 80l125 137l-125 137l38 81l188 -162v-111z" />
    <glyph glyph-name="fraction" unicode="&#x2044;" horiz-adv-x="147" 
d="M-137 0h-96l517 698h96z" />
    <glyph glyph-name="uni2070" unicode="&#x2070;" horiz-adv-x="372" 
d="M186 323q-155 0 -155 191q0 92 39 141t116 49q156 0 156 -190q0 -191 -156 -191zM186 397q32 0 44.5 19.5t12.5 60.5v73q0 41 -12.5 60.5t-44.5 19.5q-31 0 -44 -19.5t-13 -60.5v-73q0 -41 13 -60.5t44 -19.5z" />
    <glyph glyph-name="uni2074" unicode="&#x2074;" horiz-adv-x="346" 
d="M277 329h-86v71h-173v75l153 223h106v-231h49v-67h-49v-71zM191 467v137h-6l-95 -137h101z" />
    <glyph glyph-name="uni2075" unicode="&#x2075;" horiz-adv-x="354" 
d="M304 698v-76h-182l-8 -111h4q14 32 32 47.5t54 15.5q53 0 88 -32t35 -86q0 -59 -41 -96t-114 -37q-100 0 -144 72l65 51q31 -53 80 -53q29 0 44 15.5t15 40.5v4q0 23 -15 36.5t-42 13.5q-37 0 -60 -25l-74 10l15 210h248z" />
    <glyph glyph-name="uni2076" unicode="&#x2076;" horiz-adv-x="357" 
d="M180 323q-72 0 -112 40t-40 108q0 70 42 129.5t101 97.5h125q-83 -56 -123 -96t-50 -87l5 -2q26 56 87 56q50 0 82.5 -31.5t32.5 -83.5q0 -58 -41 -94.5t-109 -36.5zM179 390q57 0 57 53v8q0 52 -56 52q-58 0 -58 -52v-8q0 -53 57 -53z" />
    <glyph glyph-name="uni2077" unicode="&#x2077;" horiz-adv-x="328" 
d="M180 329h-96l131 298h-117v-67h-77v138h284v-76z" />
    <glyph glyph-name="uni2078" unicode="&#x2078;" horiz-adv-x="360" 
d="M180 323q-69 0 -109 30t-40 78q0 68 77 88v4q-65 23 -65 82q0 44 36.5 71.5t100.5 27.5q66 0 102 -27.5t36 -71.5q0 -60 -65 -82v-4q77 -20 77 -88q0 -48 -40 -78t-110 -30zM180 547q53 0 53 41v8q0 42 -53 42q-25 0 -39 -11.5t-14 -30.5v-8q0 -41 53 -41zM180 389
q55 0 55 43v10q0 42 -55 42q-54 0 -54 -42v-10q0 -20 14 -31.5t40 -11.5z" />
    <glyph glyph-name="uni2079" unicode="&#x2079;" horiz-adv-x="357" 
d="M328 556q0 -71 -41.5 -130t-100.5 -97h-126q82 55 122 95.5t51 87.5l-5 2q-26 -57 -87 -57q-50 0 -82.5 32t-32.5 84q0 58 41 94.5t110 36.5q71 0 111 -40t40 -108zM176 524q58 0 58 51v9q0 53 -57 53q-58 0 -58 -53v-9q0 -24 15 -37.5t42 -13.5z" />
    <glyph glyph-name="uni2080" unicode="&#x2080;" horiz-adv-x="372" 
d="M186 -6q-155 0 -155 191q0 92 39 141t116 49q156 0 156 -190q0 -191 -156 -191zM186 68q32 0 44.5 19.5t12.5 60.5v73q0 41 -12.5 60.5t-44.5 19.5q-31 0 -44 -19.5t-13 -60.5v-73q0 -41 13 -60.5t44 -19.5z" />
    <glyph glyph-name="uni2081" unicode="&#x2081;" horiz-adv-x="349" 
d="M325 0h-274v70h97v218l-86 -41l-35 63l116 59h95v-299h87v-70z" />
    <glyph glyph-name="uni2082" unicode="&#x2082;" horiz-adv-x="347" 
d="M318 73v-73h-283v79l115 89q36 28 50.5 46.5t14.5 41.5v2q0 41 -50 41q-46 0 -61 -49l-79 30q35 95 149 95q64 0 101 -31t37 -81q0 -45 -29 -78.5t-80 -65.5l-70 -46h185z" />
    <glyph glyph-name="uni2083" unicode="&#x2083;" horiz-adv-x="345" 
d="M116 225h39q55 0 55 38v4q0 38 -51 38q-48 0 -81 -44l-56 52q52 62 140 62q66 0 105 -27t39 -72q0 -34 -21.5 -55.5t-54.5 -26.5v-4q37 -6 59.5 -28.5t22.5 -58.5q0 -50 -42 -79.5t-111 -29.5q-101 0 -149 72l67 51q30 -53 82 -53q58 0 58 42v5q0 42 -63 42h-38v72z" />
    <glyph glyph-name="uni2084" unicode="&#x2084;" horiz-adv-x="346" 
d="M277 0h-86v71h-173v75l153 223h106v-231h49v-67h-49v-71zM191 138v137h-6l-95 -137h101z" />
    <glyph glyph-name="uni2085" unicode="&#x2085;" horiz-adv-x="354" 
d="M304 293h-182l-8 -111h4q14 32 32 47.5t54 15.5q53 0 88 -32t35 -86q0 -59 -41 -96t-114 -37q-100 0 -144 72l65 51q31 -53 80 -53q29 0 44 15t15 41v4q0 23 -15 36.5t-42 13.5q-37 0 -60 -25l-74 10l15 210h248v-76z" />
    <glyph glyph-name="uni2086" unicode="&#x2086;" horiz-adv-x="357" 
d="M180 -6q-72 0 -112 40t-40 108q0 70 42 129.5t101 97.5h125q-83 -56 -123 -96t-50 -87l5 -2q26 56 87 56q50 0 82.5 -31.5t32.5 -83.5q0 -58 -41 -94.5t-109 -36.5zM179 61q57 0 57 53v8q0 52 -56 52q-58 0 -58 -52v-8q0 -53 57 -53z" />
    <glyph glyph-name="uni2087" unicode="&#x2087;" horiz-adv-x="328" 
d="M180 0h-96l131 298h-117v-67h-77v138h284v-76z" />
    <glyph glyph-name="uni2088" unicode="&#x2088;" horiz-adv-x="360" 
d="M180 -6q-69 0 -109 30t-40 78q0 68 77 88v4q-65 23 -65 82q0 44 36.5 71.5t100.5 27.5q66 0 102 -27.5t36 -71.5q0 -60 -65 -82v-4q77 -20 77 -88q0 -48 -40 -78t-110 -30zM180 60q55 0 55 43v10q0 42 -55 42q-54 0 -54 -42v-10q0 -20 14 -31.5t40 -11.5zM180 218
q53 0 53 41v8q0 42 -53 42q-25 0 -39 -11.5t-14 -30.5v-8q0 -41 53 -41z" />
    <glyph glyph-name="uni2089" unicode="&#x2089;" horiz-adv-x="357" 
d="M328 227q0 -71 -41.5 -130t-100.5 -97h-126q82 55 122 95.5t51 87.5l-5 2q-26 -57 -87 -57q-50 0 -82.5 32t-32.5 84q0 58 41 94.5t110 36.5q71 0 111 -40t40 -108zM176 195q58 0 58 51v9q0 53 -57 53q-58 0 -58 -53v-9q0 -24 15 -37.5t42 -13.5z" />
    <glyph glyph-name="uni20A1" unicode="&#x20a1;" horiz-adv-x="620" 
d="M311 -82l10 88q-17 1 -45 7l-10 -95h-69l13 118q-74 38 -116 118.5t-42 194.5q0 139 59 225.5t165 110.5l10 95h70l-9 -87h9q25 0 36 -2l9 89h70l-11 -104q72 -25 125 -109l-91 -64q-20 40 -48 57l-46 -444q63 20 94 86l92 -66q-63 -112 -196 -129l-9 -89h-70zM345 590
h-10l-49 -470q22 -10 47 -11l49 477q-20 4 -37 4zM186 292q0 -79 39 -126l40 401q-79 -45 -79 -160v-115z" />
    <glyph glyph-name="uni20A4" unicode="&#x20a4;" horiz-adv-x="586" 
d="M545 109v-109h-474v122q65 29 77 108h-106v83h98q-2 8 -27 74h-71v84h48q-3 15 -3 32q0 94 66 150.5t178 56.5q151 0 230 -119l-96 -65q-53 73 -132 73q-53 0 -82.5 -30.5t-29.5 -84.5v-13h206v-84h-184q23 -55 28 -74h156v-83h-151q-6 -39 -26.5 -68.5t-46.5 -44.5v-8
h342z" />
    <glyph glyph-name="uni20A6" unicode="&#x20a6;" horiz-adv-x="752" 
d="M497 0l-122 231h-155v-231h-118v230h-86v83h86v76h-86v83h86v226h151l120 -226h160v226h117v-226h86v-83h-86v-76h86v-83h-86v-230h-153zM220 309h116l-113 221h-3v-221zM413 393l117 -228h3v228h-120z" />
    <glyph glyph-name="uni20A8" unicode="&#x20a8;" horiz-adv-x="840" 
d="M212 0h-130v698h217q95 0 148.5 -53t53.5 -147q0 -119 -84 -173l75 -149q45 -87 112 -87q31 0 49 13.5t18 34.5q0 19 -9 34.5t-35 39.5l-19 17q-42 40 -61 73t-19 74q0 66 44.5 105t117.5 39q70 0 118 -30l-43 -85q-28 19 -62 19q-54 0 -54 -44q0 -19 11.5 -34.5
t40.5 -41.5l18 -16q44 -42 61 -72.5t17 -73.5q0 -69 -50 -111t-154 -42q-77 0 -128 29t-83 95l-83 175h-87v-287zM212 395h71q83 0 83 75v44q0 76 -83 76h-71v-195z" />
    <glyph glyph-name="uni20A9" unicode="&#x20a9;" horiz-adv-x="1002" 
d="M634 0l-56 231h-158l-57 -231h-149l-54 230h-122v83h103l-17 76h-86v83h66l-52 226h130l47 -226h146l55 226h145l55 -226h147l48 226h126l-54 -226h67v-83h-87l-18 -76h105v-83h-125l-56 -230h-149zM298 146l50 213l8 34h-111l6 -35l44 -212h3zM706 146h3l44 211l8 36
h-113l8 -32zM449 352l-10 -42h120l-10 42l-48 204h-3z" />
    <glyph glyph-name="uni20AA" unicode="&#x20aa;" horiz-adv-x="873" 
d="M279 0v515h118v-408h197q37 0 57.5 22.5t20.5 64.5v504h119v-500q0 -97 -49.5 -147.5t-133.5 -50.5h-329zM200 0h-118v698h330q84 0 133 -50.5t49 -147.5v-319h-118v323q0 87 -79 87h-197v-591z" />
    <glyph glyph-name="uni20AB" unicode="&#x20ab;" horiz-adv-x="577" 
d="M354 158v71h-5q-43 -80 -137 -80q-76 0 -121 50.5t-45 148.5t45 148.5t121 50.5q96 0 137 -81h5v135h-130v81h130v58h127v-58h61v-81h-61v-443h-127zM264 242q41 0 65.5 19t24.5 47v81q0 28 -24.5 47t-65.5 19q-44 0 -68 -23t-24 -62v-43q0 -39 24 -62t68 -23zM502 0
h-444v94h444v-94z" />
    <glyph glyph-name="Euro" unicode="&#x20ac;" horiz-adv-x="627" 
d="M351 -12q-137 0 -218 95.5t-81 265.5t81 265.5t218 95.5q88 0 142 -34.5t91 -95.5l-96 -67q-44 90 -137 90q-58 0 -98.5 -35t-54.5 -96h238v-83h-245v-77h244v-83h-238q14 -62 55 -98t99 -36q96 0 146 98l96 -70q-77 -135 -242 -135z" />
    <glyph glyph-name="uni20AD" unicode="&#x20ad;" horiz-adv-x="664" 
d="M226 302v-302h-131v302h-88v105h88v291h131v-291h51l198 291h149l-210 -291h191v-105h-180l223 -302h-157l-212 302h-53z" />
    <glyph glyph-name="uni20AE" unicode="&#x20ae;" horiz-adv-x="604" 
d="M492 270l-124 -59v-211h-132v148l-124 -59v84l124 59v74l-124 -59v83l124 59v200h-198v109h528v-109h-198v-137l124 60v-84l-124 -59v-75l124 60v-84z" />
    <glyph glyph-name="uni20B1" unicode="&#x20b1;" horiz-adv-x="677" 
d="M238 164v-164h-132v317h-86v76h86v77h-86v76h86v152h267q155 0 191 -152h97v-76h-87q1 -12 1 -37q0 -27 -1 -40h87v-76h-99q-39 -153 -189 -153h-135zM238 605v-64h202q-7 30 -28 47t-52 17h-122zM238 390h206v83h-206v-83zM238 255h122q32 0 53 18t27 49h-202v-67z" />
    <glyph glyph-name="uni20B2" unicode="&#x20b2;" horiz-adv-x="670" 
d="M306 -82h-102l20 108q-80 33 -126 115.5t-46 207.5q0 162 77 251.5t210 92.5l15 87h102l-17 -100q109 -32 160 -140l-103 -50q-24 65 -83 88l-34 -199h233v-126q0 -53 -18 -96.5t-46.5 -71t-66 -46t-74 -26.5t-73.5 -8h-12zM186 296q0 -111 63 -158l79 451
q-66 -6 -104 -55.5t-38 -130.5v-107zM491 275h-131l-28 -166q4 -1 14 -1q64 0 104.5 35.5t40.5 100.5v31z" />
    <glyph glyph-name="uni20B4" unicode="&#x20b4;" horiz-adv-x="639" 
d="M329 -12q-104 0 -163 58t-59 146q0 22 5 42h-72v83h113l140 76h-253v84h364q6 15 6 37q0 89 -97 89q-76 0 -128 -58l-68 81q34 40 88 62t115 22q96 0 153 -52t57 -131q0 -26 -6 -50h75v-84h-121l-137 -76h258v-83h-366q-6 -16 -6 -37q0 -51 28.5 -77.5t79.5 -26.5
q73 0 142 73l69 -82q-83 -96 -217 -96z" />
    <glyph glyph-name="uni20B5" unicode="&#x20b5;" horiz-adv-x="613" 
d="M307 -82h-102l20 111q-81 36 -127 118t-46 202q0 158 78.5 248.5t209.5 95.5l15 87h102l-17 -99q88 -26 138 -113l-93 -64q-24 49 -70 72l-82 -466q5 -1 15 -1q95 0 138 93l93 -66q-75 -131 -231 -131q-17 0 -26 1zM186 292q0 -101 64 -151l79 449q-64 -7 -103.5 -56
t-39.5 -127v-115z" />
    <glyph glyph-name="uni20B8" unicode="&#x20b8;" horiz-adv-x="604" 
d="M566 603h-528v95h528v-95zM566 424h-198v-424h-132v424h-198v95h528v-95z" />
    <glyph glyph-name="uni20B9" unicode="&#x20b9;" horiz-adv-x="622" 
d="M521 0h-161l-181 242h-120v95h179q98 0 104 86h-283v95h283q-3 46 -28.5 65.5t-75.5 19.5h-179v95h527v-95h-193v-4q23 -3 44 -23t30 -58h119v-95h-116q-9 -66 -46.5 -110t-101.5 -59z" />
    <glyph glyph-name="uni20BA" unicode="&#x20ba;" horiz-adv-x="610" 
d="M106 0v223l-90 -43v84l90 43v75l-90 -44v84l90 43v233h132v-170l171 81v-84l-171 -81v-74l171 80v-83l-171 -81v-178h67q74 0 110.5 46t36.5 151h126q0 -135 -65 -220t-193 -85h-214z" />
    <glyph glyph-name="uni20BD" unicode="&#x20bd;" horiz-adv-x="650" 
d="M470 112h-232v-112h-132v112h-86v94h86v86h-86v95h86v311h301q97 0 151.5 -53.5t54.5 -149.5q0 -95 -54.5 -149t-151.5 -54h-169v-86h232v-94zM238 589v-202h156q39 0 60.5 21t21.5 59v47q0 75 -82 75h-156z" />
    <glyph glyph-name="uni20BF" unicode="&#x20bf;" horiz-adv-x="659" 
d="M348 -82v102h-65v-102h-99v102h-103v658h103v102h99v-102h65v102h98v-105q67 -10 104 -54t37 -112q0 -66 -31.5 -99t-93.5 -42v-6q150 -13 150 -153q0 -77 -47.5 -131.5t-118.5 -57.5v-102h-98zM207 570v-166h178q72 0 72 67v32q0 67 -72 67h-178zM207 301v-173h196
q37 0 58 18.5t21 51.5v33q0 34 -21 52t-58 18h-196z" />
    <glyph glyph-name="uni2113" unicode="&#x2113;" horiz-adv-x="534" 
d="M302 -12q-80 0 -130.5 46.5t-50.5 124.5v5q-15 -12 -45 -30l-55 88q48 28 95 63v265q0 105 46 153.5t123 48.5q81 0 125 -48.5t44 -135.5q0 -92 -52 -171t-165 -171v-42q0 -85 65 -85q33 0 56 23t51 80l101 -53q-62 -161 -208 -161zM289 640q-52 0 -52 -85v-198
q100 97 100 199v12q0 72 -48 72z" />
    <glyph glyph-name="uni2116" unicode="&#x2116;" horiz-adv-x="1050" 
d="M847 360q-76 0 -120 46t-44 129t44 129t120 46t120 -46t44 -129t-44 -129t-120 -46zM206 0h-124v698h144l182 -345l76 -159h3v504h124v-698h-145l-186 349l-71 153h-3v-502zM847 431q32 0 50.5 21t18.5 56v54q0 35 -18.5 56t-50.5 21t-50.5 -21t-18.5 -56v-54
q0 -35 18.5 -56t50.5 -21zM999 225h-305v76h305v-76z" />
    <glyph glyph-name="trademark" unicode="&#x2122;" horiz-adv-x="627" 
d="M176 412h-76v230h-74v56h222v-56h-72v-230zM349 412h-64v286h82l59 -115h5l58 115h77v-286h-63v104l5 91h-4l-78 -148l-80 148h-4l7 -91v-104z" />
    <glyph glyph-name="Omega" unicode="&#x2126;" horiz-adv-x="715" 
d="M49 0v105h159v10q-72 37 -113 107.5t-41 168.5q0 136 80 227.5t223 91.5t223.5 -91.5t80.5 -227.5q0 -98 -41 -168.5t-113 -107.5v-10h159v-105h-258v160q46 16 80 67t34 109v94q0 65 -45.5 114t-119.5 49q-73 0 -118.5 -49t-45.5 -114v-94q0 -58 33.5 -109t79.5 -67
v-160h-257z" />
    <glyph glyph-name="uni212E" unicode="&#x212e;" horiz-adv-x="718" 
d="M204 349v-255q65 -48 155 -48q164 0 244 149l52 -30q-42 -80 -118 -128.5t-178 -48.5q-143 0 -235 99t-92 262t92 262t235 99t235 -99t92 -262h-482zM204 404h310v203q-69 48 -155 48q-88 0 -155 -48v-203z" />
    <glyph glyph-name="uni2150" unicode="&#x2150;" horiz-adv-x="854" 
d="M226 0h-96l517 698h96zM324 329h-273v70h97v218l-86 -41l-35 63l116 59h95v-299h86v-70zM706 0h-96l131 298h-117v-67h-77v138h284v-76z" />
    <glyph glyph-name="uni2151" unicode="&#x2151;" horiz-adv-x="871" 
d="M226 0h-96l517 698h96zM324 329h-273v70h97v218l-86 -41l-35 63l116 59h95v-299h86v-70zM842 227q0 -71 -41.5 -130t-100.5 -97h-126q82 55 122 95.5t51 87.5l-5 2q-26 -57 -87 -57q-50 0 -82.5 32t-32.5 84q0 58 41 94.5t110 36.5q71 0 111 -40t40 -108zM690 195
q58 0 58 51v9q0 53 -57 53q-58 0 -58 -53v-9q0 -24 15 -37.5t42 -13.5z" />
    <glyph glyph-name="uni2153" unicode="&#x2153;" horiz-adv-x="864" 
d="M226 0h-96l517 698h96zM324 329h-273v70h97v218l-86 -41l-35 63l116 59h95v-299h86v-70zM635 225h39q55 0 55 38v4q0 38 -51 38q-48 0 -81 -44l-56 52q52 62 140 62q66 0 105 -27t39 -72q0 -34 -21.5 -55.5t-54.5 -26.5v-4q37 -6 59.5 -28.5t22.5 -58.5q0 -50 -42 -79.5
t-111 -29.5q-101 0 -149 72l67 51q30 -53 82 -53q58 0 58 42v5q0 42 -63 42h-38v72z" />
    <glyph glyph-name="uni2154" unicode="&#x2154;" horiz-adv-x="859" 
d="M221 0h-96l517 698h96zM318 402v-73h-283v79l115 89q37 28 51 46.5t14 41.5v2q0 41 -50 41q-46 0 -61 -49l-79 30q35 95 149 95q64 0 101 -31t37 -81q0 -45 -29 -78.5t-80 -65.5l-70 -46h185zM630 225h39q55 0 55 38v4q0 38 -51 38q-48 0 -81 -44l-56 52q52 62 140 62
q66 0 105 -27t39 -72q0 -34 -21.5 -55.5t-54.5 -26.5v-4q37 -6 59.5 -28.5t22.5 -58.5q0 -50 -42 -79.5t-111 -29.5q-101 0 -149 72l67 51q30 -53 82 -53q58 0 58 42v5q0 42 -63 42h-38v72z" />
    <glyph glyph-name="uni2155" unicode="&#x2155;" horiz-adv-x="868" 
d="M226 0h-96l517 698h96zM324 329h-273v70h97v218l-86 -41l-35 63l116 59h95v-299h86v-70zM818 293h-182l-8 -111h4q14 32 32 47.5t54 15.5q53 0 88 -32t35 -86q0 -59 -41 -96t-114 -37q-100 0 -144 72l65 51q31 -53 80 -53q29 0 44 15t15 41v4q0 23 -15 36.5t-42 13.5
q-37 0 -60 -25l-74 10l15 210h248v-76z" />
    <glyph glyph-name="uni2156" unicode="&#x2156;" horiz-adv-x="863" 
d="M221 0h-96l517 698h96zM318 402v-73h-283v79l115 89q37 28 51 46.5t14 41.5v2q0 41 -50 41q-46 0 -61 -49l-79 30q35 95 149 95q64 0 101 -31t37 -81q0 -45 -29 -78.5t-80 -65.5l-70 -46h185zM813 293h-182l-8 -111h4q14 32 32 47.5t54 15.5q53 0 88 -32t35 -86
q0 -59 -41 -96t-114 -37q-100 0 -144 72l65 51q31 -53 80 -53q28 0 43.5 15t15.5 41v4q0 23 -15 36.5t-42 13.5q-38 0 -60 -25l-74 10l15 210h248v-76z" />
    <glyph glyph-name="uni2157" unicode="&#x2157;" horiz-adv-x="855" 
d="M213 0h-96l517 698h96zM116 554h36q58 0 58 35v4q0 18 -13.5 29.5t-37.5 11.5q-48 0 -81 -44l-56 52q52 62 140 62q66 0 105 -27t39 -72q0 -34 -21.5 -55.5t-54.5 -26.5v-4q37 -6 59.5 -28.5t22.5 -58.5q0 -50 -42 -79.5t-111 -29.5q-101 0 -149 72l67 51q30 -53 82 -53
q27 0 42.5 13t15.5 34v3q0 39 -65 39h-36v72zM805 293h-182l-8 -111h4q14 32 32 47.5t54 15.5q53 0 88 -32t35 -86q0 -59 -41 -96t-114 -37q-100 0 -144 72l65 51q31 -53 80 -53q28 0 43.5 15t15.5 41v4q0 23 -15 36.5t-42 13.5q-38 0 -60 -25l-74 10l15 210h248v-76z" />
    <glyph glyph-name="uni2158" unicode="&#x2158;" horiz-adv-x="861" 
d="M219 0h-96l517 698h96zM811 293h-182l-8 -111h4q14 32 32 47.5t54 15.5q53 0 88 -32t35 -86q0 -59 -41 -96t-114 -37q-100 0 -144 72l65 51q31 -53 80 -53q28 0 43.5 15t15.5 41v4q0 23 -15 36.5t-42 13.5q-38 0 -60 -25l-74 10l15 210h248v-76zM277 329h-86v71h-173v75
l153 223h106v-231h49v-67h-49v-71zM191 467v137h-6l-95 -137h101z" />
    <glyph glyph-name="uni2159" unicode="&#x2159;" horiz-adv-x="837" 
d="M660 -6q-72 0 -112 40t-40 108q0 70 42 129.5t101 97.5h125q-83 -56 -123 -96t-50 -87l5 -2q26 56 87 56q50 0 82.5 -31.5t32.5 -83.5q0 -58 -41 -94.5t-109 -36.5zM659 61q57 0 57 53v8q0 52 -56 52q-58 0 -58 -52v-8q0 -53 57 -53zM226 0h-96l517 698h96zM324 329h-273
v70h97v218l-86 -41l-35 63l116 59h95v-299h86v-70z" />
    <glyph glyph-name="uni215A" unicode="&#x215a;" horiz-adv-x="832" 
d="M655 -6q-72 0 -112 40t-40 108q0 70 42 129.5t101 97.5h125q-83 -56 -123 -96t-50 -87l5 -2q26 56 87 56q50 0 82.5 -31.5t32.5 -83.5q0 -58 -41 -94.5t-109 -36.5zM654 61q57 0 57 53v8q0 52 -56 52q-58 0 -58 -52v-8q0 -53 57 -53zM221 0h-96l517 698h96zM303 698v-76
h-182l-8 -111h4q14 32 32 47.5t54 15.5q53 0 88 -32t35 -86q0 -59 -41 -96t-114 -37q-100 0 -144 72l65 51q31 -53 80 -53q28 0 43.5 15.5t15.5 40.5v4q0 23 -15 36.5t-42 13.5q-38 0 -60 -25l-74 10l15 210h248z" />
    <glyph glyph-name="uni215B" unicode="&#x215b;" horiz-adv-x="871" 
d="M690 -6q-69 0 -109 30t-40 78q0 68 77 88v4q-65 23 -65 82q0 44 36.5 71.5t100.5 27.5q66 0 102 -27.5t36 -71.5q0 -60 -65 -82v-4q77 -20 77 -88q0 -48 -40 -78t-110 -30zM690 60q55 0 55 43v10q0 42 -55 42q-54 0 -54 -42v-10q0 -20 14 -31.5t40 -11.5zM690 218
q53 0 53 41v8q0 42 -53 42q-25 0 -39 -11.5t-14 -30.5v-8q0 -41 53 -41zM226 0h-96l517 698h96zM324 329h-273v70h97v218l-86 -41l-35 63l116 59h95v-299h86v-70z" />
    <glyph glyph-name="uni215C" unicode="&#x215c;" horiz-adv-x="858" 
d="M677 -6q-69 0 -109 30t-40 78q0 68 77 88v4q-65 23 -65 82q0 44 36.5 71.5t100.5 27.5q66 0 102 -27.5t36 -71.5q0 -60 -65 -82v-4q77 -20 77 -88q0 -48 -40 -78t-110 -30zM677 60q55 0 55 43v10q0 42 -55 42q-54 0 -54 -42v-10q0 -20 14 -31.5t40 -11.5zM677 218
q53 0 53 41v8q0 42 -53 42q-25 0 -39 -11.5t-14 -30.5v-8q0 -41 53 -41zM213 0h-96l517 698h96zM116 554h36q58 0 58 35v4q0 18 -13.5 29.5t-37.5 11.5q-48 0 -81 -44l-56 52q52 62 140 62q66 0 105 -27t39 -72q0 -34 -21.5 -55.5t-54.5 -26.5v-4q37 -6 59.5 -28.5
t22.5 -58.5q0 -50 -42 -79.5t-111 -29.5q-101 0 -149 72l67 51q30 -53 82 -53q27 0 42.5 13t15.5 34v3q0 39 -65 39h-36v72z" />
    <glyph glyph-name="uni215D" unicode="&#x215d;" horiz-adv-x="866" 
d="M685 -6q-69 0 -109 30t-40 78q0 68 77 88v4q-65 23 -65 82q0 44 36.5 71.5t100.5 27.5q66 0 102 -27.5t36 -71.5q0 -60 -65 -82v-4q77 -20 77 -88q0 -48 -40 -78t-110 -30zM685 60q55 0 55 43v10q0 42 -55 42q-54 0 -54 -42v-10q0 -20 14 -31.5t40 -11.5zM685 218
q53 0 53 41v8q0 42 -53 42q-25 0 -39 -11.5t-14 -30.5v-8q0 -41 53 -41zM303 698v-76h-182l-8 -111h4q14 32 32 47.5t54 15.5q53 0 88 -32t35 -86q0 -59 -41 -96t-114 -37q-100 0 -144 72l65 51q31 -53 80 -53q28 0 43.5 15.5t15.5 40.5v4q0 23 -15 36.5t-42 13.5
q-38 0 -60 -25l-74 10l15 210h248zM221 0h-96l517 698h96z" />
    <glyph glyph-name="uni215E" unicode="&#x215e;" horiz-adv-x="824" 
d="M180 329h-96l131 298h-117v-67h-77v138h284v-76zM643 -6q-69 0 -109 30t-40 78q0 68 77 88v4q-65 23 -65 82q0 44 36.5 71.5t100.5 27.5q66 0 102 -27.5t36 -71.5q0 -60 -65 -82v-4q77 -20 77 -88q0 -48 -40 -78t-110 -30zM643 60q55 0 55 43v10q0 42 -55 42
q-54 0 -54 -42v-10q0 -20 14 -31.5t40 -11.5zM643 218q53 0 53 41v8q0 42 -53 42q-25 0 -39 -11.5t-14 -30.5v-8q0 -41 53 -41zM179 0h-96l517 698h96z" />
    <glyph glyph-name="uni2190" unicode="&#x2190;" horiz-adv-x="876" 
d="M83 349l230 230l71 -71l-68 -68l-46 -39l1 -4l85 5h437v-106h-437l-85 5l-1 -4l46 -39l68 -68l-71 -71z" />
    <glyph glyph-name="uni2191" unicode="&#x2191;" horiz-adv-x="876" 
d="M438 710l230 -230l-71 -71l-68 68l-39 46l-4 -1l5 -85v-437h-106v437l5 85l-4 1l-39 -46l-68 -68l-71 71z" />
    <glyph glyph-name="uni2192" unicode="&#x2192;" horiz-adv-x="876" 
d="M793 349l-230 -230l-71 71l68 68l46 39l-1 4l-85 -5h-437v106h437l85 -5l1 4l-46 39l-68 68l71 71z" />
    <glyph glyph-name="uni2193" unicode="&#x2193;" horiz-adv-x="876" 
d="M438 -12l-230 230l71 71l68 -68l39 -46l4 1l-5 85v437h106v-437l-5 -85l4 -1l39 46l68 68l71 -71z" />
    <glyph glyph-name="uni2194" unicode="&#x2194;" horiz-adv-x="876" 
d="M83 349l230 230l71 -71l-68 -68l-46 -39l1 -4l85 5h175l85 -5l1 4l-46 39l-68 68l71 71l230 -230l-230 -230l-71 71l68 68l46 39l-1 4l-85 -5h-175l-85 5l-1 -4l46 -39l68 -68l-71 -71z" />
    <glyph glyph-name="uni2195" unicode="&#x2195;" horiz-adv-x="876" 
d="M438 -12l-230 230l71 71l68 -68l39 -46l4 1l-5 85v176l5 85l-4 1l-39 -46l-68 -68l-71 71l230 230l230 -230l-71 -71l-68 68l-39 46l-4 -1l5 -85v-176l-5 -85l4 -1l39 46l68 68l71 -71z" />
    <glyph glyph-name="uni2196" unicode="&#x2196;" horiz-adv-x="876" 
d="M186 619h325v-100h-96l-60 5l-2 -4l63 -57l309 -309l-74 -74l-309 309l-57 63l-4 -2l5 -60v-96h-100v325z" />
    <glyph glyph-name="uni2197" unicode="&#x2197;" horiz-adv-x="876" 
d="M690 619v-325h-100v96l5 60l-4 2l-57 -63l-309 -309l-74 74l309 309l63 57l-2 4l-60 -5h-96v100h325z" />
    <glyph glyph-name="uni2198" unicode="&#x2198;" horiz-adv-x="876" 
d="M691 87h-325v100h96l60 -5l2 4l-63 57l-309 309l74 74l309 -309l57 -63l4 2l-5 60v96h100v-325z" />
    <glyph glyph-name="uni2199" unicode="&#x2199;" horiz-adv-x="876" 
d="M186 87v325h100v-96l-5 -60l4 -2l57 63l309 309l74 -74l-309 -309l-63 -57l2 -4l60 5h96v-100h-325z" />
    <glyph glyph-name="uni21A9" unicode="&#x21a9;" horiz-adv-x="876" 
d="M83 294l230 230l71 -71l-68 -68l-46 -39l1 -4l85 5h213q45 0 74.5 23t29.5 70t-29.5 70.5t-74.5 23.5v100q95 0 159.5 -51.5t64.5 -145.5q0 -93 -64.5 -144.5t-159.5 -51.5h-213l-85 5l-1 -4l46 -39l68 -68l-71 -71z" />
    <glyph glyph-name="uni21AA" unicode="&#x21aa;" horiz-adv-x="876" 
d="M793 294l-230 -230l-71 71l68 68l46 39l-1 4l-85 -5h-213q-95 0 -159.5 51.5t-64.5 144.5q0 94 64.5 145.5t159.5 51.5v-100q-45 0 -74.5 -23.5t-29.5 -70.5t29.5 -70t74.5 -23h213l85 -5l1 4l-46 39l-68 68l71 71z" />
    <glyph glyph-name="uni21B0" unicode="&#x21b0;" horiz-adv-x="876" 
d="M167 468l230 230l71 -71l-68 -68l-46 -39l1 -4l85 5h250v-521h-106v415h-144l-85 5l-1 -4l46 -39l68 -68l-71 -71z" />
    <glyph glyph-name="uni21B1" unicode="&#x21b1;" horiz-adv-x="876" 
d="M710 468l-230 -230l-71 71l68 68l46 39l-1 4l-85 -5h-144v-415h-106v521h250l85 -5l1 4l-46 39l-68 68l71 71z" />
    <glyph glyph-name="uni21B2" unicode="&#x21b2;" horiz-adv-x="876" 
d="M167 230l230 230l71 -71l-68 -68l-46 -39l1 -4l85 5h144v415h106v-521h-250l-85 5l-1 -4l46 -39l68 -68l-71 -71z" />
    <glyph glyph-name="uni21B3" unicode="&#x21b3;" horiz-adv-x="876" 
d="M710 230l-230 -230l-71 71l68 68l46 39l-1 4l-85 -5h-250v521h106v-415h144l85 -5l1 4l-46 39l-68 68l71 71z" />
    <glyph glyph-name="uni21B6" unicode="&#x21b6;" horiz-adv-x="876" 
d="M252 40l-230 230l71 71l68 -68l39 -46l4 1l-5 85v24q0 145 85.5 242t241.5 97t242 -97t86 -242h-106q0 102 -56 171t-166 69t-165.5 -69t-55.5 -171v-24l-5 -85l4 -1l39 46l68 68l71 -71z" />
    <glyph glyph-name="uni21B7" unicode="&#x21b7;" horiz-adv-x="876" 
d="M624 40l-230 230l71 71l68 -68l39 -46l4 1l-5 85v24q0 102 -55.5 171t-165.5 69t-166 -69t-56 -171h-106q0 145 86 242t242 97t241.5 -97t85.5 -242v-24l-5 -85l4 -1l39 46l68 68l71 -71z" />
    <glyph glyph-name="uni21BA" unicode="&#x21ba;" horiz-adv-x="876" 
d="M425 698h325v-100h-94l-61 5l-2 -3l32 -28q34 -29 54 -49.5t45.5 -55t37.5 -76t12 -91.5q0 -135 -97 -223t-237 -88q-141 0 -239.5 93t-98.5 228q0 174 154 292l66 -75q-59 -44 -86 -95.5t-27 -121.5q0 -95 67 -158.5t164 -63.5q99 0 163 59.5t64 152.5q0 61 -25.5 102.5
t-82.5 94.5l-35 32l-3 -2l4 -60v-94h-100v325z" />
    <glyph glyph-name="uni21BB" unicode="&#x21bb;" horiz-adv-x="876" 
d="M451 698v-325h-100v94l5 60l-3 2l-35 -32q-57 -53 -83 -94.5t-26 -102.5q0 -93 64 -152.5t163 -59.5q97 0 164 63.5t67 158.5q0 70 -27 121.5t-86 95.5l66 75q155 -119 155 -292q0 -134 -99 -227.5t-240 -93.5q-140 0 -237 88t-97 223q0 50 12 91.5t37.5 75.5t46 55
t54.5 50l31 28l-2 3l-61 -5h-94v100h325z" />
    <glyph glyph-name="uni21C4" unicode="&#x21c4;" horiz-adv-x="876" 
d="M83 194l230 230l71 -71l-68 -68l-46 -39l1 -4l85 5h437v-106h-437l-85 5l-1 -4l46 -39l68 -68l-71 -71zM793 504l-230 -230l-71 71l68 68l46 39l-1 4l-85 -5h-437v106h437l85 -5l1 4l-46 39l-68 68l71 71z" />
    <glyph glyph-name="uni21C6" unicode="&#x21c6;" horiz-adv-x="876" 
d="M793 194l-230 -230l-71 71l68 68l46 39l-1 4l-85 -5h-437v106h437l85 -5l1 4l-46 39l-68 68l71 71zM83 504l230 230l71 -71l-68 -68l-46 -39l1 -4l85 5h437v-106h-437l-85 5l-1 -4l46 -39l68 -68l-71 -71z" />
    <glyph glyph-name="partialdiff" unicode="&#x2202;" horiz-adv-x="588" 
d="M541 273q0 -142 -66 -213.5t-180 -71.5q-117 0 -183.5 70.5t-66.5 193.5q0 114 55.5 183t147.5 69q94 0 145 -85l8 3q-49 140 -297 276h190q247 -152 247 -425zM293 86q54 0 84.5 33.5t30.5 95.5v60q0 62 -30.5 96t-84.5 34t-84.5 -34t-30.5 -96v-60q0 -62 30.5 -95.5
t84.5 -33.5z" />
    <glyph glyph-name="Delta" unicode="&#x2206;" horiz-adv-x="670" 
d="M49 0v107l198 591h178l196 -590v-108h-572zM480 113l-142 459h-9l-141 -459h292z" />
    <glyph glyph-name="product" unicode="&#x220f;" horiz-adv-x="720" 
d="M257 -200h-132v782h-94v116h658v-116h-94v-782h-132v782h-206v-782z" />
    <glyph glyph-name="summation" unicode="&#x2211;" horiz-adv-x="542" 
d="M505 -84v-116h-465v122l228 325v4l-228 325v122h465v-116h-323l209 -290v-86l-209 -290h323z" />
    <glyph glyph-name="minus" unicode="&#x2212;" 
d="M533 254h-466v103h466v-103z" />
    <glyph glyph-name="radical" unicode="&#x221a;" 
d="M378 0h-157l-120 416h-83v106h167l59 -208l54 -208h7l55 208l110 384h110z" />
    <glyph glyph-name="infinity" unicode="&#x221e;" horiz-adv-x="776" 
d="M214 94q-90 0 -142 54t-52 146t52 146.5t142 54.5q148 0 194 -137h6q6 62 50 99.5t98 37.5q90 0 142 -54t52 -147q0 -92 -52 -146t-142 -54q-148 0 -193 137h-6q-7 -62 -51 -99.5t-98 -37.5zM214 194q44 0 76.5 25t46.5 67q-16 50 -48 79.5t-75 29.5q-36 0 -57.5 -23
t-21.5 -64v-27q0 -41 21.5 -64t57.5 -23zM562 194q37 0 58 23t21 64v27q0 41 -21 64t-58 23q-43 0 -76 -25.5t-46 -66.5q16 -50 47.5 -79.5t74.5 -29.5z" />
    <glyph glyph-name="integral" unicode="&#x222b;" horiz-adv-x="442" 
d="M40 -200v102h117v697q0 64 36.5 102.5t107.5 38.5h101v-102h-117v-697q0 -64 -37 -102.5t-107 -38.5h-101z" />
    <glyph glyph-name="approxequal" unicode="&#x2248;" 
d="M419 107q-53 0 -127 36q-68 34 -111 34q-37 0 -79 -29l-45 72q44 60 128 60q53 0 127 -36q66 -33 111 -33q38 0 79 28l45 -72q-44 -60 -128 -60zM419 330q-53 0 -127 36q-68 34 -111 34q-37 0 -79 -29l-45 72q44 60 128 60q53 0 127 -36q66 -33 111 -33q38 0 79 28
l45 -72q-44 -60 -128 -60z" />
    <glyph glyph-name="notequal" unicode="&#x2260;" 
d="M216 47h-109l51 95h-91v102h145l64 122h-209v102h263l51 97h110l-52 -97h94v-102h-147l-65 -122h212v-102h-266z" />
    <glyph glyph-name="lessequal" unicode="&#x2264;" 
d="M501 0h-402v102h402v-102zM501 604v-120l-255 -112v-7l255 -112v-120l-402 190v90z" />
    <glyph glyph-name="greaterequal" unicode="&#x2265;" 
d="M99 133v120l255 112v7l-255 112v120l402 -190v-90zM99 0v102h402v-102h-402z" />
    <glyph glyph-name="lozenge" unicode="&#x25ca;" 
d="M341 0h-82l-208 349l208 349h82l208 -349zM297 123h6l129 226l-129 226h-6l-129 -226z" />
    <glyph glyph-name="uni2713" unicode="&#x2713;" horiz-adv-x="912" 
d="M795 687l-310 -687h-154l-214 473l118 56l89 -208l81 -211h4l84 211l180 414z" />
    <glyph glyph-name="uni274C" unicode="&#x274c;" horiz-adv-x="912" 
d="M811 83l-89 -89l-266 266l-266 -266l-89 89l266 266l-266 266l89 89l266 -266l266 266l89 -89l-266 -266z" />
    <glyph glyph-name="uni2B0E" unicode="&#x2b0e;" horiz-adv-x="876" 
d="M557 80l-230 230l71 71l68 -68l39 -46l4 1l-5 85v144h-415v106h521v-250l-5 -85l4 -1l39 46l68 68l71 -71z" />
    <glyph glyph-name="uni2B0F" unicode="&#x2b0f;" horiz-adv-x="876" 
d="M557 635l230 -230l-71 -71l-68 68l-39 46l-4 -1l5 -85v-250h-521v106h415v144l5 85l-4 1l-39 -46l-68 -68l-71 71z" />
    <glyph glyph-name="uni2B10" unicode="&#x2b10;" horiz-adv-x="876" 
d="M319 80l-230 230l71 71l68 -68l39 -46l4 1l-5 85v250h521v-106h-415v-144l-5 -85l4 -1l39 46l68 68l71 -71z" />
    <glyph glyph-name="uni2B11" unicode="&#x2b11;" horiz-adv-x="876" 
d="M319 635l230 -230l-71 -71l-68 68l-39 46l-4 -1l5 -85v-144h415v-106h-521v250l5 85l-4 1l-39 -46l-68 -68l-71 71z" />
    <glyph glyph-name="uniEBE1" unicode="&#xebe1;" horiz-adv-x="1800" 
d="M1242 0h-235v141h94v423h-94v141h266l109 -329l109 329h266v-141h-94v-423h94v-141h-235v423l-140 -423l-140 423v-423zM372 0h-329v141h94v423h-94v141h329v-141h-94v-423h94v-141zM654 282v-141h141v141h-141zM419 0v141h94v423h-94v141h345q85 0 140.5 -55t55.5 -133
q0 -54 -26.5 -97t-71.5 -67q45 -24 71.5 -67.5t26.5 -97.5q0 -78 -55.5 -133t-140.5 -55h-345zM654 564v-141h141v141h-141z" />
    <glyph glyph-name="uniEBE3" unicode="&#xebe3;" horiz-adv-x="1800" 
d="M419 564v47h515q14 -21 20 -47h-535zM372 0h-329v47h329v-47zM372 94h-329v47h329v-47zM278 188h-141v47h141v-47zM278 282h-141v47h141v-47zM278 376h-141v47h141v-47zM419 0v47h477q-53 -47 -132 -47h-345zM278 470h-141v47h141v-47zM372 564h-329v47h329v-47zM654 188
h-141v47h141v-47zM419 94v47h535q-6 -26 -20 -47h-515zM372 658h-329v47h329v-47zM513 282v47h383q28 -24 40 -47h-423zM654 470h-141v47h141v-47zM795 188v47h159q6 -22 6 -47h-165zM513 376v47h423q-12 -23 -40 -47h-383zM1242 0h-235v47h235v-47zM1242 94h-235v47h235
v-47zM419 658v47h345q79 0 132 -47h-477zM795 470v47h165q0 -25 -6 -47h-159zM1242 188h-141v47h141v-47zM1398 47l-16 -47l-16 47h32zM1242 282h-141v47h141v-47zM1413 94h-62l-16 47h94zM1242 376h-141v47h141v-47zM1444 188h-124l-15 47h154zM1757 0h-235v47h235v-47z
M1475 282h-186l-16 47h218zM1382 376h-125l-15 47h124zM1351 470h-250v47h234zM1320 564h-313v47h297zM1757 94h-235v47h235v-47zM1663 188h-141v47h141v-47zM1289 658h-282v47h266zM1507 376h-125l16 47h124zM1663 282h-141v47h141v-47zM1663 376h-141v47h141v-47z
M1663 470h-250l16 47h234v-47zM1757 564h-313l16 47h297v-47zM1757 658h-282l16 47h266v-47z" />
    <glyph glyph-name="uniEBE4" unicode="&#xebe4;" horiz-adv-x="1800" 
d="M1259 0l-105 315v-315h-175v105h70v315h-70v105h198l82 -245l82 245h198v-105h-70v-315h70v-105h-175v315zM541 0v105h70v315h-70v105h257q63 0 104.5 -41t41.5 -99q0 -40 -20 -72t-53 -50q33 -18 53 -50.5t20 -72.5q0 -58 -41.5 -99t-104.5 -41h-257zM261 420v105h245
v-105h-70v-315h70v-105h-245v105h70v315h-70zM821 315v105h-105v-105h105zM821 105v105h-105v-105h105z" />
    <glyph glyph-name="uniEBE6" unicode="&#xebe6;" horiz-adv-x="1800" 
d="M611 280v140h-70v105h257q56 0 98 -35h-127v-35h156q10 -13 15 -35h-224v-105h210q-9 -17 -29 -35h-286zM611 210v35h286q47 -41 47 -105q0 -58 -41.5 -99t-104.5 -41h-257v35h228v35h-228v35h280v105h-210zM1177 525l82 -245h-93l-12 35v-35h-105v140h-70v105h198z
M261 0v105h70v140h105v-140h70v-105h-245zM1469 245v-140h70v-105h-175v245h105zM261 490v35h245v-35h-245zM261 420v35h245v-35h-245zM1318 455h221v-35h-233zM1341 525h198v-35h-210zM1294 385h175v-35h-187zM979 70v35h175v-35h-175zM979 0v35h175v-35h-175zM821 350v35
h123q0 -19 -4 -35h-119zM331 280v35h105v-35h-105zM611 140v35h105v-35h-105zM331 350v35h105v-35h-105zM1049 210v35h105v-35h-105zM1469 315v-35h-105v35h105zM1049 140v35h105v-35h-105zM1259 280l12 35h93l-12 -35h-93zM1341 245l-82 -245l-12 35h11v35h-22l-12 35h34
v35h-46l-11 35h57v35h-69l-12 35h164z" />
    <glyph glyph-name="uniEBE7" unicode="&#xebe7;" horiz-adv-x="644" 
d="M488 160q-42 0 -54 43l-38 142l121 -82q27 -19 27 -48q0 -23 -16.5 -39t-39.5 -16zM156 160q-23 0 -39.5 16t-16.5 39q0 29 27 48l121 82l-38 -142q-12 -43 -54 -43zM396 289v-37h-148v37h148zM396 215v-37h-148v37h148zM322 104q-45 0 -64 37h128q-19 -37 -64 -37z
M322 363q45 0 64 -37h-128q19 37 64 37zM364 373q-14 0 -23.5 9.5t-9.5 22.5t9.5 22.5t23.5 9.5t23.5 -9.5t9.5 -22.5t-9.5 -22.5t-23.5 -9.5zM280 373q-14 0 -23.5 9.5t-9.5 22.5t9.5 22.5t23.5 9.5t23.5 -9.5t9.5 -22.5t-9.5 -22.5t-23.5 -9.5zM297 2h-123v19h116zM470 2
h-123l7 19h116v-19zM284 39h-110v19h104zM470 39h-110l6 19h104v-19zM433 -35h-98l6 19h92v-19zM309 -35h-98v19h92zM267 -183h-93v19h93v-19zM470 -183h-93v19h93v-19zM267 -220h-93v19h93v-19zM470 -220h-93v19h93v-19zM285 -109l-6 19h86l-6 -19h-74zM433 -109h-56v19h56
v-19zM433 -72h-56v19h56v-19zM433 -146h-56v19h56v-19zM267 -109h-56v19h56v-19zM267 -72h-56v19h56v-19zM267 -146h-56v19h56v-19zM298 -146l-7 19h62l-7 -19h-48zM322 -72h-49l-6 19h48zM371 -72h-49l7 19h48zM310 -183l-6 19h36l-6 -19h-24zM322 -220l-6 19h12zM285 586
q0 16 10.5 26.5t26.5 10.5t26.5 -10.5t10.5 -26.5t-10.5 -26.5t-26.5 -10.5t-26.5 10.5t-10.5 26.5zM239 586q0 -35 24 -59t59 -24t59 24t24 59t-24 59t-59 24t-59 -24t-24 -59zM470 586q-18 -46 -58.5 -74t-89.5 -28t-89.5 28t-58.5 74q18 46 58.5 74t89.5 28t89.5 -28
t58.5 -74zM322 734q-84 0 -139 -65v28q21 38 58 60.5t81 22.5t81 -22.5t58 -60.5v-28q-55 65 -139 65z" />
    <glyph glyph-name="uniECE0" unicode="&#xece0;" horiz-adv-x="1200" 
d="M1071 604q-89 0 -159 -57t-89 -143h209v-110h-209q19 -86 89 -143t159 -57q19 0 37 3v-107q-16 -2 -38 -2q-147 0 -253 106t-106 255t106 255t253 106q22 0 38 -2v-107q-18 3 -37 3zM197 349q0 -105 75 -180t179 -75q19 0 37 3v-107q-16 -2 -38 -2q-147 0 -253 106
t-106 255t106 255t253 106q22 0 38 -2v-107q-18 3 -37 3q-104 0 -179 -75t-75 -180z" />
    <glyph glyph-name="uniEFCC" unicode="&#xefcc;" horiz-adv-x="1200" 
d="M608 349q0 -56 37 -93.5t90 -37.5q69 0 107 58l63 -45q-62 -88 -168 -88q-85 0 -145.5 60.5t-60.5 145.5t60.5 145.5t145.5 60.5q106 0 168 -88l-63 -45q-38 58 -107 58q-53 0 -90 -37.5t-37 -93.5zM245 311v-257l-72 -52v696h303l-61 -76h-170v-235h136q14 136 116 228
t241 92q87 0 163 -39.5t126 -109.5l-63 -46q-37 53 -97.5 86.5t-130.5 33.5q-111 0 -195.5 -81t-84.5 -202t84.5 -202t195.5 -81q70 0 130.5 33.5t97.5 86.5l63 -46q-50 -70 -126 -109.5t-163 -39.5q-139 0 -241 92t-116 228h-136z" />
    <glyph glyph-name="dieresisacute" unicode="&#xf6d7;" horiz-adv-x="0" 
d="M136 894l-125 -171l-71 34l95 187zM-107 590q-71 0 -71 58v21q0 58 71 58t71 -58v-21q0 -58 -71 -58zM107 590q-71 0 -71 58v21q0 58 71 58t71 -58v-21q0 -58 -71 -58z" />
    <glyph glyph-name="dieresisgrave" unicode="&#xf6d8;" horiz-adv-x="0" 
d="M-11 723l-125 171l101 50l95 -187zM-107 590q-71 0 -71 58v21q0 58 71 58t71 -58v-21q0 -58 -71 -58zM107 590q-71 0 -71 58v21q0 58 71 58t71 -58v-21q0 -58 -71 -58z" />
    <glyph glyph-name="fl" unicode="&#xfb02;" horiz-adv-x="644" 
d="M100 0v421h-77v101h77v75q0 69 37 106t107 37h91v-102h-107v-116h107v-101h-107v-421h-128zM621 0h-69q-128 0 -128 126v614h128v-638h69v-102z" />
    <glyph glyph-name="a.alt01" 
d="M398 0v87h-5q-14 -45 -53.5 -72t-90.5 -27q-98 0 -151 71.5t-53 202.5t53 201.5t151 70.5q52 0 91.5 -26.5t52.5 -71.5h5v86h128v-522h-128zM290 94q47 0 77.5 23t30.5 62v166q0 38 -30.5 61t-77.5 23q-50 0 -80.5 -34t-30.5 -89v-90q0 -55 30.5 -88.5t80.5 -33.5z" />
    <glyph glyph-name="g.alt01" 
d="M526 522v-494q0 -115 -63.5 -177.5t-185.5 -62.5q-131 0 -200 74l70 82q51 -54 128 -54q61 0 92 33t31 93v81h-5q-14 -45 -53 -72t-91 -27q-98 0 -151 70t-53 198t53 198t151 70q52 0 91.5 -27t52.5 -72h5v87h128zM291 104q47 0 77 22.5t30 62.5v156q0 38 -30.5 61
t-76.5 23q-50 0 -81 -34t-31 -89v-79q0 -55 31 -89t81 -34z" />
    <glyph glyph-name="g.alt02" horiz-adv-x="553" 
d="M545 -44q0 -84 -64 -126t-210 -42q-243 0 -243 123q0 86 93 100v11q-32 8 -49.5 31.5t-17.5 55.5q0 71 96 92v4q-95 44 -95 152q0 81 56 129t160 48q56 0 92 -12h171v-88h-69q22 -33 22 -77q0 -81 -56 -128t-160 -47q-45 0 -80 9q-37 -17 -37 -47q0 -39 68 -39h140
q183 0 183 -149zM271 269q94 0 94 80v17q0 80 -94 80t-94 -80v-17q0 -80 94 -80zM425 -59q0 53 -89 53h-178q-27 -20 -27 -54q0 -64 110 -64h64q120 0 120 65z" />
    <glyph glyph-name="zero.alt01" 
d="M300 -12q-131 0 -195.5 93t-64.5 268t64.5 268t195.5 93t195.5 -93t64.5 -268t-64.5 -268t-195.5 -93zM300 99q122 0 122 187v126q0 187 -122 187t-122 -187v-126q0 -187 122 -187zM301 288q-29 0 -44.5 15t-15.5 40v13q0 24 15.5 39.5t44.5 15.5t44.5 -15.5t15.5 -39.5
v-13q0 -25 -15 -40t-45 -15z" />
    <glyph glyph-name="zero.alt02" 
d="M300 -12q-131 0 -195.5 93t-64.5 268t64.5 268t195.5 93t195.5 -93t64.5 -268t-64.5 -268t-195.5 -93zM300 99q120 0 120 187v139l-226 -248q27 -78 106 -78zM180 412v-136l225 248q-27 75 -105 75q-120 0 -120 -187z" />
    <glyph glyph-name="aacute.alt01" 
d="M443 752l-126 -171l-77 37l95 187zM398 0v87h-5q-14 -45 -53.5 -72t-90.5 -27q-98 0 -151 71.5t-53 202.5t53 201.5t151 70.5q52 0 91.5 -26.5t52.5 -71.5h5v86h128v-522h-128zM290 94q47 0 77.5 23t30.5 62v166q0 38 -30.5 61t-77.5 23q-50 0 -80.5 -34t-30.5 -89v-90
q0 -55 30.5 -88.5t80.5 -33.5z" />
    <glyph glyph-name="abreve.alt01" 
d="M304 584q-41 0 -72.5 14t-52 40t-32 49t-22.5 54l71 36l20 -33q22 -36 41 -52.5t47 -16.5t47.5 16.5t41.5 52.5l20 33l70 -36q-54 -157 -179 -157zM398 0v87h-5q-14 -45 -53.5 -72t-90.5 -27q-98 0 -151 71.5t-53 202.5t53 201.5t151 70.5q52 0 91.5 -26.5t52.5 -71.5h5
v86h128v-522h-128zM290 94q47 0 77.5 23t30.5 62v166q0 38 -30.5 61t-77.5 23q-50 0 -80.5 -34t-30.5 -89v-90q0 -55 30.5 -88.5t80.5 -33.5z" />
    <glyph glyph-name="acircumflex.alt01" 
d="M246 786h116l126 -154l-64 -50l-120 115l-120 -115l-64 50zM398 0v87h-5q-14 -45 -53.5 -72t-90.5 -27q-98 0 -151 71.5t-53 202.5t53 201.5t151 70.5q52 0 91.5 -26.5t52.5 -71.5h5v86h128v-522h-128zM290 94q47 0 77.5 23t30.5 62v166q0 38 -30.5 61t-77.5 23
q-50 0 -80.5 -34t-30.5 -89v-90q0 -55 30.5 -88.5t80.5 -33.5z" />
    <glyph glyph-name="adieresis.alt01" 
d="M199 605q-71 0 -71 58v21q0 58 71 58t71 -58v-21q0 -58 -71 -58zM409 605q-71 0 -71 58v21q0 58 71 58t71 -58v-21q0 -58 -71 -58zM398 0v87h-5q-14 -45 -53.5 -72t-90.5 -27q-98 0 -151 71.5t-53 202.5t53 201.5t151 70.5q52 0 91.5 -26.5t52.5 -71.5h5v86h128v-522
h-128zM290 94q47 0 77.5 23t30.5 62v166q0 38 -30.5 61t-77.5 23q-50 0 -80.5 -34t-30.5 -89v-90q0 -55 30.5 -88.5t80.5 -33.5z" />
    <glyph glyph-name="uni1EA1.alt01" 
d="M287 -194q-72 0 -72 58v22q0 58 72 58t72 -58v-22q0 -58 -72 -58zM398 0v87h-5q-14 -45 -53.5 -72t-90.5 -27q-98 0 -151 71.5t-53 202.5t53 201.5t151 70.5q52 0 91.5 -26.5t52.5 -71.5h5v86h128v-522h-128zM290 94q47 0 77.5 23t30.5 62v166q0 38 -30.5 61t-77.5 23
q-50 0 -80.5 -34t-30.5 -89v-90q0 -55 30.5 -88.5t80.5 -33.5z" />
    <glyph glyph-name="agrave.alt01" 
d="M291 581l-126 171l108 53l95 -187zM398 0v87h-5q-14 -45 -53.5 -72t-90.5 -27q-98 0 -151 71.5t-53 202.5t53 201.5t151 70.5q52 0 91.5 -26.5t52.5 -71.5h5v86h128v-522h-128zM290 94q47 0 77.5 23t30.5 62v166q0 38 -30.5 61t-77.5 23q-50 0 -80.5 -34t-30.5 -89v-90
q0 -55 30.5 -88.5t80.5 -33.5z" />
    <glyph glyph-name="uni1EA3.alt01" 
d="M195 698v93h133q89 0 89 -68q0 -51 -54 -119l-27 -33l-67 32l46 95h-120zM398 0v87h-5q-14 -45 -53.5 -72t-90.5 -27q-98 0 -151 71.5t-53 202.5t53 201.5t151 70.5q52 0 91.5 -26.5t52.5 -71.5h5v86h128v-522h-128zM290 94q47 0 77.5 23t30.5 62v166q0 38 -30.5 61
t-77.5 23q-50 0 -80.5 -34t-30.5 -89v-90q0 -55 30.5 -88.5t80.5 -33.5z" />
    <glyph glyph-name="amacron.alt01" 
d="M155 628v93h298v-93h-298zM398 0v87h-5q-14 -45 -53.5 -72t-90.5 -27q-98 0 -151 71.5t-53 202.5t53 201.5t151 70.5q52 0 91.5 -26.5t52.5 -71.5h5v86h128v-522h-128zM290 94q47 0 77.5 23t30.5 62v166q0 38 -30.5 61t-77.5 23q-50 0 -80.5 -34t-30.5 -89v-90
q0 -55 30.5 -88.5t80.5 -33.5z" />
    <glyph glyph-name="aogonek.alt01" 
d="M526 522v-522q-66 -46 -87.5 -68.5t-21.5 -41.5q0 -32 36 -32q29 0 53 26l49 -47q-26 -48 -112 -48q-51 0 -83.5 20t-32.5 63q0 38 28.5 66.5t85.5 57.5l-1 4h-42v87h-5q-14 -45 -53.5 -72t-90.5 -27q-98 0 -151 71.5t-53 202.5t53 201.5t151 70.5q52 0 91.5 -26.5
t52.5 -71.5h5v86h128zM290 94q47 0 77.5 23t30.5 62v166q0 38 -30.5 61t-77.5 23q-50 0 -80.5 -34t-30.5 -89v-90q0 -55 30.5 -88.5t80.5 -33.5z" />
    <glyph glyph-name="aring.alt01" 
d="M304 563q-59 0 -99 38.5t-40 96.5t40 96.5t99 38.5t99 -38.5t40 -96.5t-40 -96.5t-99 -38.5zM304 631q53 0 53 52v30q0 52 -53 52t-53 -52v-30q0 -52 53 -52zM398 0v87h-5q-14 -45 -53.5 -72t-90.5 -27q-98 0 -151 71.5t-53 202.5t53 201.5t151 70.5q52 0 91.5 -26.5
t52.5 -71.5h5v86h128v-522h-128zM290 94q47 0 77.5 23t30.5 62v166q0 38 -30.5 61t-77.5 23q-50 0 -80.5 -34t-30.5 -89v-90q0 -55 30.5 -88.5t80.5 -33.5z" />
    <glyph glyph-name="aringacute.alt01" 
d="M436 911l-134 -96l-49 48l113 116zM304 565q-61 0 -101 32t-40 86t40 86.5t101 32.5t101 -32.5t40 -86.5t-40 -86t-101 -32zM304 628q56 0 56 48v14q0 48 -56 48t-56 -48v-14q0 -48 56 -48zM398 0v87h-5q-14 -45 -53.5 -72t-90.5 -27q-98 0 -151 71.5t-53 202.5t53 201.5
t151 70.5q52 0 91.5 -26.5t52.5 -71.5h5v86h128v-522h-128zM290 94q47 0 77.5 23t30.5 62v166q0 38 -30.5 61t-77.5 23q-50 0 -80.5 -34t-30.5 -89v-90q0 -55 30.5 -88.5t80.5 -33.5z" />
    <glyph glyph-name="atilde.alt01" 
d="M379 604q-30 0 -78 22q-53 23 -75 23q-27 0 -59 -26l-47 60q43 61 109 61q30 0 78 -22q49 -23 75 -23q27 0 59 26l47 -60q-43 -61 -109 -61zM398 0v87h-5q-14 -45 -53.5 -72t-90.5 -27q-98 0 -151 71.5t-53 202.5t53 201.5t151 70.5q52 0 91.5 -26.5t52.5 -71.5h5v86h128
v-522h-128zM290 94q47 0 77.5 23t30.5 62v166q0 38 -30.5 61t-77.5 23q-50 0 -80.5 -34t-30.5 -89v-90q0 -55 30.5 -88.5t80.5 -33.5z" />
    <glyph glyph-name="uni1EAF.alt01" 
d="M304 576q-132 0 -185 142l66 40l20 -31q42 -63 99 -63t99 63l20 31l66 -40q-53 -142 -185 -142zM442 894l-123 -171l-70 34l93 187zM398 0v87h-5q-14 -45 -53.5 -72t-90.5 -27q-98 0 -151 71.5t-53 202.5t53 201.5t151 70.5q52 0 91.5 -26.5t52.5 -71.5h5v86h128v-522
h-128zM290 94q47 0 77.5 23t30.5 62v166q0 38 -30.5 61t-77.5 23q-50 0 -80.5 -34t-30.5 -89v-90q0 -55 30.5 -88.5t80.5 -33.5z" />
    <glyph glyph-name="uni1EB7.alt01" 
d="M287 -194q-72 0 -72 58v22q0 58 72 58t72 -58v-22q0 -58 -72 -58zM304 584q-41 0 -72.5 14t-52 40t-32 49t-22.5 54l71 36l20 -33q22 -36 41 -52.5t47 -16.5t47.5 16.5t41.5 52.5l20 33l70 -36q-54 -157 -179 -157zM398 0v87h-5q-14 -45 -53.5 -72t-90.5 -27
q-98 0 -151 71.5t-53 202.5t53 201.5t151 70.5q52 0 91.5 -26.5t52.5 -71.5h5v86h128v-522h-128zM290 94q47 0 77.5 23t30.5 62v166q0 38 -30.5 61t-77.5 23q-50 0 -80.5 -34t-30.5 -89v-90q0 -55 30.5 -88.5t80.5 -33.5z" />
    <glyph glyph-name="uni1EB1.alt01" 
d="M304 576q-132 0 -185 142l66 40l20 -31q42 -63 99 -63t99 63l20 31l66 -40q-53 -142 -185 -142zM289 723l-121 171l99 50l93 -186zM398 0v87h-5q-14 -45 -53.5 -72t-90.5 -27q-98 0 -151 71.5t-53 202.5t53 201.5t151 70.5q52 0 91.5 -26.5t52.5 -71.5h5v86h128v-522
h-128zM290 94q47 0 77.5 23t30.5 62v166q0 38 -30.5 61t-77.5 23q-50 0 -80.5 -34t-30.5 -89v-90q0 -55 30.5 -88.5t80.5 -33.5z" />
    <glyph glyph-name="uni1EB3.alt01" 
d="M304 576q-132 0 -185 142l66 40l20 -31q42 -63 99 -63t99 63l20 31l66 -40q-53 -142 -185 -142zM186 842v89h124q89 0 89 -67q0 -50 -58 -120l-26 -32l-59 29l48 101h-118zM398 0v87h-5q-14 -45 -53.5 -72t-90.5 -27q-98 0 -151 71.5t-53 202.5t53 201.5t151 70.5
q52 0 91.5 -26.5t52.5 -71.5h5v86h128v-522h-128zM290 94q47 0 77.5 23t30.5 62v166q0 38 -30.5 61t-77.5 23q-50 0 -80.5 -34t-30.5 -89v-90q0 -55 30.5 -88.5t80.5 -33.5z" />
    <glyph glyph-name="uni1EB5.alt01" 
d="M304 576q-132 0 -185 142l66 40l20 -31q42 -63 99 -63t99 63l20 31l66 -40q-53 -142 -185 -142zM375 783q-31 0 -75 21q-49 22 -73 22q-28 0 -59 -25l-44 56q40 60 108 60q30 0 76 -22q51 -21 73 -21q27 0 58 26l45 -56q-43 -61 -109 -61zM398 0v87h-5q-14 -45 -53.5 -72
t-90.5 -27q-98 0 -151 71.5t-53 202.5t53 201.5t151 70.5q52 0 91.5 -26.5t52.5 -71.5h5v86h128v-522h-128zM290 94q47 0 77.5 23t30.5 62v166q0 38 -30.5 61t-77.5 23q-50 0 -80.5 -34t-30.5 -89v-90q0 -55 30.5 -88.5t80.5 -33.5z" />
    <glyph glyph-name="uni1EA5.alt01" 
d="M597 894l-126 -171l-70 34l95 187zM256 770h96l135 -143l-60 -54l-123 107l-123 -107l-60 54zM398 0v87h-5q-14 -45 -53.5 -72t-90.5 -27q-98 0 -151 71.5t-53 202.5t53 201.5t151 70.5q52 0 91.5 -26.5t52.5 -71.5h5v86h128v-522h-128zM290 94q47 0 77.5 23t30.5 62v166
q0 38 -30.5 61t-77.5 23q-50 0 -80.5 -34t-30.5 -89v-90q0 -55 30.5 -88.5t80.5 -33.5z" />
    <glyph glyph-name="uni1EAD.alt01" 
d="M287 -194q-72 0 -72 58v22q0 58 72 58t72 -58v-22q0 -58 -72 -58zM246 786h116l126 -154l-64 -50l-120 115l-120 -115l-64 50zM398 0v87h-5q-14 -45 -53.5 -72t-90.5 -27q-98 0 -151 71.5t-53 202.5t53 201.5t151 70.5q52 0 91.5 -26.5t52.5 -71.5h5v86h128v-522h-128z
M290 94q47 0 77.5 23t30.5 62v166q0 38 -30.5 61t-77.5 23q-50 0 -80.5 -34t-30.5 -89v-90q0 -55 30.5 -88.5t80.5 -33.5z" />
    <glyph glyph-name="uni1EA7.alt01" 
d="M137 723l-126 171l101 50l95 -187zM256 770h96l135 -143l-60 -54l-123 107l-123 -107l-60 54zM398 0v87h-5q-14 -45 -53.5 -72t-90.5 -27q-98 0 -151 71.5t-53 202.5t53 201.5t151 70.5q52 0 91.5 -26.5t52.5 -71.5h5v86h128v-522h-128zM290 94q47 0 77.5 23t30.5 62v166
q0 38 -30.5 61t-77.5 23q-50 0 -80.5 -34t-30.5 -89v-90q0 -55 30.5 -88.5t80.5 -33.5z" />
    <glyph glyph-name="uni1EA9.alt01" 
d="M346 842v89h126q47 0 68.5 -19t21.5 -48q0 -46 -59 -120l-26 -32l-60 30l48 100h-119zM256 770h96l135 -143l-60 -54l-123 107l-123 -107l-60 54zM398 0v87h-5q-14 -45 -53.5 -72t-90.5 -27q-98 0 -151 71.5t-53 202.5t53 201.5t151 70.5q52 0 91.5 -26.5t52.5 -71.5h5
v86h128v-522h-128zM290 94q47 0 77.5 23t30.5 62v166q0 38 -30.5 61t-77.5 23q-50 0 -80.5 -34t-30.5 -89v-90q0 -55 30.5 -88.5t80.5 -33.5z" />
    <glyph glyph-name="uni1EAB.alt01" 
d="M230 925q30 0 78 -22q51 -22 75 -22q28 0 59 25l45 -56q-42 -60 -109 -60q-32 0 -78 21q-49 23 -75 23q-27 0 -59 -26l-45 56q43 61 109 61zM255 761h98l132 -134l-58 -54l-123 100l-123 -100l-58 54zM398 0v87h-5q-14 -45 -53.5 -72t-90.5 -27q-98 0 -151 71.5
t-53 202.5t53 201.5t151 70.5q52 0 91.5 -26.5t52.5 -71.5h5v86h128v-522h-128zM290 94q47 0 77.5 23t30.5 62v166q0 38 -30.5 61t-77.5 23q-50 0 -80.5 -34t-30.5 -89v-90q0 -55 30.5 -88.5t80.5 -33.5z" />
    <glyph glyph-name="gbreve.alt01" 
d="M292 584q-41 0 -72.5 14t-52 40t-32 49t-22.5 54l71 36l20 -33q22 -36 41 -52.5t47 -16.5t47.5 16.5t41.5 52.5l20 33l70 -36q-54 -157 -179 -157zM526 522v-494q0 -115 -63.5 -177.5t-185.5 -62.5q-131 0 -200 74l70 82q51 -54 128 -54q61 0 92 33t31 93v81h-5
q-14 -45 -53 -72t-91 -27q-98 0 -151 70t-53 198t53 198t151 70q52 0 91.5 -27t52.5 -72h5v87h128zM291 104q47 0 77 22.5t30 62.5v156q0 38 -30.5 61t-76.5 23q-50 0 -81 -34t-31 -89v-79q0 -55 31 -89t81 -34z" />
    <glyph glyph-name="gcircumflex.alt01" 
d="M526 522v-494q0 -115 -63.5 -177.5t-185.5 -62.5q-131 0 -200 74l70 82q51 -54 128 -54q61 0 92 33t31 93v81h-5q-14 -45 -53 -72t-91 -27q-98 0 -151 70t-53 198t53 198t151 70q52 0 91.5 -27t52.5 -72h5v87h128zM291 104q47 0 77 22.5t30 62.5v156q0 38 -30.5 61
t-76.5 23q-50 0 -81 -34t-31 -89v-79q0 -55 31 -89t81 -34zM234 786h116l126 -154l-64 -50l-120 115l-120 -115l-64 50z" />
    <glyph glyph-name="gcommaaccent.alt01" 
d="M293 582q-64 0 -64 57v13q0 42 18.5 82t46.5 65h77q-45 -41 -59 -93q45 -5 45 -56v-11q0 -57 -64 -57zM526 522v-494q0 -115 -63.5 -177.5t-185.5 -62.5q-131 0 -200 74l70 82q51 -54 128 -54q61 0 92 33t31 93v81h-5q-14 -45 -53 -72t-91 -27q-98 0 -151 70t-53 198
t53 198t151 70q52 0 91.5 -27t52.5 -72h5v87h128zM291 104q47 0 77 22.5t30 62.5v156q0 38 -30.5 61t-76.5 23q-50 0 -81 -34t-31 -89v-79q0 -55 31 -89t81 -34z" />
    <glyph glyph-name="gdotaccent.alt01" 
d="M292 598q-78 0 -78 63v24q0 63 78 63t78 -63v-24q0 -63 -78 -63zM526 522v-494q0 -115 -63.5 -177.5t-185.5 -62.5q-131 0 -200 74l70 82q51 -54 128 -54q61 0 92 33t31 93v81h-5q-14 -45 -53 -72t-91 -27q-98 0 -151 70t-53 198t53 198t151 70q52 0 91.5 -27t52.5 -72h5
v87h128zM291 104q47 0 77 22.5t30 62.5v156q0 38 -30.5 61t-76.5 23q-50 0 -81 -34t-31 -89v-79q0 -55 31 -89t81 -34z" />
    <glyph glyph-name="ijacute" horiz-adv-x="545" 
d="M540 752l-126 -171l-77 37l95 187zM272 752l-126 -171l-77 37l95 187zM264 -200v102h80v620h128v-585q0 -137 -138 -137h-70zM202 0h-128v522h128v-522z" />
    <glyph glyph-name="jacute" horiz-adv-x="276" 
d="M277 752l-126 -171l-77 37l95 187zM-6 -200v102h80v620h128v-585q0 -137 -138 -137h-70z" />
    <glyph glyph-name="germandbls.alt01" horiz-adv-x="589" 
d="M198 0h-124v599q0 64 36.5 102.5t106.5 38.5h123v-102h-142v-116h337v-94l-147 -208q180 -27 180 -201q0 -107 -68 -163t-187 -56h-64v102h54q71 0 103 24t32 79v26q0 55 -33.5 79.5t-106.5 24.5h-21v99l130 187h-209v-421z" />
    <glyph glyph-name="IJacute" horiz-adv-x="653" 
d="M597 915l-126 -171l-77 38l95 187zM284 915l-126 -171l-77 38l95 187zM327 -11q-104 0 -165.5 50t-77.5 137l122 25q21 -96 121 -96q52 0 84 27.5t32 83.5v374h-106v108h238v-484q0 -104 -67 -164.5t-181 -60.5zM77 303v395h132v-395h-132z" />
    <glyph glyph-name="Jacute" horiz-adv-x="545" 
d="M430 915l-126 -171l-77 38l95 187zM115 698h352v-502q0 -94 -59.5 -150.5t-161.5 -56.5q-94 0 -149 49.5t-71 135.5l122 25q19 -94 97 -94q41 0 65.5 25.5t24.5 74.5v385h-220v108z" />
    <glyph glyph-name="tilde.alt01" 
d="M365 605q-24 0 -68 21t-64 21q-26 0 -51 -22l-46 55q38 62 99 62q26 0 68 -20q42 -22 64 -22q25 0 51 23l46 -55q-39 -63 -99 -63z" />
    <glyph glyph-name="ringacute" 
d="M432 911l-134 -96l-49 48l113 116zM300 565q-61 0 -101 32t-40 86t40 86.5t101 32.5t101 -32.5t40 -86.5t-40 -86t-101 -32zM300 628q56 0 56 48v14q0 48 -56 48t-56 -48v-14q0 -48 56 -48z" />
    <glyph glyph-name="breveacute" horiz-adv-x="0" 
d="M0 576q-132 0 -185 142l66 40l20 -31q42 -63 99 -63t99 63l20 31l66 -40q-53 -142 -185 -142zM138 894l-123 -171l-70 34l93 187z" />
    <glyph glyph-name="brevegrave" horiz-adv-x="0" 
d="M0 576q-132 0 -185 142l66 40l20 -31q42 -63 99 -63t99 63l20 31l66 -40q-53 -142 -185 -142zM-15 723l-121 171l99 50l93 -186z" />
    <glyph glyph-name="brevehook" horiz-adv-x="0" 
d="M0 576q-132 0 -185 142l66 40l20 -31q42 -63 99 -63t99 63l20 31l66 -40q-53 -142 -185 -142zM-118 842v89h124q89 0 89 -67q0 -50 -58 -120l-26 -32l-59 29l48 101h-118z" />
    <glyph glyph-name="brevetilde" horiz-adv-x="0" 
d="M0 576q-132 0 -185 142l66 40l20 -31q42 -63 99 -63t99 63l20 31l66 -40q-53 -142 -185 -142zM71 783q-31 0 -75 21q-49 22 -73 22q-28 0 -59 -25l-44 56q40 60 108 60q30 0 76 -22q51 -21 73 -21q27 0 58 26l45 -56q-43 -61 -109 -61z" />
    <glyph glyph-name="dieresiscaron" horiz-adv-x="0" 
d="M48 748h-96l-135 143l60 54l123 -107l123 107l60 -54zM-107 590q-71 0 -71 58v21q0 58 71 58t71 -58v-21q0 -58 -71 -58zM107 590q-71 0 -71 58v21q0 58 71 58t71 -58v-21q0 -58 -71 -58z" />
    <glyph glyph-name="circumflexacute" horiz-adv-x="0" 
d="M293 894l-126 -171l-70 34l95 187zM-48 770h96l135 -143l-60 -54l-123 107l-123 -107l-60 54z" />
    <glyph glyph-name="circumflexbreve" horiz-adv-x="0" 
d="M-47 744h94l130 -112l-52 -56l-125 85l-125 -85l-52 56zM0 769q-70 0 -112.5 38.5t-62.5 93.5l62 37l20 -26q25 -33 44.5 -46.5t48.5 -13.5t48.5 13.5t44.5 46.5l20 26l62 -37q-20 -55 -62.5 -93.5t-112.5 -38.5z" />
    <glyph glyph-name="circumflexgrave" horiz-adv-x="0" 
d="M-167 723l-126 171l101 50l95 -187zM-48 770h96l135 -143l-60 -54l-123 107l-123 -107l-60 54z" />
    <glyph glyph-name="circumflexhook" horiz-adv-x="0" 
d="M42 842v89h126q47 0 68.5 -19t21.5 -48q0 -46 -59 -120l-26 -32l-60 30l48 100h-119zM-48 770h96l135 -143l-60 -54l-123 107l-123 -107l-60 54z" />
    <glyph glyph-name="dieresismacron" horiz-adv-x="0" 
d="M-149 775v93h298v-93h-298zM-107 590q-71 0 -71 58v21q0 58 71 58t71 -58v-21q0 -58 -71 -58zM107 590q-71 0 -71 58v21q0 58 71 58t71 -58v-21q0 -58 -71 -58z" />
    <glyph glyph-name="circumflextilde" horiz-adv-x="0" 
d="M-74 925q30 0 78 -22q51 -22 75 -22q28 0 59 25l45 -56q-42 -60 -109 -60q-32 0 -78 21q-49 23 -75 23q-27 0 -59 -26l-45 56q43 61 109 61zM-49 761h98l132 -134l-58 -54l-123 100l-123 -100l-58 54z" />
    <glyph glyph-name="tilde.case" 
d="M375 768q-30 0 -78 22q-51 22 -75 22q-28 0 -59 -25l-47 59q41 61 109 61q30 0 78 -22q51 -22 75 -22q28 0 59 25l47 -59q-41 -61 -109 -61z" />
    <glyph glyph-name="tilde.alt01.case" 
d="M365 769q-28 0 -68 21q-44 21 -64 21q-27 0 -51 -23l-46 56q38 62 99 62q28 0 68 -21q44 -21 64 -21q27 0 51 23l46 -56q-38 -62 -99 -62z" />
    <glyph glyph-name="macron.case" 
d="M151 791v93h298v-93h-298z" />
    <glyph glyph-name="dotaccent.case" 
d="M300 760q-79 0 -79 65v25q0 65 79 65t79 -65v-25q0 -65 -79 -65z" />
    <glyph glyph-name="dieresis.case" 
d="M195 769q-71 0 -71 58v21q0 59 71 59t71 -59v-21q0 -58 -71 -58zM405 769q-71 0 -71 58v21q0 59 71 59t71 -59v-21q0 -58 -71 -58z" />
    <glyph glyph-name="hungarumlaut.case" 
d="M341 916l-126 -171l-71 34l95 187zM532 916l-125 -171l-72 34l95 187z" />
    <glyph glyph-name="acute.case" 
d="M439 915l-126 -171l-77 38l95 187z" />
    <glyph glyph-name="grave.case" 
d="M287 744l-126 171l108 54l95 -187z" />
    <glyph glyph-name="circumflex.case" 
d="M242 950h116l126 -154l-64 -51l-120 116l-120 -116l-64 51z" />
    <glyph glyph-name="caron.case" 
d="M358 754h-116l-126 154l64 51l120 -116l120 116l64 -51z" />
    <glyph glyph-name="breve.case" 
d="M300 748q-41 0 -73 14t-52 39.5t-32 49t-22 53.5l71 36l19 -32q22 -36 41 -52.5t48 -16.5t48.5 16.5t41.5 52.5l19 32l70 -36q-51 -156 -179 -156z" />
    <glyph glyph-name="ring.case" 
d="M300 727q-59 0 -99 38.5t-40 96.5t40 96t99 38t99 -38t40 -96t-40 -96.5t-99 -38.5zM300 794q25 0 39 14t14 38v31q0 24 -14 38t-39 14t-39 -14t-14 -38v-31q0 -24 14 -38t39 -14z" />
    <glyph glyph-name="ringacute.case" 
d="M433 1076l-134 -97l-51 46l112 116zM300 728q-61 0 -101 32.5t-40 86.5t40 86t101 32t101 -32t40 -86t-40 -86.5t-101 -32.5zM300 792q56 0 56 48v14q0 47 -56 47t-56 -47v-14q0 -48 56 -48z" />
    <glyph glyph-name="uni0309.case" horiz-adv-x="0" 
d="M-109 862v93h133q89 0 89 -68q0 -51 -54 -119l-27 -33l-67 31l46 96h-120z" />
    <glyph glyph-name="breveacute.case" horiz-adv-x="0" 
d="M0 740q-133 0 -184 142l66 39l20 -32q39 -61 98 -61t98 61l20 32l66 -39q-51 -142 -184 -142zM138 1057l-123 -171l-70 35l93 187z" />
    <glyph glyph-name="brevegrave.case" horiz-adv-x="0" 
d="M0 740q-133 0 -184 142l66 39l20 -32q39 -61 98 -61t98 61l20 32l66 -39q-51 -142 -184 -142zM-15 886l-121 171l99 51l93 -186z" />
    <glyph glyph-name="brevehook.case" horiz-adv-x="0" 
d="M-118 1006v88h124q89 0 89 -67q0 -49 -58 -119l-26 -33l-59 30l48 101h-118zM0 740q-133 0 -184 142l66 39l20 -32q39 -61 98 -61t98 61l20 32l66 -39q-51 -142 -184 -142z" />
    <glyph glyph-name="brevetilde.case" horiz-adv-x="0" 
d="M71 946q-31 0 -75 21q-49 22 -73 22q-28 0 -59 -25l-44 56q40 60 108 60q30 0 76 -22q51 -21 73 -21q27 0 58 26l45 -56q-43 -61 -109 -61zM0 740q-133 0 -184 142l66 39l20 -32q39 -61 98 -61t98 61l20 32l66 -39q-51 -142 -184 -142z" />
    <glyph glyph-name="dieresisacute.case" horiz-adv-x="0" 
d="M136 1057l-125 -171l-71 35l95 187zM-107 754q-71 0 -71 58v21q0 58 71 58t71 -58v-21q0 -58 -71 -58zM107 754q-71 0 -71 58v21q0 58 71 58t71 -58v-21q0 -58 -71 -58z" />
    <glyph glyph-name="dieresiscaron.case" horiz-adv-x="0" 
d="M48 911h-96l-135 143l60 54l123 -106l123 106l60 -54zM-107 754q-71 0 -71 58v21q0 58 71 58t71 -58v-21q0 -58 -71 -58zM107 754q-71 0 -71 58v21q0 58 71 58t71 -58v-21q0 -58 -71 -58z" />
    <glyph glyph-name="dieresisgrave.case" horiz-adv-x="0" 
d="M-11 886l-125 171l101 51l95 -187zM-107 754q-71 0 -71 58v21q0 58 71 58t71 -58v-21q0 -58 -71 -58zM107 754q-71 0 -71 58v21q0 58 71 58t71 -58v-21q0 -58 -71 -58z" />
    <glyph glyph-name="circumflexacute.case" horiz-adv-x="0" 
d="M293 1057l-126 -171l-70 35l95 187zM-48 934h96l135 -143l-60 -54l-123 106l-123 -106l-60 54z" />
    <glyph glyph-name="circumflexbreve.case" horiz-adv-x="0" 
d="M-47 909h94l131 -113l-52 -56l-126 84l-126 -84l-52 56zM0 933q-126 0 -177 131l62 38l21 -30q22 -30 42.5 -43t51.5 -13t51.5 13t42.5 43l21 30l62 -38q-51 -131 -177 -131z" />
    <glyph glyph-name="circumflexgrave.case" horiz-adv-x="0" 
d="M-167 886l-126 171l101 51l95 -187zM-48 934h96l135 -143l-60 -54l-123 106l-123 -106l-60 54z" />
    <glyph glyph-name="circumflexhook.case" horiz-adv-x="0" 
d="M42 1006v88h126q90 0 90 -67q0 -47 -59 -119l-26 -33l-60 31l48 100h-119zM-48 934h96l135 -143l-60 -54l-123 106l-123 -106l-60 54z" />
    <glyph glyph-name="dieresismacron.case" horiz-adv-x="0" 
d="M-149 939v92h298v-92h-298zM-107 754q-71 0 -71 58v21q0 58 71 58t71 -58v-21q0 -58 -71 -58zM107 754q-71 0 -71 58v21q0 58 71 58t71 -58v-21q0 -58 -71 -58z" />
    <glyph glyph-name="circumflextilde.case" horiz-adv-x="0" 
d="M-74 1089q30 0 78 -22q49 -23 75 -23q27 0 59 26l45 -56q-43 -61 -109 -61q-30 0 -78 22q-49 23 -75 23q-27 0 -59 -26l-45 56q43 61 109 61zM-49 925h98l132 -134l-58 -54l-123 100l-123 -100l-58 54z" />
    <glyph glyph-name="NULL" horiz-adv-x="0" 
 />
    <glyph glyph-name="CR" horiz-adv-x="236" 
 />
    </font>
</defs>
</svg>
